<?xml version="1.0" encoding="UTF-8" standalone="no"?>
<svg
   id="Calque_10"
   viewBox="0 0 1920 1080"
   version="1.1"
   width="1920"
   height="1080"
   xml:space="preserve"
   xmlns="http://www.w3.org/2000/svg"
   xmlns:svg="http://www.w3.org/2000/svg"><defs
     id="defs8963"><style
       id="style8958">.cls-1{stroke-dasharray:0 0 5.18 5.18;}.cls-1,.cls-2,.cls-3,.cls-4,.cls-5,.cls-6,.cls-7,.cls-8,.cls-9{stroke-miterlimit:10;}.cls-1,.cls-2,.cls-10,.cls-4,.cls-5,.cls-6,.cls-11,.cls-12,.cls-13,.cls-14,.cls-8,.cls-15,.cls-9{fill:none;}.cls-1,.cls-2,.cls-10,.cls-4,.cls-5,.cls-6,.cls-11,.cls-12,.cls-14{stroke:#b2e5f6;}.cls-16{fill:#f4f4f4;}.cls-17{fill:#fff;}.cls-18{fill:#596d94;}.cls-2{stroke-dasharray:0 0 4.8 4.8;}.cls-19{stroke-width:7px;}.cls-19,.cls-10,.cls-11,.cls-12,.cls-13,.cls-14{stroke-linejoin:round;}.cls-19,.cls-10,.cls-11,.cls-12,.cls-13,.cls-14,.cls-9{stroke-linecap:round;}.cls-19,.cls-7{stroke:#083b4c;}.cls-19,.cls-7,.cls-20,.cls-21{fill:#083b4c;}.cls-22,.cls-23{fill:#ee7864;}.cls-3{fill:#e5eef5;stroke:#dbede6;}.cls-10{stroke-dasharray:0 0 4.92 4.92;}.cls-10,.cls-11,.cls-12,.cls-14{stroke-width:2px;}.cls-24,.cls-25,.cls-26,.cls-27,.cls-28,.cls-29,.cls-30,.cls-23,.cls-31,.cls-32,.cls-33,.cls-34,.cls-35,.cls-36,.cls-37,.cls-38,.cls-39,.cls-40,.cls-41,.cls-42,.cls-43,.cls-44,.cls-45,.cls-46,.cls-47{fill-rule:evenodd;}.cls-24,.cls-48{fill:#e53417;}.cls-49,.cls-50,.cls-34{fill:#0f7599;}.cls-25,.cls-51{fill:#b2e5f6;}.cls-52,.cls-44{fill:#17b0e5;}.cls-26{fill:#191844;}.cls-5{stroke-dasharray:0 0 4.92 4.92;}.cls-27{fill:#e7d5c3;}.cls-6{stroke-dasharray:0 0 5.31 5.31;}.cls-28{fill:#dde2e7;}.cls-53{fill:#cdf2fc;}.cls-29{fill:#e3e3e2;}.cls-54{opacity:.35;}.cls-55,.cls-50,.cls-21{isolation:isolate;}.cls-55,.cls-33{fill:#fdfcfb;}.cls-30{fill:#dce1e6;}.cls-11{stroke-dasharray:0 2.17;}.cls-56{fill:#e53946;}.cls-57{fill:#f5feff;opacity:.71;}.cls-31{fill:#222043;}.cls-58{fill:#dbede6;}.cls-13{stroke:#fbfbfb;stroke-width:5px;}.cls-50{opacity:.3;}.cls-32{fill:#ef9e42;}.cls-59{fill:#2128c5;}.cls-60{fill:#527a98;}.cls-35{fill:#3a2418;}.cls-14{stroke-dasharray:0 2.17;}.cls-61{opacity:.1;}.cls-8{stroke:#17b0e5;}.cls-62{clip-path:url(#clippath);}.cls-36{fill:#e2e2e2;}.cls-37{fill:#aa8b6c;}.cls-38{fill:#c46200;}.cls-63,.cls-43{fill:#64caee;}.cls-39{fill:#99230f;}.cls-40{fill:#b38c76;}.cls-41{fill:#aa8c6c;}.cls-42{fill:#523523;}.cls-9{stroke:#3e8a8b;}.cls-64{fill:#e1f9ff;}.cls-45{fill:#cca285;}.cls-65{fill:#f1f8ed;}.cls-66{fill:#283237;}.cls-46{fill:#92775d;}.cls-67{fill:#1d1d1b;}</style><style
       id="style1">.cls-1{stroke-dasharray:0 0 5.18 5.18;}.cls-1,.cls-2,.cls-3,.cls-4,.cls-5,.cls-6,.cls-7,.cls-8,.cls-9{stroke-miterlimit:10;}.cls-1,.cls-2,.cls-10,.cls-4,.cls-5,.cls-6,.cls-11,.cls-12,.cls-13,.cls-14,.cls-8,.cls-15,.cls-9{fill:none;}.cls-1,.cls-2,.cls-10,.cls-4,.cls-5,.cls-6,.cls-11,.cls-12,.cls-14{stroke:#b2e5f6;}.cls-16{fill:#f4f4f4;}.cls-17{fill:#fff;}.cls-18{fill:#596d94;}.cls-2{stroke-dasharray:0 0 4.8 4.8;}.cls-19{stroke-width:7px;}.cls-19,.cls-10,.cls-11,.cls-12,.cls-13,.cls-14{stroke-linejoin:round;}.cls-19,.cls-10,.cls-11,.cls-12,.cls-13,.cls-14,.cls-9{stroke-linecap:round;}.cls-19,.cls-7{stroke:#083b4c;}.cls-19,.cls-7,.cls-20,.cls-21{fill:#083b4c;}.cls-22,.cls-23{fill:#ee7864;}.cls-3{fill:#e5eef5;stroke:#dbede6;}.cls-10{stroke-dasharray:0 0 4.92 4.92;}.cls-10,.cls-11,.cls-12,.cls-14{stroke-width:2px;}.cls-24,.cls-25,.cls-26,.cls-27,.cls-28,.cls-29,.cls-30,.cls-23,.cls-31,.cls-32,.cls-33,.cls-34,.cls-35,.cls-36,.cls-37,.cls-38,.cls-39,.cls-40,.cls-41,.cls-42,.cls-43,.cls-44,.cls-45,.cls-46,.cls-47{fill-rule:evenodd;}.cls-24,.cls-48{fill:#e53417;}.cls-49,.cls-50,.cls-34{fill:#0f7599;}.cls-25,.cls-51{fill:#b2e5f6;}.cls-52,.cls-44{fill:#17b0e5;}.cls-26{fill:#191844;}.cls-5{stroke-dasharray:0 0 4.92 4.92;}.cls-27{fill:#e7d5c3;}.cls-6{stroke-dasharray:0 0 5.31 5.31;}.cls-28{fill:#dde2e7;}.cls-53{fill:#cdf2fc;}.cls-29{fill:#e3e3e2;}.cls-54{opacity:.35;}.cls-55,.cls-50,.cls-21{isolation:isolate;}.cls-55,.cls-33{fill:#fdfcfb;}.cls-30{fill:#dce1e6;}.cls-11{stroke-dasharray:0 2.17;}.cls-56{fill:#e53946;}.cls-57{fill:#f5feff;opacity:.71;}.cls-31{fill:#222043;}.cls-58{fill:#dbede6;}.cls-13{stroke:#fbfbfb;stroke-width:5px;}.cls-50{opacity:.3;}.cls-32{fill:#ef9e42;}.cls-59{fill:#2128c5;}.cls-60{fill:#527a98;}.cls-35{fill:#3a2418;}.cls-14{stroke-dasharray:0 2.17;}.cls-61{opacity:.1;}.cls-8{stroke:#17b0e5;}.cls-62{clip-path:url(#clippath);}.cls-36{fill:#e2e2e2;}.cls-37{fill:#aa8b6c;}.cls-38{fill:#c46200;}.cls-63,.cls-43{fill:#64caee;}.cls-39{fill:#99230f;}.cls-40{fill:#b38c76;}.cls-41{fill:#aa8c6c;}.cls-42{fill:#523523;}.cls-9{stroke:#3e8a8b;}.cls-64{fill:#e1f9ff;}.cls-45{fill:#cca285;}.cls-65{fill:#f1f8ed;}.cls-66{fill:#283237;}.cls-46{fill:#92775d;}.cls-67{fill:#1d1d1b;}</style><style
       id="style1-8">.cls-1{stroke-dasharray:0 0 5.18 5.18;}.cls-1,.cls-2,.cls-3,.cls-4,.cls-5,.cls-6,.cls-7,.cls-8,.cls-9{stroke-miterlimit:10;}.cls-1,.cls-2,.cls-10,.cls-4,.cls-5,.cls-6,.cls-11,.cls-12,.cls-13,.cls-14,.cls-8,.cls-15,.cls-9{fill:none;}.cls-1,.cls-2,.cls-10,.cls-4,.cls-5,.cls-6,.cls-11,.cls-12,.cls-14{stroke:#b2e5f6;}.cls-16{fill:#f4f4f4;}.cls-17{fill:#fff;}.cls-18{fill:#596d94;}.cls-2{stroke-dasharray:0 0 4.8 4.8;}.cls-19{stroke-width:7px;}.cls-19,.cls-10,.cls-11,.cls-12,.cls-13,.cls-14{stroke-linejoin:round;}.cls-19,.cls-10,.cls-11,.cls-12,.cls-13,.cls-14,.cls-9{stroke-linecap:round;}.cls-19,.cls-7{stroke:#083b4c;}.cls-19,.cls-7,.cls-20,.cls-21{fill:#083b4c;}.cls-22,.cls-23{fill:#ee7864;}.cls-3{fill:#e5eef5;stroke:#dbede6;}.cls-10{stroke-dasharray:0 0 4.92 4.92;}.cls-10,.cls-11,.cls-12,.cls-14{stroke-width:2px;}.cls-24,.cls-25,.cls-26,.cls-27,.cls-28,.cls-29,.cls-30,.cls-23,.cls-31,.cls-32,.cls-33,.cls-34,.cls-35,.cls-36,.cls-37,.cls-38,.cls-39,.cls-40,.cls-41,.cls-42,.cls-43,.cls-44,.cls-45,.cls-46,.cls-47{fill-rule:evenodd;}.cls-24,.cls-48{fill:#e53417;}.cls-49,.cls-50,.cls-34{fill:#0f7599;}.cls-25,.cls-51{fill:#b2e5f6;}.cls-52,.cls-44{fill:#17b0e5;}.cls-26{fill:#191844;}.cls-5{stroke-dasharray:0 0 4.92 4.92;}.cls-27{fill:#e7d5c3;}.cls-6{stroke-dasharray:0 0 5.31 5.31;}.cls-28{fill:#dde2e7;}.cls-53{fill:#cdf2fc;}.cls-29{fill:#e3e3e2;}.cls-54{opacity:.35;}.cls-55,.cls-50,.cls-21{isolation:isolate;}.cls-55,.cls-33{fill:#fdfcfb;}.cls-30{fill:#dce1e6;}.cls-11{stroke-dasharray:0 2.17;}.cls-56{fill:#e53946;}.cls-57{fill:#f5feff;opacity:.71;}.cls-31{fill:#222043;}.cls-58{fill:#dbede6;}.cls-13{stroke:#fbfbfb;stroke-width:5px;}.cls-50{opacity:.3;}.cls-32{fill:#ef9e42;}.cls-59{fill:#2128c5;}.cls-60{fill:#527a98;}.cls-35{fill:#3a2418;}.cls-14{stroke-dasharray:0 2.17;}.cls-61{opacity:.1;}.cls-8{stroke:#17b0e5;}.cls-62{clip-path:url(#clippath);}.cls-36{fill:#e2e2e2;}.cls-37{fill:#aa8b6c;}.cls-38{fill:#c46200;}.cls-63,.cls-43{fill:#64caee;}.cls-39{fill:#99230f;}.cls-40{fill:#b38c76;}.cls-41{fill:#aa8c6c;}.cls-42{fill:#523523;}.cls-9{stroke:#3e8a8b;}.cls-64{fill:#e1f9ff;}.cls-45{fill:#cca285;}.cls-65{fill:#f1f8ed;}.cls-66{fill:#283237;}.cls-46{fill:#92775d;}.cls-67{fill:#1d1d1b;}</style><style
       id="style1-7">.cls-1{stroke-dasharray:0 0 5.18 5.18;}.cls-1,.cls-2,.cls-3,.cls-4,.cls-5,.cls-6,.cls-7,.cls-8,.cls-9{stroke-miterlimit:10;}.cls-1,.cls-2,.cls-10,.cls-4,.cls-5,.cls-6,.cls-11,.cls-12,.cls-13,.cls-14,.cls-8,.cls-15,.cls-9{fill:none;}.cls-1,.cls-2,.cls-10,.cls-4,.cls-5,.cls-6,.cls-11,.cls-12,.cls-14{stroke:#b2e5f6;}.cls-16{fill:#f4f4f4;}.cls-17{fill:#fff;}.cls-18{fill:#596d94;}.cls-2{stroke-dasharray:0 0 4.8 4.8;}.cls-19{stroke-width:7px;}.cls-19,.cls-10,.cls-11,.cls-12,.cls-13,.cls-14{stroke-linejoin:round;}.cls-19,.cls-10,.cls-11,.cls-12,.cls-13,.cls-14,.cls-9{stroke-linecap:round;}.cls-19,.cls-7{stroke:#083b4c;}.cls-19,.cls-7,.cls-20,.cls-21{fill:#083b4c;}.cls-22,.cls-23{fill:#ee7864;}.cls-3{fill:#e5eef5;stroke:#dbede6;}.cls-10{stroke-dasharray:0 0 4.92 4.92;}.cls-10,.cls-11,.cls-12,.cls-14{stroke-width:2px;}.cls-24,.cls-25,.cls-26,.cls-27,.cls-28,.cls-29,.cls-30,.cls-23,.cls-31,.cls-32,.cls-33,.cls-34,.cls-35,.cls-36,.cls-37,.cls-38,.cls-39,.cls-40,.cls-41,.cls-42,.cls-43,.cls-44,.cls-45,.cls-46,.cls-47{fill-rule:evenodd;}.cls-24,.cls-48{fill:#e53417;}.cls-49,.cls-50,.cls-34{fill:#0f7599;}.cls-25,.cls-51{fill:#b2e5f6;}.cls-52,.cls-44{fill:#17b0e5;}.cls-26{fill:#191844;}.cls-5{stroke-dasharray:0 0 4.92 4.92;}.cls-27{fill:#e7d5c3;}.cls-6{stroke-dasharray:0 0 5.31 5.31;}.cls-28{fill:#dde2e7;}.cls-53{fill:#cdf2fc;}.cls-29{fill:#e3e3e2;}.cls-54{opacity:.35;}.cls-55,.cls-50,.cls-21{isolation:isolate;}.cls-55,.cls-33{fill:#fdfcfb;}.cls-30{fill:#dce1e6;}.cls-11{stroke-dasharray:0 2.17;}.cls-56{fill:#e53946;}.cls-57{fill:#f5feff;opacity:.71;}.cls-31{fill:#222043;}.cls-58{fill:#dbede6;}.cls-13{stroke:#fbfbfb;stroke-width:5px;}.cls-50{opacity:.3;}.cls-32{fill:#ef9e42;}.cls-59{fill:#2128c5;}.cls-60{fill:#527a98;}.cls-35{fill:#3a2418;}.cls-14{stroke-dasharray:0 2.17;}.cls-61{opacity:.1;}.cls-8{stroke:#17b0e5;}.cls-62{clip-path:url(#clippath);}.cls-36{fill:#e2e2e2;}.cls-37{fill:#aa8b6c;}.cls-38{fill:#c46200;}.cls-63,.cls-43{fill:#64caee;}.cls-39{fill:#99230f;}.cls-40{fill:#b38c76;}.cls-41{fill:#aa8c6c;}.cls-42{fill:#523523;}.cls-9{stroke:#3e8a8b;}.cls-64{fill:#e1f9ff;}.cls-45{fill:#cca285;}.cls-65{fill:#f1f8ed;}.cls-66{fill:#283237;}.cls-46{fill:#92775d;}.cls-67{fill:#1d1d1b;}</style><style
       id="style1-9">.cls-1{stroke-dasharray:0 0 5.18 5.18;}.cls-1,.cls-2,.cls-3,.cls-4,.cls-5,.cls-6,.cls-7,.cls-8,.cls-9{stroke-miterlimit:10;}.cls-1,.cls-2,.cls-10,.cls-4,.cls-5,.cls-6,.cls-11,.cls-12,.cls-13,.cls-14,.cls-8,.cls-15,.cls-9{fill:none;}.cls-1,.cls-2,.cls-10,.cls-4,.cls-5,.cls-6,.cls-11,.cls-12,.cls-14{stroke:#b2e5f6;}.cls-16{fill:#f4f4f4;}.cls-17{fill:#fff;}.cls-18{fill:#596d94;}.cls-2{stroke-dasharray:0 0 4.8 4.8;}.cls-19{stroke-width:7px;}.cls-19,.cls-10,.cls-11,.cls-12,.cls-13,.cls-14{stroke-linejoin:round;}.cls-19,.cls-10,.cls-11,.cls-12,.cls-13,.cls-14,.cls-9{stroke-linecap:round;}.cls-19,.cls-7{stroke:#083b4c;}.cls-19,.cls-7,.cls-20,.cls-21{fill:#083b4c;}.cls-22,.cls-23{fill:#ee7864;}.cls-3{fill:#e5eef5;stroke:#dbede6;}.cls-10{stroke-dasharray:0 0 4.92 4.92;}.cls-10,.cls-11,.cls-12,.cls-14{stroke-width:2px;}.cls-24,.cls-25,.cls-26,.cls-27,.cls-28,.cls-29,.cls-30,.cls-23,.cls-31,.cls-32,.cls-33,.cls-34,.cls-35,.cls-36,.cls-37,.cls-38,.cls-39,.cls-40,.cls-41,.cls-42,.cls-43,.cls-44,.cls-45,.cls-46,.cls-47{fill-rule:evenodd;}.cls-24,.cls-48{fill:#e53417;}.cls-49,.cls-50,.cls-34{fill:#0f7599;}.cls-25,.cls-51{fill:#b2e5f6;}.cls-52,.cls-44{fill:#17b0e5;}.cls-26{fill:#191844;}.cls-5{stroke-dasharray:0 0 4.92 4.92;}.cls-27{fill:#e7d5c3;}.cls-6{stroke-dasharray:0 0 5.31 5.31;}.cls-28{fill:#dde2e7;}.cls-53{fill:#cdf2fc;}.cls-29{fill:#e3e3e2;}.cls-54{opacity:.35;}.cls-55,.cls-50,.cls-21{isolation:isolate;}.cls-55,.cls-33{fill:#fdfcfb;}.cls-30{fill:#dce1e6;}.cls-11{stroke-dasharray:0 2.17;}.cls-56{fill:#e53946;}.cls-57{fill:#f5feff;opacity:.71;}.cls-31{fill:#222043;}.cls-58{fill:#dbede6;}.cls-13{stroke:#fbfbfb;stroke-width:5px;}.cls-50{opacity:.3;}.cls-32{fill:#ef9e42;}.cls-59{fill:#2128c5;}.cls-60{fill:#527a98;}.cls-35{fill:#3a2418;}.cls-14{stroke-dasharray:0 2.17;}.cls-61{opacity:.1;}.cls-8{stroke:#17b0e5;}.cls-62{clip-path:url(#clippath);}.cls-36{fill:#e2e2e2;}.cls-37{fill:#aa8b6c;}.cls-38{fill:#c46200;}.cls-63,.cls-43{fill:#64caee;}.cls-39{fill:#99230f;}.cls-40{fill:#b38c76;}.cls-41{fill:#aa8c6c;}.cls-42{fill:#523523;}.cls-9{stroke:#3e8a8b;}.cls-64{fill:#e1f9ff;}.cls-45{fill:#cca285;}.cls-65{fill:#f1f8ed;}.cls-66{fill:#283237;}.cls-46{fill:#92775d;}.cls-67{fill:#1d1d1b;}</style></defs><g
     id="layer1"
     transform="translate(0,290)"><path
       id="rect2"
       clip-path="none"
       style="stroke-width:0.99999"
       class="cls-63"
       d="M 0,-290 V 428.81354 H 1919.998 V -290 Z" /><path
       id="polygon2"
       clip-path="none"
       class="cls-57"
       d="M 1490.1094,-1.2512918 V 159.00023 h -42.0951 v 51.23448 h -32.9456 V 332.801 h -38.4373 V 164.01919 h -95.1695 v -49.22297 h -53.9942 v 78.86027 l -50.3344,27.62776 V 380.01641 H 1058.1655 V 31.414959 H 930.0406 V 96.718166 H 829.38147 l -27.45798,15.068614 v 36.16586 H 675.6382 l -23.79823,13.05713 V 283.56631 H 598.75581 V 94.708626 H 499.92657 V 127.85334 H 343.43358 v 79.87188 l -28.36805,15.56856 v 78.45017 H 267.88114 V 108.14657 L 203.81769,94.077838 V 41.83371 H 31.77559 V 262.84989 H 16.367086 v 217.8056 H 1864.4092 V 135.39351 L 1812.2449,106.7561 V 26.395992 H 1671.3107 V -1.2512918 Z"
       style="stroke-width:0.99989" /><path
       id="polygon3"
       clip-path="none"
       class="cls-64"
       d="M 1590.3097,41.613032 V 480.65549 h 287.8792 V 165.14017 h -110.658 l -25.9288,28.50655 v 87.42964 H 1713.935 V 41.613032 Z M 403.86656,66.961745 v 42.594815 l -24.90749,27.38756 V 480.65549 H 857.74953 L 813.50232,403.65242 H 736.00086 V 125.78521 H 586.54619 l -12.91855,14.19762 v 85.17988 95.32914 H 531.18298 V 66.961745 Z M 187.05972,188.65705 162.14247,216.03484 v 38.54449 H 23.756919 L 20.360798,480.65549 H 350.35275 v -258.5315 h -16.60953 v -33.46694 z m 705.7837,36.50566 v 214.99733 h -35.05483 v 40.49545 H 1005.4017 V 354.96844 H 968.50524 V 225.16271 Z m 385.37858,12.1998 v 81.71934 H 1132.9876 V 480.65549 H 1553.134 V 237.36251 Z"
       style="stroke-width:0.99989" /><path
       id="polygon4"
       clip-path="none"
       class="cls-53"
       d="m 1184.1328,50.743229 v 17.388672 h -87.5899 v 69.550779 h -82.0117 l -20.498,23.70704 v 284.51952 h -69.89258 v -57.6953 L 880.34571,351.0694 V 215.13386 H 727.52148 v 112.22851 h -55.90429 v 94.8379 l -62.04102,58.45507 H 561.66016 V 185.09674 L 442.37305,115.55573 v 278.1875 H 414.42578 V 202.48542 H 272.78125 V 268.878 H 207.54688 V 480.65534 H 179.58984 V 449.06745 H 84.550781 V 406.39166 L 67.771485,385.84674 H 0 V 790 h 1920 l -0.207,-589.09466 h -42.3633 v 279.75 h -44.7266 v -71.10351 l -63.373,-53.74414 V 147.1612 h -80.1309 l -46.5957,-39.51367 h -59.6425 v 210.2246 h -143.5059 v 162.78321 h -37.2656 V 223.03424 L 1297.8222,268.878 v 199.15819 h -27.959 V 161.38972 h -35.416 V 71.292058 H 1199.041 V 50.743229 Z"
       style="stroke-width:0.99989" /><path
       class="cls-51"
       d="m 139.25477,-74.153747 h 223.786 c 0,0 -0.45995,-39.865523 -37.38599,-39.865523 -27.30707,0 -37.51597,17.867995 -37.51597,17.867995 0,0 -7.4892,-44.664985 -44.8252,-44.664985 -37.336,0 -57.32385,50.714305 -57.32385,50.714305 0,0 -19.43792,-20.717675 -42.49545,-20.717675 -23.05752,0 -4.24954,36.665883 -4.24954,36.665883 z"
       id="path4-3"
       clip-path="none"
       style="stroke-width:0.99989" /><path
       class="cls-51"
       d="M 1806.916,-101.10375 H 1583.13 c 0,0 0.4599,-39.86552 37.3859,-39.86552 27.3071,0 37.516,17.86799 37.516,17.86799 0,0 7.4892,-44.66498 44.8252,-44.66498 37.326,0 57.3239,50.7143 57.3239,50.7143 0,0 19.4379,-20.71767 42.4954,-20.71767 23.0575,0 4.2496,36.66588 4.2496,36.66588 z"
       id="path6"
       clip-path="none"
       style="stroke-width:0.99989" /><path
       class="cls-51"
       d="m 221.42596,150.82162 h -20.24783 c -3.44963,0 -6.24933,2.79968 -6.24933,6.24929 v 20.25773 c 0,3.44961 2.7997,6.24929 6.24933,6.24929 h 20.24783 c 3.44963,0 6.24933,-2.79968 6.24933,-6.24929 v -20.25773 c 0,-3.44961 -2.7997,-6.24929 -6.24933,-6.24929 z m 1.35985,24.41725 -3.19965,-3.20964 -2.73971,0.71992 -0.70992,2.7297 3.19965,3.19964 c -1.73981,0.51994 -3.7096,0.09 -5.07945,-1.28986 -1.36986,-1.35985 -1.79981,-3.29963 -1.29986,-5.02943 l -6.81927,-6.80924 c -1.72982,0.48995 -3.66961,0.06 -5.02946,-1.29985 -1.37986,-1.37985 -1.80981,-3.33963 -1.28986,-5.08943 l 3.19965,3.19964 2.73971,-0.70992 0.70992,-2.72969 -3.19965,-3.19964 c 1.73981,-0.51995 3.7096,-0.09 5.07945,1.27985 1.36985,1.36985 1.79981,3.30963 1.29986,5.03944 l 6.81927,6.80923 c 1.72981,-0.49994 3.66961,-0.06 5.02946,1.29985 1.37985,1.37985 1.80981,3.33963 1.28986,5.08943 z"
       id="path173"
       clip-path="none"
       style="stroke-width:0.99989" /><path
       class="cls-51"
       d="m 115.87728,165.70994 c -0.02,-0.14998 -0.05,-0.27997 -0.10999,-0.41995 v 0 c -0.04,-0.09 -0.08,-0.16998 -0.11999,-0.23997 -0.05,-0.08 -0.10999,-0.14999 -0.16998,-0.20998 -0.03,-0.03 -0.06,-0.07 -0.09,-0.09 -0.03,-0.03 -0.07,-0.06 -0.1,-0.09 v 0 c 0,0 -0.09,-0.07 -0.13999,-0.09 -0.10998,-0.07 -0.22997,-0.11999 -0.34996,-0.14998 -0.04,-0.01 -0.08,-0.02 -0.12998,-0.03 -0.15999,-0.03 -0.31997,-0.03 -0.48995,0 h -0.03 c -0.11999,0.02 -0.22997,0.02 -0.34996,0.01 -0.27997,-0.02 -0.53994,-0.11999 -0.75992,-0.27997 -0.04,-0.02 -0.07,-0.05 -0.10999,-0.09 -0.04,-0.03 -0.08,-0.07 -0.10999,-0.10999 -0.05,-0.06 -0.1,-0.11998 -0.13998,-0.18997 -0.04,-0.06 -0.07,-0.12999 -0.10999,-0.18998 -0.02,-0.04 -0.03,-0.07 -0.05,-0.10999 -0.01,-0.03 -0.02,-0.06 -0.04,-0.09 -0.1,-0.27997 -0.21998,-0.55994 -0.34996,-0.83991 0,0 0,-0.01 0,-0.02 -0.02,-0.05 -0.04,-0.1 -0.06,-0.14999 -0.07,-0.20997 -0.09,-0.41995 -0.07,-0.62993 v 0 c 0.02,-0.16998 0.07,-0.33996 0.14999,-0.49994 0.07,-0.15998 0.17998,-0.29997 0.30996,-0.41995 0.05,-0.04 0.09,-0.08 0.13999,-0.11999 l 0.03,-0.02 c 0,0 0.09,-0.07 0.12999,-0.10998 0.11999,-0.10999 0.21998,-0.23998 0.28997,-0.36996 0.04,-0.07 0.07,-0.13999 0.09,-0.20998 v 0 c 0.02,-0.07 0.05,-0.14998 0.06,-0.21997 0.09,-0.41996 0,-0.87991 -0.28997,-1.24986 -0.30996,-0.38996 -0.64993,-0.75992 -0.99989,-1.12988 -0.35996,-0.35996 -0.73992,-0.69992 -1.12988,-1.00988 -0.36996,-0.29997 -0.84991,-0.38996 -1.27986,-0.27997 -0.06,0.02 -0.10999,0.03 -0.15998,0.05 -0.20998,0.07 -0.41996,0.19998 -0.57994,0.37996 -0.04,0.04 -0.08,0.09 -0.11999,0.13998 l -0.03,0.03 c -0.17998,0.23997 -0.41995,0.41995 -0.69992,0.51994 -0.1,0.04 -0.19998,0.06 -0.30997,0.08 -0.01,0 -0.03,0 -0.04,0 -0.02,0 -0.05,0 -0.08,0 -0.10999,0 -0.20998,0 -0.30997,-0.01 -0.08,0 -0.15998,-0.03 -0.22998,-0.06 -0.05,-0.02 -0.1,-0.03 -0.14998,-0.06 -0.07,-0.03 -0.12999,-0.06 -0.18998,-0.09 -0.09,-0.05 -0.18998,-0.09 -0.27997,-0.11999 -0.15998,-0.07 -0.31997,-0.12998 -0.47995,-0.18998 0,0 0,0 -0.02,0 -0.61993,-0.22997 -0.98989,-0.8599 -0.94989,-1.49983 v -0.02 c 0,0 0.02,-0.11998 0.02,-0.11998 v 0 c 0.10999,-0.79991 -0.39995,-1.52983 -1.14987,-1.69981 -0.05,-0.02 -0.10999,-0.02 -0.16998,-0.03 -0.49995,-0.05 -0.9999,-0.08 -1.50984,-0.08 -0.50995,0 -1.01989,0.03 -1.50984,0.08 -0.809914,0.09 -1.399851,0.82991 -1.319859,1.63982 0,0.04 0,0.07 0.01,0.10998 0.01,0.07 0.02,0.14999 0.02,0.21998 0,0.57993 -0.329964,1.11987 -0.859907,1.36985 -0.04,0.02 -0.07999,0.03 -0.119988,0.05 -0.159982,0.06 -0.309966,0.11999 -0.45995,0.17998 -0.129986,0.05 -0.249973,0.10999 -0.369961,0.15998 -0.03,0.01 -0.05999,0.03 -0.08999,0.04 -0.64993,0.29996 -1.409849,0.09 -1.839803,-0.47995 v 0 c -0.479948,-0.64993 -1.369853,-0.80991 -2.039781,-0.38996 -0.04999,0.03 -0.08999,0.06 -0.139985,0.09 -0.379959,0.29997 -0.759918,0.63993 -1.109881,0.99989 -0.359961,0.34996 -0.689926,0.72992 -0.999893,1.10988 -0.319965,0.40995 -0.409956,0.92989 -0.259972,1.37984 0.04,0.13999 0.09999,0.27997 0.179981,0.39996 0.06999,0.1 0.139985,0.18998 0.219976,0.26997 0.05,0.04 0.08999,0.08 0.139985,0.11998 v 0 c 0.569939,0.42996 0.789916,1.19987 0.479949,1.8498 -0.139985,0.29996 -0.269971,0.60993 -0.379959,0.92989 -0.06999,0.18998 -0.169982,0.34996 -0.299968,0.49995 -0.07999,0.08 -0.159983,0.14998 -0.249974,0.21997 -0.08999,0.06 -0.199978,0.11999 -0.299967,0.15998 -0.06999,0.03 -0.139985,0.05 -0.219977,0.07 -0.189979,0.04 -0.36996,0.05 -0.569939,0.02 -0.06999,-0.01 -0.149984,-0.02 -0.219976,-0.02 -0.08999,0 -0.18998,0 -0.27997,0.02 -0.64993,0.11999 -1.169875,0.63993 -1.249866,1.31985 -0.04999,0.48995 -0.08999,0.98989 -0.08999,1.48984 0,0.49994 0.03,0.99988 0.08999,1.48983 0.07999,0.68992 0.599936,1.20986 1.249866,1.31985 0.159983,0.03 0.329965,0.03 0.499946,0 0.06999,-0.01 0.149984,-0.02 0.219977,-0.02 0.309967,0 0.609934,0.09 0.859908,0.25997 0.05999,0.05 0.119987,0.09 0.17998,0.13999 0.159983,0.14998 0.299968,0.34996 0.37996,0.56993 0.119987,0.30997 0.239974,0.61993 0.379959,0.9299 0.27997,0.58993 0.119987,1.27986 -0.339964,1.71981 -0.04999,0.04 -0.08999,0.08 -0.139985,0.11998 v 0 c 0,0 0,0 0,0 -0.04999,0.04 -0.09999,0.08 -0.139985,0.11999 -0.07999,0.08 -0.159983,0.16998 -0.219976,0.26997 -0.07999,0.11999 -0.139985,0.25997 -0.179981,0.39995 -0.01,0.05 -0.02,0.09 -0.03,0.13999 0,0.05 -0.02,0.09 -0.02,0.13998 0,0.05 -0.01,0.1 -0.01,0.14999 v 0 c 0,0 0,0.04 0,0.05 0,0.07 0,0.13998 0.02,0.20998 0.01,0.07 0.03,0.13998 0.04999,0.20997 0,0 0,0.02 0,0.02 0,0 0,0.02 0,0.02 0,0.02 0.02,0.05 0.02,0.07 0.02,0.05 0.04999,0.1 0.06999,0.14998 0,0 0.01,0.02 0.02,0.02 0,0 0.01,0.02 0.02,0.03 0.03,0.06 0.06999,0.11998 0.109988,0.16998 0.299968,0.37996 0.639932,0.75991 0.999893,1.10987 0.349963,0.34996 0.719923,0.67993 1.109881,0.98989 0.319966,0.24997 0.709924,0.35996 1.079884,0.31997 0.129986,-0.01 0.259972,-0.04 0.37996,-0.09 0.27997,-0.09 0.519944,-0.26997 0.709923,-0.51994 l 0.119988,-0.13999 c 0.169981,-0.17998 0.36996,-0.30996 0.589936,-0.38995 l 0.519945,-0.09 c 0.209977,0 0.419955,0.05 0.619933,0.13998 0.299968,0.13998 0.609935,0.26997 0.919902,0.37996 0.299967,0.10998 0.549941,0.30996 0.719922,0.55993 0.05999,0.09 0.119987,0.18998 0.159983,0.29997 0.08999,0.23997 0.129986,0.50994 0.08999,0.78991 v 0 c -0.119988,0.80991 0.409956,1.54983 1.179872,1.70981 0,0 0,0 0.01,0 0.05,0.01 0.09,0.02 0.13999,0.02 0.48994,0.06 0.98989,0.09 1.48984,0.09 0.49994,0 0.99989,-0.03 1.47984,-0.08 0.36996,-0.05 0.68992,-0.20998 0.9199,-0.45995 0.09,-0.1 0.17998,-0.20998 0.23997,-0.32997 0.03,-0.06 0.06,-0.11998 0.09,-0.18997 0.09,-0.23998 0.12999,-0.49995 0.09,-0.76992 -0.01,-0.07 -0.02,-0.14998 -0.02,-0.21997 0,-0.62993 0.37996,-1.19987 0.97989,-1.41984 0.30997,-0.10999 0.61994,-0.23998 0.9199,-0.37996 v 0 c 0.41996,-0.19998 0.89991,-0.17998 1.29986,0.02 0.1,0.05 0.20998,0.11998 0.29997,0.18998 0.05,0.04 0.09,0.08 0.12999,0.12998 0.05,0.04 0.08,0.09 0.11998,0.13999 v 0 c 0.47995,0.64992 1.36986,0.8099 2.02979,0.38995 0.05,-0.03 0.09,-0.06 0.13998,-0.1 0.37996,-0.30996 0.75992,-0.63993 1.10988,-0.99988 0.34997,-0.35996 0.68993,-0.72992 0.9999,-1.10988 0.31996,-0.40995 0.39995,-0.9299 0.25997,-1.38984 -0.02,-0.07 -0.05,-0.12999 -0.07,-0.19998 -0.03,-0.07 -0.07,-0.12999 -0.10999,-0.18998 -0.07,-0.1 -0.13999,-0.18998 -0.21998,-0.26997 -0.05,-0.04 -0.09,-0.08 -0.13998,-0.11999 v 0 c 0,0 -0.09,-0.08 -0.13999,-0.11998 -0.45995,-0.43995 -0.61993,-1.12988 -0.33996,-1.71981 0.13998,-0.29997 0.26997,-0.60993 0.37996,-0.92989 0.23997,-0.66993 0.9399,-1.06988 1.63982,-0.9599 0.36996,0.05 0.72992,-0.03 1.01989,-0.20997 0.08,-0.05 0.14999,-0.1 0.20998,-0.15999 0.03,-0.03 0.07,-0.06 0.1,-0.09 0.03,-0.03 0.05,-0.06 0.08,-0.09 0.17998,-0.20997 0.29997,-0.48994 0.32996,-0.77991 0.06,-0.48994 0.09,-0.98989 0.09,-1.48983 0,-0.49994 -0.03,-0.99989 -0.09,-1.48983 z m -6.47931,2.24975 c 0,0 0,0.05 0,0.07 -0.02,0.11999 -0.03,0.23998 -0.05,0.35996 -0.02,0.12999 -0.04,0.24997 -0.07,0.37996 0,0 0,0.01 0,0.02 -0.05,0.24997 -0.11998,0.48994 -0.19998,0.72991 -0.05,0.13999 -0.1,0.27997 -0.14998,0.41996 -0.05,0.11998 -0.1,0.24997 -0.15998,0.36996 -0.04,0.09 -0.09,0.17998 -0.12999,0.26997 -0.11999,0.23997 -0.24997,0.46994 -0.40995,0.69992 -0.04,0.06 -0.08,0.11998 -0.11999,0.17998 -0.01,0.02 -0.03,0.05 -0.06,0.08 -0.05,0.07 -0.09,0.12998 -0.14998,0.19998 -0.06,0.08 -0.11999,0.15998 -0.18998,0.23997 -0.12998,0.15998 -0.26997,0.31996 -0.41995,0.45995 -0.06,0.07 -0.12999,0.12998 -0.18998,0.18998 -0.07,0.06 -0.13999,0.11998 -0.20998,0.17998 -0.1,0.08 -0.19998,0.15998 -0.29997,0.24997 -0.24997,0.18998 -0.50994,0.36996 -0.76992,0.52994 -0.08,0.05 -0.16998,0.1 -0.24997,0.13998 -0.1,0.05 -0.19998,0.1 -0.29997,0.14998 -0.09,0.05 -0.18998,0.09 -0.28997,0.12999 -0.15998,0.07 -0.31996,0.12999 -0.47994,0.17998 -0.09,0.03 -0.17999,0.07 -0.27997,0.09 -0.19998,0.06 -0.39996,0.10999 -0.60994,0.15998 -0.1,0.02 -0.19998,0.05 -0.29997,0.06 -0.1,0.02 -0.20997,0.04 -0.30996,0.05 -0.50995,0.06 -1.03989,0.07 -1.54984,0.03 -0.1,0 -0.20997,-0.02 -0.30996,-0.03 -0.1,0 -0.20998,-0.02 -0.30997,-0.05 -0.1,-0.02 -0.20998,-0.03 -0.30997,-0.06 -0.34996,-0.08 -0.699923,-0.17998 -1.039886,-0.29996 -0.08999,-0.03 -0.179981,-0.07 -0.269971,-0.10999 0,0 -0.02,0 -0.03,-0.01 -0.09999,-0.04 -0.199979,-0.09 -0.289969,-0.12999 0,0 -0.02,0 -0.03,-0.02 -0.09999,-0.05 -0.209977,-0.1 -0.299968,-0.15999 -0.209977,-0.10998 -0.409956,-0.22997 -0.609934,-0.36995 0,0 -0.01,0 -0.02,0 -0.08999,-0.06 -0.179981,-0.12999 -0.27997,-0.19998 -0.07999,-0.06 -0.159983,-0.11999 -0.239974,-0.18998 -0.119987,-0.09 -0.219977,-0.18998 -0.329965,-0.28997 -0.109988,-0.09 -0.209977,-0.19998 -0.309967,-0.29996 -0.08999,-0.09 -0.169981,-0.17998 -0.249973,-0.26997 -0.289969,-0.32997 -0.549941,-0.67993 -0.769917,-1.03989 -0.05999,-0.1 -0.119987,-0.19997 -0.179981,-0.30996 -0.06999,-0.11999 -0.129986,-0.22998 -0.179981,-0.35996 -0.03,-0.07 -0.06999,-0.13999 -0.08999,-0.20998 -0.02,-0.05 -0.04,-0.09 -0.05999,-0.13998 -0.02,-0.06 -0.04999,-0.11999 -0.06999,-0.17998 -0.03,-0.08 -0.05999,-0.15998 -0.07999,-0.23998 -0.01,-0.03 -0.02,-0.06 -0.03,-0.09 -0.03,-0.1 -0.06999,-0.19997 -0.08999,-0.29996 -0.04999,-0.14998 -0.07999,-0.29997 -0.119987,-0.44995 -0.02,-0.09 -0.04,-0.18998 -0.04999,-0.27997 -0.03,-0.16998 -0.05,-0.34996 -0.06999,-0.51994 -0.02,-0.24997 -0.04,-0.50994 -0.04,-0.75992 v 0 c 0,-0.25997 0.01,-0.50994 0.04,-0.75991 0,-0.02 0,-0.05 0,-0.07 0.01,-0.11999 0.03,-0.23998 0.04999,-0.35996 0.02,-0.12999 0.04,-0.24997 0.06999,-0.37996 0,0 0,-0.01 0,-0.02 0.04999,-0.24997 0.119987,-0.48994 0.199979,-0.72991 0.03,-0.1 0.06999,-0.19998 0.109988,-0.29997 0.03,-0.07 0.05999,-0.14998 0.08999,-0.22998 0.02,-0.05 0.04,-0.1 0.06999,-0.14998 0.03,-0.07 0.05999,-0.12998 0.08999,-0.19998 0.08999,-0.18997 0.179981,-0.36995 0.299968,-0.54993 0.04999,-0.09 0.09999,-0.16999 0.159983,-0.24998 0,0 0,-0.02 0.02,-0.02 0.05999,-0.08 0.109988,-0.15999 0.169981,-0.23998 0.06999,-0.10998 0.149984,-0.20997 0.229976,-0.30996 0.07999,-0.1 0.159983,-0.19998 0.249973,-0.29997 0.08999,-0.1 0.169982,-0.18998 0.259972,-0.28997 0.459951,-0.45994 0.969896,-0.8699 1.529836,-1.19986 0.08999,-0.05 0.179981,-0.1 0.269971,-0.14998 0.08999,-0.05 0.18998,-0.09 0.27997,-0.13999 0.08999,-0.05 0.179981,-0.09 0.269971,-0.11998 0.169982,-0.08 0.349963,-0.13999 0.519944,-0.19998 0.07999,-0.03 0.159983,-0.06 0.249974,-0.08 0.09999,-0.03 0.199987,-0.06 0.299967,-0.09 0.1,-0.03 0.19998,-0.05 0.29997,-0.07 0.1,-0.02 0.19998,-0.05 0.29997,-0.06 0.1,-0.02 0.20998,-0.04 0.30997,-0.05 0.1,-0.01 0.20997,-0.02 0.30996,-0.03 0.40996,-0.03 0.82991,-0.03 1.23987,0 0.1,0 0.20998,0.02 0.30997,0.03 0.1,0 0.20997,0.02 0.30996,0.05 0.1,0.01 0.20998,0.03 0.30997,0.06 0.24997,0.05 0.50995,0.11999 0.75992,0.20998 0.07,0.02 0.13998,0.04 0.20998,0.07 0.34996,0.11999 0.67992,0.27997 1.00989,0.45995 0.10999,0.06 0.20998,0.11999 0.30997,0.17998 0.1,0.06 0.19997,0.11999 0.28996,0.17998 0.09,0.07 0.18998,0.12999 0.27997,0.19998 0.01,0 0.03,0.02 0.04,0.03 0.09,0.07 0.17998,0.13998 0.26997,0.20997 0.09,0.07 0.16998,0.13999 0.24997,0.21998 0.18998,0.16998 0.35997,0.34996 0.51995,0.52994 0.07,0.07 0.12998,0.13998 0.18998,0.21997 0.10999,0.12999 0.20998,0.24997 0.29997,0.38996 0.05,0.07 0.09,0.12998 0.13998,0.19998 0.15998,0.22997 0.29997,0.46994 0.41996,0.71992 0.05,0.09 0.1,0.18997 0.14998,0.28996 0,0.02 0.02,0.04 0.02,0.05 0.05,0.1 0.09,0.20997 0.13998,0.31996 0,0.02 0.01,0.03 0.02,0.05 0.04,0.09 0.07,0.17998 0.1,0.27996 0.02,0.05 0.04,0.10999 0.05,0.15999 0.08,0.23997 0.13999,0.47994 0.19998,0.71992 0.01,0.07 0.03,0.13998 0.04,0.21997 0.03,0.18998 0.06,0.37996 0.08,0.56994 0.02,0.24997 0.04,0.49994 0.04,0.75991 0,0.25997 -0.01,0.49994 -0.04,0.74992 z"
       id="path174"
       clip-path="none"
       style="stroke-width:0.99989" /><rect
       class="cls-4"
       x="82.68084"
       y="147.83195"
       width="38.745846"
       height="38.745644"
       rx="6.24933"
       ry="6.2492976"
       id="rect174"
       clip-path="none"
       style="stroke-width:0.99989" /><path
       class="cls-51"
       d="M 1164.4148,-22.067353 H 940.62884 c 0,0 0.45996,-39.86552 37.386,-39.86552 27.30706,0 37.51596,17.867992 37.51596,17.867992 0,0 7.4892,-44.66498 44.8252,-44.66498 37.336,0 57.3239,50.7143 57.3239,50.7143 0,0 19.4379,-20.717671 42.4954,-20.717671 23.0575,0 4.2495,36.665879 4.2495,36.665879 z"
       id="path5"
       clip-path="none"
       style="stroke-width:0.99989" /></g></svg>
