<?xml version="1.0" encoding="UTF-8" standalone="no"?>
<svg xmlns:dc="http://purl.org/dc/elements/1.1/" xmlns:cc="http://creativecommons.org/ns#" xmlns:rdf="http://www.w3.org/1999/02/22-rdf-syntax-ns#" xmlns:svg="http://www.w3.org/2000/svg" xmlns="http://www.w3.org/2000/svg" width="48" height="48" viewBox="0 0 48 48" version="1.1" id="svg6978">
  <metadata id="metadata6984">
    <rdf:RDF>
      <cc:Work rdf:about="">
        <dc:format>image/svg+xml</dc:format>
        <dc:type rdf:resource="http://purl.org/dc/dcmitype/StillImage" />
        <dc:title>W3C</dc:title>
      </cc:Work>
    </rdf:RDF>
  </metadata>
  <defs id="defs6982" />
  <!-- A blue circle with a white W3C logo -->
  <title id="desc920">W3C</title>
  <circle r="24" cx="24" cy="24" style="fill:#005a9c;stroke-width:0.55814" id="circle6968" />
  <g id="g9076" transform="translate(-0.03522852,0.21539809)">
    <path d="m 5.599395,15.631212 5.319768,17.955305 h 0.221294 L 14.465311,22.4597 17.791256,33.586517 h 0.221294 l 3.986555,-13.454215 c 0.761378,-2.569452 0.383614,-2.284884 2.655523,-2.284884 h 1.87391 l -3.704216,6.429507 h 1.486919 c 0.960897,0 1.972622,0.346735 2.505087,1.04106 0.0746,0.09634 0.141627,0.201197 0.203852,0.310683 0.01442,0.02522 0.02766,0.05148 0.04142,0.0774 0.05856,0.110844 0.11325,0.225596 0.160247,0.348837 0.186809,0.490155 0.28125,1.079031 0.28125,1.768169 0,0.975627 -0.214517,1.810203 -0.643168,2.505087 -0.116363,0.188483 -0.240129,0.348875 -0.37064,0.486192 -0.08348,0.08783 -0.170291,0.164027 -0.259448,0.231104 -0.0075,0.0056 -0.01535,0.01089 -0.02289,0.01635 -0.0909,0.06626 -0.183338,0.12309 -0.28016,0.167878 -0.08825,0.04082 -0.180399,0.06977 -0.273619,0.09266 -0.02381,0.0058 -0.04782,0.01063 -0.07195,0.01526 -0.09589,0.01857 -0.193252,0.03161 -0.294331,0.03161 -0.0045,0 -0.0086,-0.0011 -0.01308,-0.0011 -0.0045,-2.3e-5 -0.0086,-0.0011 -0.01308,-0.0011 -0.0023,-2.2e-5 -0.0044,-8.37e-4 -0.0065,-0.0011 -0.0052,-6.6e-5 -0.01004,-0.001 -0.01526,-0.0011 -0.13294,-0.0024 -0.263046,-0.0125 -0.388081,-0.03488 -7.25e-4,-1.26e-4 -0.0015,1.27e-4 -0.0022,0 -0.03421,-0.0062 -0.06558,-0.0196 -0.0992,-0.02725 -0.007,-0.0016 -0.01391,-0.0033 -0.02071,-0.0055 -0.0085,-0.0021 -0.01658,-0.0055 -0.02507,-0.0076 -0.0853,-0.01979 -0.170964,-0.03887 -0.251817,-0.06977 -0.127419,-0.04869 -0.249544,-0.109174 -0.367369,-0.182049 -0.117827,-0.07275 -0.230881,-0.157755 -0.339028,-0.254962 -0.231205,-0.251209 -0.40531,-0.536767 -0.589753,-0.815408 h -2.263081 c 0.153426,0.455992 0.344038,0.868463 0.563589,1.247093 l -0.0065,0.01199 c 0.02374,0.04289 0.05553,0.08304 0.08176,0.125364 0.156296,0.253884 0.324615,0.494658 0.512354,0.711845 0.167203,0.19343 0.346378,0.371966 0.538518,0.536338 0.09559,0.08183 0.193502,0.158355 0.293241,0.230014 0,0 0.0011,0.0011 0.0011,0.0011 0.09934,0.07132 0.20069,0.137176 0.304143,0.198401 0.06421,0.038 0.130427,0.07054 0.196221,0.104651 0.0088,0.0046 0.01734,0.0097 0.02616,0.01417 0.03182,0.01749 0.06335,0.03575 0.09593,0.05124 10e-4,4.85e-4 0.0022,6.14e-4 0.0033,0.0011 0.107105,0.05078 0.215805,0.09663 0.327035,0.137354 0.0015,5.58e-4 0.0028,0.0016 0.0044,0.0022 0,0 0.0011,0 0.0011,0 0.110395,0.04028 0.222455,0.07532 0.336847,0.105741 0.0022,6.14e-4 0.0043,0.0016 0.0065,0.0022 0,0 0.0011,0 0.0011,0 0.113844,0.03004 0.229955,0.05493 0.347747,0.07522 0.0028,4.92e-4 0.0059,6.14e-4 0.0087,0.0011 0.105189,0.01779 0.212152,0.03023 0.320493,0.04034 0.0026,2.41e-4 0.005,8.37e-4 0.0076,0.0011 0.004,7.81e-4 0.0079,0.0018 0.01199,0.0022 0.0061,0.0011 0.01226,0.0016 0.01853,0.0022 0,0 0.0011,0 0.0011,0 0.003,2.48e-4 0.0058,8.37e-4 0.0087,0.0011 0,0 0.0011,0 0.0011,0 0.06527,0.0054 0.132879,0.0051 0.199492,0.0076 0.01384,5.33e-4 0.02754,0.0018 0.04142,0.0022 0.0087,4.71e-4 0.01738,8.93e-4 0.02616,0.0011 0.03363,0.002 0.06713,0.0043 0.101381,0.0044 0.0044,1.2e-5 0.0087,0 0.01308,0 0.09948,0 0.194243,-0.0095 0.291061,-0.01526 v -0.0055 c 0.104152,-0.0075 0.211123,-0.0087 0.312863,-0.0218 0.01428,-0.002 0.02829,-0.0044 0.04251,-0.0065 0.191028,-0.02662 0.376075,-0.06687 0.55596,-0.117732 0.838599,-0.237107 1.558967,-0.73125 2.15516,-1.49564 0.864558,-1.108465 1.297238,-2.475156 1.297238,-4.101017 0,-1.314977 -0.296285,-2.459887 -0.887355,-3.434956 -0.44888,-0.740505 -1.05984,-1.305715 -1.832485,-1.697311 -0.02394,-0.01214 -0.0499,-0.02199 -0.07413,-0.03379 -0.09981,-0.04856 -0.200152,-0.09665 -0.305233,-0.139535 -0.130318,-0.05344 -0.264476,-0.102581 -0.403343,-0.147166 1.297543,-2.246803 2.617837,-4.480608 3.894986,-6.739099 h -7.000868 c -2.022864,0 -2.429475,0.344732 -3.131904,2.732922 l -2.410247,8.195379 -3.214753,-10.928416 h -2.326308 l 0.531977,1.785611 c 0.443165,1.487054 0.403811,2.217053 -0.01199,3.624636 L 11.140366,26.559752 7.926703,15.631336 Z" style="fill:#fcfeff;stroke-width:0.55814" id="path6970" />
    <path d="m 41.815814,15.631256 c -0.457117,0 -0.867349,0.164651 -1.178233,0.480558 -0.32986,0.334884 -0.513488,0.768 -0.513488,1.215628 0,0.447628 0.174697,0.862325 0.495069,1.187721 0.325396,0.32986 0.744559,0.509023 1.19721,0.509023 0.442604,0 0.871814,-0.179163 1.206139,-0.504 0.320372,-0.310884 0.49507,-0.725582 0.49507,-1.192186 0,-0.452651 -0.179163,-0.876279 -0.490046,-1.192186 -0.325954,-0.330419 -0.75014,-0.504558 -1.211721,-0.504558 z m 1.475162,1.710697 c 0,0.391256 -0.151255,0.754047 -0.428651,1.022512 -0.292465,0.282977 -0.655256,0.433674 -1.056,0.433674 -0.376744,0 -0.749023,-0.155162 -1.026977,-0.438139 -0.277953,-0.282977 -0.433674,-0.645768 -0.433674,-1.032 0,-0.386233 0.160186,-0.763535 0.447628,-1.055442 0.268465,-0.273488 0.631256,-0.419163 1.026977,-0.419163 0.405209,0 0.768,0.151256 1.050976,0.43814 0.273489,0.27293 0.419721,0.640186 0.419721,1.050418 z m -1.428279,-1.008558 h -0.725581 v 1.922791 h 0.362791 v -0.819907 h 0.358325 l 0.391256,0.819907 h 0.405209 l -0.429209,-0.876279 c 0.277953,-0.05693 0.43814,-0.245023 0.43814,-0.518512 0,-0.348837 -0.263442,-0.528 -0.800931,-0.528 z m -0.06586,0.235535 c 0.339349,0 0.494511,0.09433 0.494511,0.329861 0,0.226046 -0.155162,0.306418 -0.485581,0.306418 H 41.499348 V 16.56893 Z" style="fill:#fdfeff;stroke-width:0.55814" id="path6972" />
    <path d="m 38.962046,15.530232 0.377302,2.292279 -1.334511,2.553489 c 0,0 -0.512372,-1.083349 -1.363535,-1.682791 -0.717209,-0.505116 -1.184372,-0.61507 -1.914977,-0.464372 -0.938232,0.193674 -2.002046,1.315535 -2.466418,2.698605 -0.555349,1.654883 -0.560931,2.455814 -0.580465,3.191442 -0.03126,1.179348 0.154604,1.876465 0.154604,1.876465 0,0 -0.810418,-1.499163 -0.802604,-3.694884 0.005,-1.567256 0.251721,-2.988279 0.976744,-4.390884 0.637953,-1.23293 1.586232,-1.973023 2.427907,-2.060093 0.870139,-0.08986 1.557767,0.329303 2.089116,0.78307 0.55814,0.476651 1.12186,1.518698 1.12186,1.518698 z" style="fill:#ffffff;stroke-width:0.55814" id="path6974" />
    <path d="m 39.126697,28.500279 c 0,0 -0.589953,1.054325 -0.957209,1.460651 -0.367814,0.406326 -1.025302,1.12186 -1.837395,1.479628 -0.812093,0.357767 -1.237954,0.425302 -2.040558,0.348279 -0.802047,-0.07702 -1.547163,-0.541395 -1.808372,-0.73507 -0.26121,-0.193674 -0.928745,-0.764093 -1.306047,-1.296 -0.377302,-0.531907 -0.967256,-1.595721 -0.967256,-1.595721 0,0 0.328744,1.066047 0.534698,1.518698 0.118325,0.260651 0.482232,1.057116 0.998511,1.750325 0.481675,0.646884 1.417117,1.760373 2.838698,2.011535 1.421582,0.251721 2.398326,-0.38679 2.64,-0.541395 0.241675,-0.154605 0.751256,-0.581581 1.073861,-0.926512 0.336558,-0.36 0.655255,-0.819348 0.831627,-1.095069 0.128931,-0.200931 0.338791,-0.609489 0.338791,-0.609489 z" style="fill:#ffffff;stroke-width:0.55814" id="path6976" />
  </g>
</svg>
