<?xml version="1.0" encoding="UTF-8" standalone="no"?>
<svg
   id="Calque_10"
   viewBox="0 -405 480 2760"
   version="1.1"
   width="480"
   height="2760"
   xml:space="preserve"
   xmlns="http://www.w3.org/2000/svg"
   xmlns:svg="http://www.w3.org/2000/svg"><defs
     id="defs8963"><style
       id="style8958">.cls-1{stroke-dasharray:0 0 5.18 5.18;}.cls-1,.cls-2,.cls-3,.cls-4,.cls-5,.cls-6,.cls-7,.cls-8,.cls-9{stroke-miterlimit:10;}.cls-1,.cls-2,.cls-10,.cls-4,.cls-5,.cls-6,.cls-11,.cls-12,.cls-13,.cls-14,.cls-8,.cls-15,.cls-9{fill:none;}.cls-1,.cls-2,.cls-10,.cls-4,.cls-5,.cls-6,.cls-11,.cls-12,.cls-14{stroke:#b2e5f6;}.cls-16{fill:#f4f4f4;}.cls-17{fill:#fff;}.cls-18{fill:#596d94;}.cls-2{stroke-dasharray:0 0 4.8 4.8;}.cls-19{stroke-width:7px;}.cls-19,.cls-10,.cls-11,.cls-12,.cls-13,.cls-14{stroke-linejoin:round;}.cls-19,.cls-10,.cls-11,.cls-12,.cls-13,.cls-14,.cls-9{stroke-linecap:round;}.cls-19,.cls-7{stroke:#083b4c;}.cls-19,.cls-7,.cls-20,.cls-21{fill:#083b4c;}.cls-22,.cls-23{fill:#ee7864;}.cls-3{fill:#e5eef5;stroke:#dbede6;}.cls-10{stroke-dasharray:0 0 4.92 4.92;}.cls-10,.cls-11,.cls-12,.cls-14{stroke-width:2px;}.cls-24,.cls-25,.cls-26,.cls-27,.cls-28,.cls-29,.cls-30,.cls-23,.cls-31,.cls-32,.cls-33,.cls-34,.cls-35,.cls-36,.cls-37,.cls-38,.cls-39,.cls-40,.cls-41,.cls-42,.cls-43,.cls-44,.cls-45,.cls-46,.cls-47{fill-rule:evenodd;}.cls-24,.cls-48{fill:#e53417;}.cls-49,.cls-50,.cls-34{fill:#0f7599;}.cls-25,.cls-51{fill:#b2e5f6;}.cls-52,.cls-44{fill:#17b0e5;}.cls-26{fill:#191844;}.cls-5{stroke-dasharray:0 0 4.92 4.92;}.cls-27{fill:#e7d5c3;}.cls-6{stroke-dasharray:0 0 5.31 5.31;}.cls-28{fill:#dde2e7;}.cls-53{fill:#cdf2fc;}.cls-29{fill:#e3e3e2;}.cls-54{opacity:.35;}.cls-55,.cls-50,.cls-21{isolation:isolate;}.cls-55,.cls-33{fill:#fdfcfb;}.cls-30{fill:#dce1e6;}.cls-11{stroke-dasharray:0 2.17;}.cls-56{fill:#e53946;}.cls-57{fill:#f5feff;opacity:.71;}.cls-31{fill:#222043;}.cls-58{fill:#dbede6;}.cls-13{stroke:#fbfbfb;stroke-width:5px;}.cls-50{opacity:.3;}.cls-32{fill:#ef9e42;}.cls-59{fill:#2128c5;}.cls-60{fill:#527a98;}.cls-35{fill:#3a2418;}.cls-14{stroke-dasharray:0 2.17;}.cls-61{opacity:.1;}.cls-8{stroke:#17b0e5;}.cls-36{fill:#e2e2e2;}.cls-37{fill:#aa8b6c;}.cls-38{fill:#c46200;}.cls-63,.cls-43{fill:#64caee;}.cls-39{fill:#99230f;}.cls-40{fill:#b38c76;}.cls-41{fill:#aa8c6c;}.cls-42{fill:#523523;}.cls-9{stroke:#3e8a8b;}.cls-64{fill:#e1f9ff;}.cls-45{fill:#cca285;}.cls-65{fill:#f1f8ed;}.cls-66{fill:#283237;}.cls-46{fill:#92775d;}.cls-67{fill:#1d1d1b;}</style><linearGradient
       id="white-gray"
       x1="0"
       y1="0"
       x2="0"
       y2="86"
       gradientUnits="userSpaceOnUse"
       gradientTransform="scale(0.55813953)"><stop
         offset="0%"
         stop-color="#fff"
         id="stop7110" /><stop
         offset="100%"
         stop-color="#f6f6f6"
         id="stop7112" /></linearGradient><clipPath
       id="clipPath1"><path
         d="M 10,27 H 78 V 61 H 10 Z"
         id="path7828" /></clipPath></defs><g
     id="layer1"
     transform="rotate(-90,960.125,960.125)"
     style="display:none"><path
       id="rect8965"
       clip-path="none"
       style="fill:#64caee;stroke-width:1.19896"
       class="cls-63"
       d="m -434.75,0 h 2760 v 481.95999 h -2760 z" /><g
       id="g11815"
       clip-path="none"><path
         id="rect11813"
         class="cls-15"
         style="fill:none"
         d="M 0,0 H 1920.25 V 481.95999 H 0 Z" /></g><path
       id="polygon8967"
       clip-path="none"
       class="cls-57"
       style="opacity:0.71;fill:#f5feff"
       d="M 343.47,129.12 V 209 l -28.37,15.57 v 78.46 H 267.91 V 109.41 L 203.84,95.34 V 43.09 H 31.78 V 264.13 H 16.37 v 471.18 h 138.28 113.26 320.51 v -0.56 l 1276.19,-0.82 V 136.66 l -52.17,-28.64 V 27.65 h -140.95 v -86.41 h -181.22 v 219.03 h -42.1 v 51.24 h -32.95 v 122.58 h -38.44 v -168.8 h -95.18 v -49.23 h -54 v 78.87 l -50.34,27.63 V 381.31 H 1058.28 V 32.67 H 930.14 V 97.98 H 829.47 l -27.46,15.07 v 36.17 h -126.3 l -23.8,13.06 V 284.85 H 598.82 V 95.97 h -98.84 v 33.15 z" /><g
       id="g11809"><path
         id="rect11807"
         class="cls-15"
         style="fill:none"
         d="M 0,0 H 1920.25 V 481.95999 H 0 Z" /></g><path
       id="polygon8969"
       clip-path="none"
       class="cls-64"
       style="fill:#e1f9ff"
       d="M 968.61,356.26 V 226.44 h -75.67 v 215.02 h -35.06 v 40.57 L 813.59,404.95 H 736.08 V 127.05 H 586.61 l -12.92,14.2 v 85.19 95.34 H 531.24 V 68.22 H 403.91 v 42.6 L 379,138.21 V 570.27 H 350.39 V 223.4 h -16.61 v -33.47 h -146.7 l -24.92,27.38 v 38.55 H 23.76 l -7.39,491.89 h 461.36 v -1.02 h 468.73 v 1.02 h 186.65 269.17 476.11 V 166.41 h -110.67 l -25.93,28.51 v 87.44 h -27.67 V 42.87 H 1590.48 V 600.72 L 1553.3,559.86 V 238.64 h -274.94 v 81.73 h -145.25 v 256.6 112.97 h -127.6 V 356.26 Z" /><g
       id="g11803"><path
         id="rect11801"
         class="cls-15"
         style="fill:none"
         d="M 0,0 H 1920.25 V 481.95999 H 0 Z" /></g><path
       id="polygon8971"
       clip-path="none"
       class="cls-53"
       style="fill:#cdf2fc"
       d="m 1583.13,319.16 h -143.52 v 238.71 h -37.27 V 224.31 l -104.38,45.85 V 469.34 H 1270 V 162.66 h -35.42 V 72.55 h -35.41 V 52 h -14.91 v 17.39 h -87.6 v 69.56 h -82.02 l -20.5,23.71 v 284.55 h -69.9 v -57.7 l -43.8,-37.15 V 216.41 H 727.6 v 112.24 h -55.91 v 94.85 l -67.11,63.23 H 561.72 V 186.37 L 442.42,116.82 V 395.04 H 414.47 V 203.76 H 272.81 v 66.4 H 207.57 V 587.9 H 179.61 V 450.37 H 84.56 V 407.69 L 67.78,387.14 H -434.75 V 480 h 2760 V 202.18 H 1877.63 V 548.79 H 1832.9 V 410.85 L 1769.52,357.1 V 148.43 h -80.14 l -46.6,-39.52 h -59.65 z" /><g
       id="g11797"><path
         id="rect11795"
         class="cls-15"
         style="fill:none"
         d="M 0,0 H 1920.25 V 481.95999 H 0 Z" /></g><path
       class="cls-51"
       d="m 139.27,85.85 h 223.81 c 0,0 -0.46,-39.87 -37.39,-39.87 -27.31,0 -37.52,17.87 -37.52,17.87 0,0 -7.49,-44.67 -44.83,-44.67 -37.34,0 -57.33,50.72 -57.33,50.72 0,0 -19.44,-20.72 -42.5,-20.72 -23.06,0 -4.25,36.67 -4.25,36.67 z"
       id="path8973"
       clip-path="none" /><g
       id="g11791"><path
         id="rect11789"
         class="cls-15"
         style="fill:none"
         d="M 0,0 H 1920.25 V 481.95999 H 0 Z" /></g><path
       class="cls-51"
       d="M 1164.54,151.94 H 940.73 c 0,0 0.46,-39.87 37.39,-39.87 27.31,0 37.52,17.87 37.52,17.87 0,0 7.49,-44.67 44.83,-44.67 37.34,0 57.33,50.72 57.33,50.72 0,0 19.44,-20.72 42.5,-20.72 23.06,0 4.25,36.67 4.25,36.67 z"
       id="path8975"
       clip-path="none" /><g
       id="g11785"><path
         id="rect11783"
         class="cls-15"
         style="fill:none"
         d="M 0,0 H 1920.25 V 481.95999 H 0 Z" /></g><path
       class="cls-51"
       d="M 1807.11,110.9 H 1583.3 c 0,0 0.46,-39.87 37.39,-39.87 27.31,0 37.52,17.87 37.52,17.87 0,0 7.49,-44.67 44.83,-44.67 37.33,0 57.33,50.72 57.33,50.72 0,0 19.44,-20.72 42.5,-20.72 23.06,0 4.25,36.67 4.25,36.67 z"
       id="path8977"
       clip-path="none" /><g
       id="g11779"><path
         id="rect11777"
         class="cls-15"
         style="fill:none"
         d="M 0,0 H 1920.25 V 481.95999 H 0 Z" /></g><path
       id="circle8979"
       clip-path="none"
       class="cls-8"
       style="fill:none;stroke:#17b0e5;stroke-miterlimit:10"
       d="m 1158.99,102.47 a 47.369999,47.369999 0 0 1 -47.37,47.37 47.369999,47.369999 0 0 1 -47.37,-47.37 47.369999,47.369999 0 0 1 47.37,-47.369998 47.369999,47.369999 0 0 1 47.37,47.369998 z" /><g
       id="g11773"><path
         id="rect11771"
         class="cls-15"
         style="fill:none"
         d="M 0,0 H 1920.25 V 481.95999 H 0 Z" /></g><path
       id="circle8981"
       clip-path="none"
       class="cls-52"
       style="fill:#17b0e5"
       d="m 1171.9399,86.339996 a 47.369999,47.369999 0 0 1 -47.37,47.370004 47.369999,47.369999 0 0 1 -47.37,-47.370004 47.369999,47.369999 0 0 1 47.37,-47.369999 47.369999,47.369999 0 0 1 47.37,47.369999 z" /><g
       id="g11767"><path
         id="rect11765"
         class="cls-15"
         style="fill:none"
         d="M 0,0 H 1920.25 V 481.95999 H 0 Z" /></g><path
       id="polyline8983"
       clip-path="none"
       class="cls-13"
       style="fill:none;stroke:#fbfbfb;stroke-width:5px;stroke-linecap:round;stroke-linejoin:round"
       d="m 1103.15,61.35 21.42,24.99 8.23,-19.04" /><g
       id="g11761"><path
         id="rect11759"
         class="cls-15"
         style="fill:none"
         d="M 0,0 H 1920.25 V 481.95999 H 0 Z" /></g><path
       id="rect8985"
       clip-path="none"
       class="cls-63"
       style="fill:#64caee"
       d="M 976.38002,168.47 H 1114.95 c 1.5124,0 2.73,1.21758 2.73,2.73 v 218.15 c 0,1.51242 -1.2176,2.73 -2.73,2.73 H 976.38002 c -1.51242,0 -2.73,-1.21758 -2.73,-2.73 V 171.2 c 0,-1.51242 1.21758,-2.73 2.73,-2.73 z" /><g
       id="g11755"><path
         id="rect11753"
         class="cls-15"
         style="fill:none"
         d="M 0,0 H 1920.25 V 481.95999 H 0 Z" /></g><path
       id="rect8987"
       clip-path="none"
       class="cls-51"
       style="fill:#b2e5f6"
       d="M 985.62001,179.84 H 1105.71 c 1.5124,0 2.73,1.21758 2.73,2.73 v 174.25 c 0,1.51242 -1.2176,2.73 -2.73,2.73 H 985.62001 c -1.51242,0 -2.73,-1.21758 -2.73,-2.73 V 182.57 c 0,-1.51242 1.21758,-2.73 2.73,-2.73 z" /><g
       id="g11749"><path
         id="rect11747"
         class="cls-15"
         style="fill:none"
         d="M 0,0 H 1920.25 V 481.95999 H 0 Z" /></g><path
       class="cls-16"
       d="M 1059.54,193.08 V 257 c 0,1.08 -0.87,1.95 -1.95,1.95 h -63.23 c -1.06,0 -1.93,-0.87 -1.93,-1.95 v -63.92 c 0,-1.06 0.87,-1.93 1.93,-1.93 h 63.23 c 1.08,0 1.95,0.87 1.95,1.93 z"
       id="path8993"
       clip-path="none" /><g
       id="g11731"><path
         id="rect11729"
         class="cls-15"
         style="fill:none"
         d="M 0,0 H 1920.25 V 481.95999 H 0 Z" /></g><path
       class="cls-51"
       d="M 1059.54,245.02 V 257 c 0,1.08 -0.87,1.95 -1.95,1.95 h -31.36 l 1.33,-13.93 14.76,-16.32 z"
       id="path8995"
       clip-path="none" /><g
       id="g11725"><path
         id="rect11723"
         class="cls-15"
         style="fill:none"
         d="M 0,0 H 1920.25 V 481.95999 H 0 Z" /></g><path
       class="cls-63"
       d="m 1050.75,258.95 h -56.4 c -1.06,0 -1.93,-0.87 -1.93,-1.95 v -11.98 l 22.07,-23.16 36.26,37.1 z"
       id="path8997"
       clip-path="none" /><g
       id="g11719"><path
         id="rect11717"
         class="cls-15"
         style="fill:none"
         d="M 0,0 H 1920.25 V 481.95999 H 0 Z" /></g><path
       id="circle8999"
       clip-path="none"
       class="cls-63"
       style="fill:#64caee"
       d="m 1050.66,209.49001 a 7.7800002,7.7800002 0 0 1 -7.78,7.78 7.7800002,7.7800002 0 0 1 -7.78,-7.78 7.7800002,7.7800002 0 0 1 7.78,-7.78 7.7800002,7.7800002 0 0 1 7.78,7.78 z" /><g
       id="g11713"><path
         id="rect11711"
         class="cls-15"
         style="fill:none"
         d="M 0,0 H 1920.25 V 481.95999 H 0 Z" /></g><path
       class="cls-16"
       d="m 1098.32,268.66 v 63.92 c 0,1.08 -1.37,1.95 -3.07,1.95 h -99.21 c -1.66,0 -3.03,-0.87 -3.03,-1.95 v -63.92 c 0,-1.06 1.37,-1.93 3.03,-1.93 h 99.21 c 1.7,0 3.07,0.87 3.07,1.93 z"
       id="path9001"
       clip-path="none" /><g
       id="g11707"><path
         id="rect11705"
         class="cls-15"
         style="fill:none"
         d="M 0,0 H 1920.25 V 481.95999 H 0 Z" /></g><path
       id="circle9003"
       clip-path="none"
       class="cls-51"
       style="fill:#b2e5f6"
       d="m 1064.23,300.64001 a 18.559999,18.559999 0 0 1 -18.56,18.56 18.559999,18.559999 0 0 1 -18.56,-18.56 18.559999,18.559999 0 0 1 18.56,-18.55999 18.559999,18.559999 0 0 1 18.56,18.55999 z" /><g
       id="g11701"><path
         id="rect11699"
         class="cls-15"
         style="fill:none"
         d="M 0,0 H 1920.25 V 481.95999 H 0 Z" /></g><path
       id="polygon9005"
       clip-path="none"
       class="cls-63"
       style="fill:#64caee"
       d="m 1040.6,311.43 v -21.59 l 14.92,10.8 z" /><g
       id="g11695"><path
         id="rect11693"
         class="cls-15"
         style="fill:none"
         d="M 0,0 H 1920.25 V 481.95999 H 0 Z" /></g><path
       id="rect9007"
       clip-path="none"
       class="cls-16"
       style="fill:#f4f4f4"
       d="m 1064.23,191.14999 h 34.09 v 5.04 h -34.09 z" /><g
       id="g11689"><path
         id="rect11687"
         class="cls-15"
         style="fill:none"
         d="M 0,0 H 1920.25 V 481.95999 H 0 Z" /></g><path
       id="rect9009"
       clip-path="none"
       class="cls-16"
       style="fill:#f4f4f4"
       d="M 993.01001,339.47 H 1098.31 v 5.04 H 993.01001 Z" /><g
       id="g11683"><path
         id="rect11681"
         class="cls-15"
         style="fill:none"
         d="M 0,0 H 1920.25 V 481.95999 H 0 Z" /></g><path
       id="rect9011"
       clip-path="none"
       class="cls-16"
       style="fill:#f4f4f4"
       d="M 993.01001,348.88 H 1081.98 v 5.04 h -88.96999 z" /><g
       id="g11677"><path
         id="rect11675"
         class="cls-15"
         style="fill:none"
         d="M 0,0 H 1920.25 V 481.95999 H 0 Z" /></g><path
       id="rect9013"
       clip-path="none"
       class="cls-16"
       style="fill:#f4f4f4"
       d="m 1064.23,200.11 h 34.09 v 5.04 h -34.09 z" /><g
       id="g11671"><path
         id="rect11669"
         class="cls-15"
         style="fill:none"
         d="M 0,0 H 1920.25 V 481.95999 H 0 Z" /></g><path
       id="rect9015"
       clip-path="none"
       class="cls-16"
       style="fill:#f4f4f4"
       d="m 1064.23,209.08 h 34.09 v 5.04 h -34.09 z" /><g
       id="g11665"><path
         id="rect11663"
         class="cls-15"
         style="fill:none"
         d="M 0,0 H 1920.25 V 481.95999 H 0 Z" /></g><path
       id="rect9017"
       clip-path="none"
       class="cls-16"
       style="fill:#f4f4f4"
       d="m 1064.23,218.03999 h 34.09 v 5.04 h -34.09 z" /><g
       id="g11659"><path
         id="rect11657"
         class="cls-15"
         style="fill:none"
         d="M 0,0 H 1920.25 V 481.95999 H 0 Z" /></g><path
       id="rect9019"
       clip-path="none"
       class="cls-16"
       style="fill:#f4f4f4"
       d="m 1064.23,227.00999 h 34.09 v 5.04 h -34.09 z" /><g
       id="g11653"><path
         id="rect11651"
         class="cls-15"
         style="fill:none"
         d="M 0,0 H 1920.25 V 481.95999 H 0 Z" /></g><path
       id="rect9021"
       clip-path="none"
       class="cls-16"
       style="fill:#f4f4f4"
       d="m 1064.23,235.98 h 34.09 v 5.04 h -34.09 z" /><g
       id="g11647"><path
         id="rect11645"
         class="cls-15"
         style="fill:none"
         d="M 0,0 H 1920.25 V 481.95999 H 0 Z" /></g><path
       id="rect9023"
       clip-path="none"
       class="cls-16"
       style="fill:#f4f4f4"
       d="m 1064.23,244.94 h 34.09 v 5.04 h -34.09 z" /><g
       id="g11641"><path
         id="rect11639"
         class="cls-15"
         style="fill:none"
         d="M 0,0 H 1920.25 V 481.95999 H 0 Z" /></g><path
       id="rect9025"
       clip-path="none"
       class="cls-16"
       style="fill:#f4f4f4"
       d="m 1064.23,253.91 h 23.27 v 5.04 h -23.27 z" /><g
       id="g11635"><path
         id="rect11633"
         class="cls-15"
         style="fill:none"
         d="M 0,0 H 1920.25 V 481.95999 H 0 Z" /></g><path
       class="cls-17"
       d="m 1055.52,375.93 c 0,4.97 -4.03,9.01 -9.01,9.01 -4.98,0 -9.01,-4.03 -9.01,-9.01 0,-4.98 4.03,-9.01 9.01,-9.01 4.98,0 9.01,4.03 9.01,9.01 z"
       id="path9027"
       clip-path="none" /><g
       id="g11629"><path
         id="rect11627"
         class="cls-15"
         style="fill:none"
         d="M 0,0 H 1920.25 V 481.95999 H 0 Z" /></g><path
       id="rect9087"
       clip-path="none"
       class="cls-63"
       transform="rotate(-78.38)"
       style="fill:#64caee"
       d="M -163.74562,401.55765 H -2.6756282 c 3.10794009,0 5.6100001,2.50206 5.6100001,5.61 v 29.31 c 0,3.10794 -2.50206001,5.61 -5.6100001,5.61 H -163.74562 c -3.10794,0 -5.61,-2.50206 -5.61,-5.61 v -29.31 c 0,-3.10794 2.50206,-5.61 5.61,-5.61 z" /><g
       id="g11569"><path
         id="rect11567"
         class="cls-15"
         style="fill:none"
         d="M 0,0 H 1920.25 V 481.95999 H 0 Z" /></g><path
       id="circle9089"
       clip-path="none"
       class="cls-51"
       transform="rotate(-19.59)"
       style="fill:#b2e5f6"
       d="m 363.38981,233.62621 a 11.21,11.21 0 0 1 -11.21,11.21 11.21,11.21 0 0 1 -11.21,-11.21 11.21,11.21 0 0 1 11.21,-11.21 11.21,11.21 0 0 1 11.21,11.21 z" /><g
       id="g11563"><path
         id="rect11561"
         class="cls-15"
         style="fill:none"
         d="M 0,0 H 1920.25 V 481.95999 H 0 Z" /></g><path
       class="cls-52"
       d="m 363.48,227.66 h 81.22 c 13.53,0 24.52,10.99 24.52,24.52 v 1.31 H 338.96 v -1.31 c 0,-13.53 10.99,-24.52 24.52,-24.52 z"
       id="path9091"
       clip-path="none" /><g
       id="g11557"><path
         id="rect11555"
         class="cls-15"
         style="fill:none"
         d="M 0,0 H 1920.25 V 481.95999 H 0 Z" /></g><path
       id="rect9116"
       clip-path="none"
       class="cls-63"
       style="fill:#64caee"
       d="m 1325.52,323.89001 h 62.18 v 58.76 h -62.18 z" /><g
       id="g11455"><path
         id="rect11453"
         class="cls-15"
         style="fill:none"
         d="M 0,0 H 1920.25 V 481.95999 H 0 Z" /></g><path
       class="cls-63"
       d="m 1264.26,378.78 h 184.68 c 4.04,0 7.32,3.28 7.32,7.32 v 7.32 h -199.33 v -7.32 c 0,-4.04 3.28,-7.32 7.32,-7.32 z"
       id="path9118"
       clip-path="none" /><g
       id="g11449"><path
         id="rect11447"
         class="cls-15"
         style="fill:none"
         d="M 0,0 H 1920.25 V 481.95999 H 0 Z" /></g><path
       class="cls-63"
       d="m 1193.83,107.46 h 325.54 c 4.1,0 7.42,3.33 7.42,7.42 v 223.96 c 0,4.1 -3.33,7.42 -7.42,7.42 h -325.54 c -4.1,0 -7.42,-3.33 -7.42,-7.42 V 114.88 c 0,-4.1 3.33,-7.42 7.42,-7.42 z"
       id="path9120"
       clip-path="none" /><g
       id="g11443"><path
         id="rect11441"
         class="cls-15"
         style="fill:none"
         d="M 0,0 H 1920.25 V 481.95999 H 0 Z" /></g><path
       class="cls-51"
       d="m 1516.25,119.02 v 195.33 c 0,1.45 -1.17,2.63 -2.63,2.63 h -315.08 c -1.45,0 -2.63,-1.17 -2.63,-2.63 V 119.02 c 0,-1.45 1.17,-2.64 2.63,-2.64 h 315.08 c 1.45,0 2.63,1.18 2.63,2.64 z"
       id="path9122"
       clip-path="none" /><g
       id="g11437"><path
         id="rect11435"
         class="cls-15"
         style="fill:none"
         d="M 0,0 H 1920.25 V 481.95999 H 0 Z" /></g><path
       class="cls-51"
       d="m 1504.8,332.08 c 0,3.52 -2.85,6.37 -6.37,6.37 -3.52,0 -6.37,-2.85 -6.37,-6.37 0,-3.52 2.85,-6.37 6.37,-6.37 3.52,0 6.37,2.85 6.37,6.37 z"
       id="path9124"
       clip-path="none" /><g
       id="g11431"><path
         id="rect11429"
         class="cls-15"
         style="fill:none"
         d="M 0,0 H 1920.25 V 481.95999 H 0 Z" /></g><g
       class="cls-54"
       id="g9128"
       clip-path="none"><path
         id="rect9126"
         class="cls-58"
         style="fill:#dbede6"
         d="m 1295.38,121.8 h 203.68 c 5.6674,0 10.23,4.56258 10.23,10.23 v 130.20001 c 0,5.66742 -4.5626,10.23 -10.23,10.23 h -203.68 c -5.6674,0 -10.23,-4.56258 -10.23,-10.23 V 132.03 c 0,-5.66742 4.5626,-10.23 10.23,-10.23 z" /></g><g
       id="g11425"><path
         id="rect11423"
         class="cls-15"
         style="fill:none"
         d="M 0,0 H 1920.25 V 481.95999 H 0 Z" /></g><g
       class="cls-61"
       id="g9132"
       clip-path="none"><path
         d="m 1471.83,116.38 v 175.94 c 0,8.76 -7.11,15.87 -15.87,15.87 h -228.43 c -8.76,0 -15.87,-7.1 -15.87,-15.87 V 116.38 h 260.16 z"
         id="path9130" /></g><g
       id="g11419"><path
         id="rect11417"
         class="cls-15"
         style="fill:none"
         d="M 0,0 H 1920.25 V 481.95999 H 0 Z" /></g><path
       id="rect9134"
       clip-path="none"
       class="cls-16"
       style="fill:#f4f4f4"
       d="m 1228.51,83.57 h 244.59 c 6.1716,0 11.14,4.96844 11.14,11.14 v 192.53 c 0,6.17156 -4.9684,11.14 -11.14,11.14 h -244.59 c -6.1716,0 -11.14,-4.96844 -11.14,-11.14 V 94.71 c 0,-6.17156 4.9684,-11.14 11.14,-11.14 z" /><g
       id="g11413"><path
         id="rect11411"
         class="cls-15"
         style="fill:none"
         d="M 0,0 H 1920.25 V 481.95999 H 0 Z" /></g><path
       class="cls-52"
       d="m 1473.09,83.57 h -244.58 c -6.16,0 -11.15,4.99 -11.15,11.14 v 9.75 h 266.87 v -9.75 c 0,-6.16 -4.99,-11.14 -11.14,-11.14 z"
       id="path9136"
       clip-path="none" /><g
       id="g11407"><path
         id="rect11405"
         class="cls-15"
         style="fill:none"
         d="M 0,0 H 1920.25 V 481.95999 H 0 Z" /></g><path
       class="cls-16"
       d="m 1451.52,94.41 c 0,1.77 -1.44,3.21 -3.21,3.21 -1.77,0 -3.21,-1.44 -3.21,-3.21 0,-1.77 1.44,-3.21 3.21,-3.21 1.77,0 3.21,1.44 3.21,3.21 z"
       id="path9138"
       clip-path="none" /><g
       id="g11401"><path
         id="rect11399"
         class="cls-15"
         style="fill:none"
         d="M 0,0 H 1920.25 V 481.95999 H 0 Z" /></g><path
       class="cls-16"
       d="m 1464.62,94.41 c 0,1.77 -1.44,3.21 -3.21,3.21 -1.77,0 -3.21,-1.44 -3.21,-3.21 0,-1.77 1.44,-3.21 3.21,-3.21 1.77,0 3.21,1.44 3.21,3.21 z"
       id="path9140"
       clip-path="none" /><g
       id="g11395"><path
         id="rect11393"
         class="cls-15"
         style="fill:none"
         d="M 0,0 H 1920.25 V 481.95999 H 0 Z" /></g><path
       class="cls-16"
       d="m 1477.72,94.41 c 0,1.77 -1.44,3.21 -3.21,3.21 -1.77,0 -3.21,-1.44 -3.21,-3.21 0,-1.77 1.44,-3.21 3.21,-3.21 1.77,0 3.21,1.44 3.21,3.21 z"
       id="path9142"
       clip-path="none" /><g
       id="g11389"><path
         id="rect11387"
         class="cls-15"
         style="fill:none"
         d="M 0,0 H 1920.25 V 481.95999 H 0 Z" /></g><path
       id="rect9144"
       clip-path="none"
       class="cls-51"
       style="fill:#b2e5f6"
       d="m 1390.6801,117.6 h 82.26 v 4.49 h -82.26 z" /><g
       id="g11383"><path
         id="rect11381"
         class="cls-15"
         style="fill:none"
         d="M 0,0 H 1920.25 V 481.95999 H 0 Z" /></g><path
       id="polyline9146"
       clip-path="none"
       class="cls-4"
       style="fill:none;stroke:#b2e5f6;stroke-miterlimit:10"
       d="m 1472.94,284.6 v 2.5 h -2.5" /><g
       id="g11377"><path
         id="rect11375"
         class="cls-15"
         style="fill:none"
         d="M 0,0 H 1920.25 V 481.95999 H 0 Z" /></g><path
       id="line9148"
       clip-path="none"
       class="cls-5"
       style="fill:none;stroke:#b2e5f6;stroke-miterlimit:10;stroke-dasharray:0, 0, 4.92, 4.92"
       d="M 1465.52,287.10001 H 1231.76" /><g
       id="g11371"><path
         id="rect11369"
         class="cls-15"
         style="fill:none"
         d="M 0,0 H 1920.25 V 481.95999 H 0 Z" /></g><path
       id="polyline9150"
       clip-path="none"
       class="cls-4"
       style="fill:none;stroke:#b2e5f6;stroke-miterlimit:10"
       d="m 1229.3,287.1 h -2.5 v -2.5" /><g
       id="g11365"><path
         id="rect11363"
         class="cls-15"
         style="fill:none"
         d="M 0,0 H 1920.25 V 481.95999 H 0 Z" /></g><path
       id="line9152"
       clip-path="none"
       class="cls-1"
       style="fill:none;stroke:#b2e5f6;stroke-miterlimit:10;stroke-dasharray:0, 0, 5.18, 5.18"
       d="M 1226.8,279.42001 V 209.56" /><g
       id="g11359"><path
         id="rect11357"
         class="cls-15"
         style="fill:none"
         d="M 0,0 H 1920.25 V 481.95999 H 0 Z" /></g><path
       id="polyline9154"
       clip-path="none"
       class="cls-4"
       style="fill:none;stroke:#b2e5f6;stroke-miterlimit:10"
       d="m 1226.8,206.97 v -2.5 h 2.5" /><g
       id="g11353"><path
         id="rect11351"
         class="cls-15"
         style="fill:none"
         d="M 0,0 H 1920.25 V 481.95999 H 0 Z" /></g><path
       id="line9156"
       clip-path="none"
       class="cls-5"
       style="fill:none;stroke:#b2e5f6;stroke-miterlimit:10;stroke-dasharray:0, 0, 4.92, 4.92"
       d="m 1234.22,204.47 h 233.76" /><g
       id="g11347"><path
         id="rect11345"
         class="cls-15"
         style="fill:none"
         d="M 0,0 H 1920.25 V 481.95999 H 0 Z" /></g><path
       id="polyline9158"
       clip-path="none"
       class="cls-4"
       style="fill:none;stroke:#b2e5f6;stroke-miterlimit:10"
       d="m 1470.44,204.47 h 2.5 v 2.5" /><g
       id="g11341"><path
         id="rect11339"
         class="cls-15"
         style="fill:none"
         d="M 0,0 H 1920.25 V 481.95999 H 0 Z" /></g><path
       id="line9160"
       clip-path="none"
       class="cls-1"
       style="fill:none;stroke:#b2e5f6;stroke-miterlimit:10;stroke-dasharray:0, 0, 5.18, 5.18"
       d="m 1472.9399,212.14999 v 69.86002" /><g
       id="g11335"><path
         id="rect11333"
         class="cls-15"
         style="fill:none"
         d="M 0,0 H 1920.25 V 481.95999 H 0 Z" /></g><path
       id="rect9162"
       clip-path="none"
       class="cls-51"
       style="fill:#b2e5f6"
       d="m 1390.6801,127.54 h 82.26 v 4.49 h -82.26 z" /><g
       id="g11329"><path
         id="rect11327"
         class="cls-15"
         style="fill:none"
         d="M 0,0 H 1920.25 V 481.95999 H 0 Z" /></g><path
       id="rect9164"
       clip-path="none"
       class="cls-51"
       style="fill:#b2e5f6"
       d="m 1331.1899,137.48 h 141.75 v 4.49 h -141.75 z" /><g
       id="g11323"><path
         id="rect11321"
         class="cls-15"
         style="fill:none"
         d="M 0,0 H 1920.25 V 481.95999 H 0 Z" /></g><path
       id="rect9166"
       clip-path="none"
       class="cls-51"
       style="fill:#b2e5f6"
       d="m 1331.1899,147.42 h 141.75 v 4.49 h -141.75 z" /><g
       id="g11317"><path
         id="rect11315"
         class="cls-15"
         style="fill:none"
         d="M 0,0 H 1920.25 V 481.95999 H 0 Z" /></g><path
       id="rect9168"
       clip-path="none"
       class="cls-51"
       style="fill:#b2e5f6"
       d="m 1331.1899,157.37 h 141.75 v 4.48999 h -141.75 z" /><g
       id="g11311"><path
         id="rect11309"
         class="cls-15"
         style="fill:none"
         d="M 0,0 H 1920.25 V 481.95999 H 0 Z" /></g><path
       id="rect9170"
       clip-path="none"
       class="cls-51"
       style="fill:#b2e5f6"
       d="m 1331.1899,167.31 h 141.75 v 4.49 h -141.75 z" /><g
       id="g11305"><path
         id="rect11303"
         class="cls-15"
         style="fill:none"
         d="M 0,0 H 1920.25 V 481.95999 H 0 Z" /></g><path
       id="rect9172"
       clip-path="none"
       class="cls-51"
       style="fill:#b2e5f6"
       d="m 1331.1899,177.25 h 141.75 v 4.49 h -141.75 z" /><g
       id="g11299"><path
         id="rect11297"
         class="cls-15"
         style="fill:none"
         d="M 0,0 H 1920.25 V 481.95999 H 0 Z" /></g><path
       id="rect9174"
       clip-path="none"
       class="cls-51"
       style="fill:#b2e5f6"
       d="m 1331.1899,187.19 h 94.29 v 4.49 h -94.29 z" /><g
       id="g11293"><path
         id="rect11291"
         class="cls-15"
         style="fill:none"
         d="M 0,0 H 1920.25 V 481.95999 H 0 Z" /></g><path
       id="polyline9176"
       clip-path="none"
       class="cls-4"
       style="fill:none;stroke:#b2e5f6;stroke-miterlimit:10"
       d="m 1323.72,189.18 v 2.5 h -2.5" /><g
       id="g11287"><path
         id="rect11285"
         class="cls-15"
         style="fill:none"
         d="M 0,0 H 1920.25 V 481.95999 H 0 Z" /></g><path
       id="line9178"
       clip-path="none"
       class="cls-2"
       style="fill:none;stroke:#b2e5f6;stroke-miterlimit:10;stroke-dasharray:0, 0, 4.8, 4.8"
       d="m 1316.42,191.67999 h -84.08" /><g
       id="g11281"><path
         id="rect11279"
         class="cls-15"
         style="fill:none"
         d="M 0,0 H 1920.25 V 481.95999 H 0 Z" /></g><path
       id="polyline9180"
       clip-path="none"
       class="cls-4"
       style="fill:none;stroke:#b2e5f6;stroke-miterlimit:10"
       d="m 1229.94,191.68 h -2.5 v -2.5" /><g
       id="g11275"><path
         id="rect11273"
         class="cls-15"
         style="fill:none"
         d="M 0,0 H 1920.25 V 481.95999 H 0 Z" /></g><path
       id="line9182"
       clip-path="none"
       class="cls-6"
       style="fill:none;stroke:#b2e5f6;stroke-miterlimit:10;stroke-dasharray:0, 0, 5.31, 5.31"
       d="M 1227.4399,183.87 V 122.76" /><g
       id="g11269"><path
         id="rect11267"
         class="cls-15"
         style="fill:none"
         d="M 0,0 H 1920.25 V 481.95999 H 0 Z" /></g><path
       id="polyline9184"
       clip-path="none"
       class="cls-4"
       style="fill:none;stroke:#b2e5f6;stroke-miterlimit:10"
       d="m 1227.44,120.1 v -2.5 h 2.5" /><g
       id="g11263"><path
         id="rect11261"
         class="cls-15"
         style="fill:none"
         d="M 0,0 H 1920.25 V 481.95999 H 0 Z" /></g><path
       id="line9186"
       clip-path="none"
       class="cls-2"
       style="fill:none;stroke:#b2e5f6;stroke-miterlimit:10;stroke-dasharray:0, 0, 4.8, 4.8"
       d="m 1234.74,117.6 h 84.0799" /><g
       id="g11257"><path
         id="rect11255"
         class="cls-15"
         style="fill:none"
         d="M 0,0 H 1920.25 V 481.95999 H 0 Z" /></g><path
       id="polyline9188"
       clip-path="none"
       class="cls-4"
       style="fill:none;stroke:#b2e5f6;stroke-miterlimit:10"
       d="m 1321.22,117.6 h 2.5 v 2.5" /><g
       id="g11251"><path
         id="rect11249"
         class="cls-15"
         style="fill:none"
         d="M 0,0 H 1920.25 V 481.95999 H 0 Z" /></g><path
       id="line9190"
       clip-path="none"
       class="cls-6"
       style="fill:none;stroke:#b2e5f6;stroke-miterlimit:10;stroke-dasharray:0, 0, 5.31, 5.31"
       d="m 1323.72,125.41 v 61.12" /><g
       id="g11245"><path
         id="rect11243"
         class="cls-15"
         style="fill:none"
         d="M 0,0 H 1920.25 V 481.95999 H 0 Z" /></g><path
       class="cls-51"
       d="M 235.12,244.61 87.94,270.18 c -1.74,0.3 -2.88,2.11 -2.55,4.03 l 1.4,8.07 12.47,71.75 153.49,-26.67 -12.47,-71.75 -1.4,-8.07 c -0.33,-1.92 -2.02,-3.24 -3.76,-2.94 z"
       id="path9444"
       clip-path="none" /><g
       id="g10699"><path
         id="rect10697"
         class="cls-15"
         style="fill:none"
         d="M 0,0 H 1920.25 V 481.95999 H 0 Z" /></g><path
       id="rect9446"
       clip-path="none"
       class="cls-16"
       transform="rotate(-9.86)"
       style="fill:#f4f4f4"
       d="M 38.927345,290.98657 H 191.22735 v 72.74 H 38.927345 Z" /><g
       id="g10693"><path
         id="rect10691"
         class="cls-15"
         style="fill:none"
         d="M 0,0 H 1920.25 V 481.95999 H 0 Z" /></g><path
       id="polygon9448"
       clip-path="none"
       class="cls-51"
       style="fill:#b2e5f6"
       d="m 130.41,294.97 -1.2,4 -27.15,4.72 4.85,27.89 42.48,-7.38 -4.84,-27.89 -2.92,0.5 -0.64,-3.68 z" /><g
       id="g10687"><path
         id="rect10685"
         class="cls-15"
         style="fill:none"
         d="M 0,0 H 1920.25 V 481.95999 H 0 Z" /></g><path
       id="polygon9450"
       clip-path="none"
       class="cls-51"
       style="fill:#b2e5f6"
       d="m 219.64,279.47 -1.2,4 -27.15,4.71 4.85,27.9 42.48,-7.39 -4.85,-27.89 -2.91,0.51 -0.64,-3.68 z" /><g
       id="g10681"><path
         id="rect10679"
         class="cls-15"
         style="fill:none"
         d="M 0,0 H 1920.25 V 481.95999 H 0 Z" /></g><path
       id="rect9452"
       clip-path="none"
       class="cls-3"
       transform="rotate(-9.86)"
       style="fill:#e5eef5;stroke:#dbede6;stroke-miterlimit:10"
       d="m 48.561649,349.10474 h 64.170001 v 3.07 H 48.561649 Z" /><g
       id="g10675"><path
         id="rect10673"
         class="cls-15"
         style="fill:none"
         d="M 0,0 H 1920.25 V 481.95999 H 0 Z" /></g><path
       id="rect9454"
       clip-path="none"
       class="cls-3"
       transform="rotate(-9.86)"
       style="fill:#e5eef5;stroke:#dbede6;stroke-miterlimit:10"
       d="m 48.569424,354.4212 h 96.160006 v 3.07 H 48.569424 Z" /><g
       id="g10669"><path
         id="rect10667"
         class="cls-15"
         style="fill:none"
         d="M 0,0 H 1920.25 V 481.95999 H 0 Z" /></g><path
       class="cls-11"
       d="m 121.18,297.75 c 0,0 0.49,-0.61 1.43,-1.64"
       id="path9456"
       clip-path="none" /><g
       id="g10663"><path
         id="rect10661"
         class="cls-15"
         style="fill:none"
         d="M 0,0 H 1920.25 V 481.95999 H 0 Z" /></g><path
       class="cls-12"
       d="m 125.75,292.89 c 0.56,-0.54 1.17,-1.11 1.82,-1.71"
       id="path9458"
       clip-path="none" /><g
       id="g10657"><path
         id="rect10655"
         class="cls-15"
         style="fill:none"
         d="M 0,0 H 1920.25 V 481.95999 H 0 Z" /></g><path
       class="cls-10"
       d="m 131.3,287.99 c 12.46,-10.04 35.26,-22.45 61.91,-8.96"
       id="path9460"
       clip-path="none" /><g
       id="g10651"><path
         id="rect10649"
         class="cls-15"
         style="fill:none"
         d="M 0,0 H 1920.25 V 481.95999 H 0 Z" /></g><path
       class="cls-12"
       d="m 195.39,280.18 c 0.72,0.4 1.44,0.82 2.16,1.25"
       id="path9462"
       clip-path="none" /><g
       id="g10645"><path
         id="rect10643"
         class="cls-15"
         style="fill:none"
         d="M 0,0 H 1920.25 V 481.95999 H 0 Z" /></g><path
       class="cls-14"
       d="m 199.46,282.63 c 0.6,0.39 1.2,0.79 1.8,1.21"
       id="path9464"
       clip-path="none" /><g
       id="g10639"><path
         id="rect10637"
         class="cls-15"
         style="fill:none"
         d="M 0,0 H 1920.25 V 481.95999 H 0 Z" /></g><path
       id="circle9466"
       clip-path="none"
       class="cls-22"
       style="fill:#ee7864"
       d="m 96.939998,274.51001 a 3.45,3.45 0 0 1 -3.45,3.45 3.45,3.45 0 0 1 -3.45,-3.45 3.45,3.45 0 0 1 3.45,-3.45 3.45,3.45 0 0 1 3.45,3.45 z" /><g
       id="g10633"><path
         id="rect10631"
         class="cls-15"
         style="fill:none"
         d="M 0,0 H 1920.25 V 481.95999 H 0 Z" /></g><path
       id="circle9468"
       clip-path="none"
       class="cls-22"
       style="fill:#ee7864"
       d="m 107.92,272.25 a 3.45,3.45 0 0 1 -3.45,3.45 3.45,3.45 0 0 1 -3.45,-3.45 3.45,3.45 0 0 1 3.45,-3.45 3.45,3.45 0 0 1 3.45,3.45 z" /><g
       id="g10627"><path
         id="rect10625"
         class="cls-15"
         style="fill:none"
         d="M 0,0 H 1920.25 V 481.95999 H 0 Z" /></g><path
       id="circle9470"
       clip-path="none"
       class="cls-22"
       style="fill:#ee7864"
       d="m 118.44,270.29999 a 3.45,3.45 0 0 1 -3.45,3.45 3.45,3.45 0 0 1 -3.45,-3.45 3.45,3.45 0 0 1 3.45,-3.45 3.45,3.45 0 0 1 3.45,3.45 z" /><g
       id="g10621"><path
         id="rect10619"
         class="cls-15"
         style="fill:none"
         d="M 0,0 H 1920.25 V 481.95999 H 0 Z" /></g><path
       class="cls-51"
       d="M 221.45,152.09 H 201.2 c -3.45,0 -6.25,2.8 -6.25,6.25 v 20.26 c 0,3.45 2.8,6.25 6.25,6.25 h 20.25 c 3.45,0 6.25,-2.8 6.25,-6.25 v -20.26 c 0,-3.45 -2.8,-6.25 -6.25,-6.25 z m 1.36,24.42 -3.2,-3.21 -2.74,0.72 -0.71,2.73 3.2,3.2 c -1.74,0.52 -3.71,0.09 -5.08,-1.29 -1.37,-1.36 -1.8,-3.3 -1.3,-5.03 l -6.82,-6.81 c -1.73,0.49 -3.67,0.06 -5.03,-1.3 -1.38,-1.38 -1.81,-3.34 -1.29,-5.09 l 3.2,3.2 2.74,-0.71 0.71,-2.73 -3.2,-3.2 c 1.74,-0.52 3.71,-0.09 5.08,1.28 1.37,1.37 1.8,3.31 1.3,5.04 l 6.82,6.81 c 1.73,-0.5 3.67,-0.06 5.03,1.3 1.38,1.38 1.81,3.34 1.29,5.09 z"
       id="path9472"
       clip-path="none" /><g
       id="g10615"><path
         id="rect10613"
         class="cls-15"
         style="fill:none"
         d="M 0,0 H 1920.25 V 481.95999 H 0 Z" /></g><path
       class="cls-51"
       d="m 115.89,166.98 c -0.02,-0.15 -0.05,-0.28 -0.11,-0.42 v 0 c -0.04,-0.09 -0.08,-0.17 -0.12,-0.24 -0.05,-0.08 -0.11,-0.15 -0.17,-0.21 -0.03,-0.03 -0.06,-0.07 -0.09,-0.09 -0.03,-0.03 -0.07,-0.06 -0.1,-0.09 v 0 c 0,0 -0.09,-0.07 -0.14,-0.09 -0.11,-0.07 -0.23,-0.12 -0.35,-0.15 -0.04,-0.01 -0.08,-0.02 -0.13,-0.03 -0.16,-0.03 -0.32,-0.03 -0.49,0 h -0.03 c -0.12,0.02 -0.23,0.02 -0.35,0.01 -0.28,-0.02 -0.54,-0.12 -0.76,-0.28 -0.04,-0.02 -0.07,-0.05 -0.11,-0.09 -0.04,-0.03 -0.08,-0.07 -0.11,-0.11 -0.05,-0.06 -0.1,-0.12 -0.14,-0.19 -0.04,-0.06 -0.07,-0.13 -0.11,-0.19 -0.02,-0.04 -0.03,-0.07 -0.05,-0.11 -0.01,-0.03 -0.02,-0.06 -0.04,-0.09 -0.1,-0.28 -0.22,-0.56 -0.35,-0.84 0,0 0,-0.01 0,-0.02 -0.02,-0.05 -0.04,-0.1 -0.06,-0.15 -0.07,-0.21 -0.09,-0.42 -0.07,-0.63 v 0 c 0.02,-0.17 0.07,-0.34 0.15,-0.5 0.07,-0.16 0.18,-0.3 0.31,-0.42 0.05,-0.04 0.09,-0.08 0.14,-0.12 l 0.03,-0.02 c 0,0 0.09,-0.07 0.13,-0.11 0.12,-0.11 0.22,-0.24 0.29,-0.37 0.04,-0.07 0.07,-0.14 0.09,-0.21 v 0 c 0.02,-0.07 0.05,-0.15 0.06,-0.22 0.09,-0.42 0,-0.88 -0.29,-1.25 -0.31,-0.39 -0.65,-0.76 -1,-1.13 -0.36,-0.36 -0.74,-0.7 -1.13,-1.01 -0.37,-0.3 -0.85,-0.39 -1.28,-0.28 -0.06,0.02 -0.11,0.03 -0.16,0.05 -0.21,0.07 -0.42,0.2 -0.58,0.38 -0.04,0.04 -0.08,0.09 -0.12,0.14 l -0.03,0.03 c -0.18,0.24 -0.42,0.42 -0.7,0.52 -0.1,0.04 -0.2,0.06 -0.31,0.08 -0.01,0 -0.03,0 -0.04,0 -0.02,0 -0.05,0 -0.08,0 -0.11,0 -0.21,0 -0.31,-0.01 -0.08,0 -0.16,-0.03 -0.23,-0.06 -0.05,-0.02 -0.1,-0.03 -0.15,-0.06 -0.07,-0.03 -0.13,-0.06 -0.19,-0.09 -0.09,-0.05 -0.19,-0.09 -0.28,-0.12 -0.16,-0.07 -0.32,-0.13 -0.48,-0.19 0,0 0,0 -0.02,0 -0.62,-0.23 -0.99,-0.86 -0.95,-1.5 v -0.02 c 0,0 0.02,-0.12 0.02,-0.12 v 0 c 0.11,-0.8 -0.4,-1.53 -1.15,-1.7 -0.05,-0.02 -0.11,-0.02 -0.17,-0.03 -0.5,-0.05 -1,-0.08 -1.51,-0.08 -0.51,0 -1.02,0.03 -1.51,0.08 -0.81,0.09 -1.4,0.83 -1.32,1.64 0,0.04 0,0.07 0.01,0.11 0.01,0.07 0.02,0.15 0.02,0.22 0,0.58 -0.33,1.12 -0.86,1.37 -0.04,0.02 -0.08,0.03 -0.12,0.05 -0.16,0.06 -0.31,0.12 -0.46,0.18 -0.13,0.05 -0.25,0.11 -0.37,0.16 -0.03,0.01 -0.06,0.03 -0.09,0.04 -0.65,0.3 -1.41,0.09 -1.84,-0.48 v 0 c -0.48,-0.65 -1.37,-0.81 -2.04,-0.39 -0.05,0.03 -0.09,0.06 -0.14,0.09 -0.38,0.3 -0.76,0.64 -1.11,1 -0.36,0.35 -0.69,0.73 -1,1.11 -0.32,0.41 -0.41,0.93 -0.26,1.38 0.04,0.14 0.1,0.28 0.18,0.4 0.07,0.1 0.14,0.19 0.22,0.27 0.05,0.04 0.09,0.08 0.14,0.12 v 0 c 0.57,0.43 0.79,1.2 0.48,1.85 -0.14,0.3 -0.27,0.61 -0.38,0.93 -0.07,0.19 -0.17,0.35 -0.3,0.5 -0.08,0.08 -0.16,0.15 -0.25,0.22 -0.09,0.06 -0.2,0.12 -0.3,0.16 -0.07,0.03 -0.14,0.05 -0.22,0.07 -0.19,0.04 -0.37,0.05 -0.57,0.02 -0.07,-0.01 -0.15,-0.02 -0.22,-0.02 -0.09,0 -0.19,0 -0.28,0.02 -0.65,0.12 -1.17,0.64 -1.25,1.32 -0.05,0.49 -0.09,0.99 -0.09,1.49 0,0.5 0.03,1 0.09,1.49 0.08,0.69 0.6,1.21 1.25,1.32 0.16,0.03 0.33,0.03 0.5,0 0.07,-0.01 0.15,-0.02 0.22,-0.02 0.31,0 0.61,0.09 0.86,0.26 0.06,0.05 0.12,0.09 0.18,0.14 0.16,0.15 0.3,0.35 0.38,0.57 0.12,0.31 0.24,0.62 0.38,0.93 0.28,0.59 0.12,1.28 -0.34,1.72 -0.05,0.04 -0.09,0.08 -0.14,0.12 v 0 c 0,0 0,0 0,0 -0.05,0.04 -0.1,0.08 -0.14,0.12 -0.08,0.08 -0.16,0.17 -0.22,0.27 -0.08,0.12 -0.14,0.26 -0.18,0.4 -0.01,0.05 -0.02,0.09 -0.03,0.14 0,0.05 -0.02,0.09 -0.02,0.14 0,0.05 -0.01,0.1 -0.01,0.15 v 0 c 0,0 0,0.04 0,0.05 0,0.07 0,0.14 0.02,0.21 0.01,0.07 0.03,0.14 0.05,0.21 0,0 0,0.02 0,0.02 0,0 0,0.02 0,0.02 0,0.02 0.02,0.05 0.02,0.07 0.02,0.05 0.05,0.1 0.07,0.15 0,0 0.01,0.02 0.02,0.02 0,0 0.01,0.02 0.02,0.03 0.03,0.06 0.07,0.12 0.11,0.17 0.3,0.38 0.64,0.76 1,1.11 0.35,0.35 0.72,0.68 1.11,0.99 0.32,0.25 0.71,0.36 1.08,0.32 0.13,-0.01 0.26,-0.04 0.38,-0.09 0.28,-0.09 0.52,-0.27 0.71,-0.52 l 0.12,-0.14 c 0.17,-0.18 0.37,-0.31 0.59,-0.39 l 0.52,-0.09 c 0.21,0 0.42,0.05 0.62,0.14 0.3,0.14 0.61,0.27 0.92,0.38 0.3,0.11 0.55,0.31 0.72,0.56 0.06,0.09 0.12,0.19 0.16,0.3 0.09,0.24 0.13,0.51 0.09,0.79 v 0 c -0.12,0.81 0.41,1.55 1.18,1.71 0,0 0,0 0.01,0 0.05,0.01 0.09,0.02 0.14,0.02 0.49,0.06 0.99,0.09 1.49,0.09 0.5,0 1,-0.03 1.48,-0.08 0.37,-0.05 0.69,-0.21 0.92,-0.46 0.09,-0.1 0.18,-0.21 0.24,-0.33 0.03,-0.06 0.06,-0.12 0.09,-0.19 0.09,-0.24 0.13,-0.5 0.09,-0.77 -0.01,-0.07 -0.02,-0.15 -0.02,-0.22 0,-0.63 0.38,-1.2 0.98,-1.42 0.31,-0.11 0.62,-0.24 0.92,-0.38 v 0 c 0.42,-0.2 0.9,-0.18 1.3,0.02 0.1,0.05 0.21,0.12 0.3,0.19 0.05,0.04 0.09,0.08 0.13,0.13 0.05,0.04 0.08,0.09 0.12,0.14 v 0 c 0.48,0.65 1.37,0.81 2.03,0.39 0.05,-0.03 0.09,-0.06 0.14,-0.1 0.38,-0.31 0.76,-0.64 1.11,-1 0.35,-0.36 0.69,-0.73 1,-1.11 0.32,-0.41 0.4,-0.93 0.26,-1.39 -0.02,-0.07 -0.05,-0.13 -0.07,-0.2 -0.03,-0.07 -0.07,-0.13 -0.11,-0.19 -0.07,-0.1 -0.14,-0.19 -0.22,-0.27 -0.05,-0.04 -0.09,-0.08 -0.14,-0.12 v 0 c 0,0 -0.09,-0.08 -0.14,-0.12 -0.46,-0.44 -0.62,-1.13 -0.34,-1.72 0.14,-0.3 0.27,-0.61 0.38,-0.93 0.24,-0.67 0.94,-1.07 1.64,-0.96 0.37,0.05 0.73,-0.03 1.02,-0.21 0.08,-0.05 0.15,-0.1 0.21,-0.16 0.03,-0.03 0.07,-0.06 0.1,-0.09 0.03,-0.03 0.05,-0.06 0.08,-0.09 0.18,-0.21 0.3,-0.49 0.33,-0.78 0.06,-0.49 0.09,-0.99 0.09,-1.49 0,-0.5 -0.03,-1 -0.09,-1.49 z m -6.48,2.25 c 0,0 0,0.05 0,0.07 -0.02,0.12 -0.03,0.24 -0.05,0.36 -0.02,0.13 -0.04,0.25 -0.07,0.38 0,0 0,0.01 0,0.02 -0.05,0.25 -0.12,0.49 -0.2,0.73 -0.05,0.14 -0.1,0.28 -0.15,0.42 -0.05,0.12 -0.1,0.25 -0.16,0.37 -0.04,0.09 -0.09,0.18 -0.13,0.27 -0.12,0.24 -0.25,0.47 -0.41,0.7 -0.04,0.06 -0.08,0.12 -0.12,0.18 -0.01,0.02 -0.03,0.05 -0.06,0.08 -0.05,0.07 -0.09,0.13 -0.15,0.2 -0.06,0.08 -0.12,0.16 -0.19,0.24 -0.13,0.16 -0.27,0.32 -0.42,0.46 -0.06,0.07 -0.13,0.13 -0.19,0.19 -0.07,0.06 -0.14,0.12 -0.21,0.18 -0.1,0.08 -0.2,0.16 -0.3,0.25 -0.25,0.19 -0.51,0.37 -0.77,0.53 -0.08,0.05 -0.17,0.1 -0.25,0.14 -0.1,0.05 -0.2,0.1 -0.3,0.15 -0.09,0.05 -0.19,0.09 -0.29,0.13 -0.16,0.07 -0.32,0.13 -0.48,0.18 -0.09,0.03 -0.18,0.07 -0.28,0.09 -0.2,0.06 -0.4,0.11 -0.61,0.16 -0.1,0.02 -0.2,0.05 -0.3,0.06 -0.1,0.02 -0.21,0.04 -0.31,0.05 -0.51,0.06 -1.04,0.07 -1.55,0.03 -0.1,0 -0.21,-0.02 -0.31,-0.03 -0.1,0 -0.21,-0.02 -0.31,-0.05 -0.1,-0.02 -0.21,-0.03 -0.31,-0.06 -0.35,-0.08 -0.7,-0.18 -1.04,-0.3 -0.09,-0.03 -0.18,-0.07 -0.27,-0.11 0,0 -0.02,0 -0.03,-0.01 -0.1,-0.04 -0.2,-0.09 -0.29,-0.13 0,0 -0.02,0 -0.03,-0.02 -0.1,-0.05 -0.21,-0.1 -0.3,-0.16 -0.21,-0.11 -0.41,-0.23 -0.61,-0.37 0,0 -0.01,0 -0.02,0 -0.09,-0.06 -0.18,-0.13 -0.28,-0.2 -0.08,-0.06 -0.16,-0.12 -0.24,-0.19 -0.12,-0.09 -0.22,-0.19 -0.33,-0.29 -0.11,-0.09 -0.21,-0.2 -0.31,-0.3 -0.09,-0.09 -0.17,-0.18 -0.25,-0.27 -0.29,-0.33 -0.55,-0.68 -0.77,-1.04 -0.06,-0.1 -0.12,-0.2 -0.18,-0.31 -0.07,-0.12 -0.13,-0.23 -0.18,-0.36 -0.03,-0.07 -0.07,-0.14 -0.09,-0.21 -0.02,-0.05 -0.04,-0.09 -0.06,-0.14 -0.02,-0.06 -0.05,-0.12 -0.07,-0.18 -0.03,-0.08 -0.06,-0.16 -0.08,-0.24 -0.01,-0.03 -0.02,-0.06 -0.03,-0.09 -0.03,-0.1 -0.07,-0.2 -0.09,-0.3 -0.05,-0.15 -0.08,-0.3 -0.12,-0.45 -0.02,-0.09 -0.04,-0.19 -0.05,-0.28 -0.03,-0.17 -0.05,-0.35 -0.07,-0.52 -0.02,-0.25 -0.04,-0.51 -0.04,-0.76 v 0 c 0,-0.26 0.01,-0.51 0.04,-0.76 0,-0.02 0,-0.05 0,-0.07 0.01,-0.12 0.03,-0.24 0.05,-0.36 0.02,-0.13 0.04,-0.25 0.07,-0.38 0,0 0,-0.01 0,-0.02 0.05,-0.25 0.12,-0.49 0.2,-0.73 0.03,-0.1 0.07,-0.2 0.11,-0.3 0.03,-0.07 0.06,-0.15 0.09,-0.23 0.02,-0.05 0.04,-0.1 0.07,-0.15 0.03,-0.07 0.06,-0.13 0.09,-0.2 0.09,-0.19 0.18,-0.37 0.3,-0.55 0.05,-0.09 0.1,-0.17 0.16,-0.25 0,0 0,-0.02 0.02,-0.02 0.06,-0.08 0.11,-0.16 0.17,-0.24 0.07,-0.11 0.15,-0.21 0.23,-0.31 0.08,-0.1 0.16,-0.2 0.25,-0.3 0.09,-0.1 0.17,-0.19 0.26,-0.29 0.46,-0.46 0.97,-0.87 1.53,-1.2 0.09,-0.05 0.18,-0.1 0.27,-0.15 0.09,-0.05 0.19,-0.09 0.28,-0.14 0.09,-0.05 0.18,-0.09 0.27,-0.12 0.17,-0.08 0.35,-0.14 0.52,-0.2 0.08,-0.03 0.16,-0.06 0.25,-0.08 0.1,-0.03 0.2,-0.06 0.3,-0.09 0.1,-0.03 0.2,-0.05 0.3,-0.07 0.1,-0.02 0.2,-0.05 0.3,-0.06 0.1,-0.02 0.21,-0.04 0.31,-0.05 0.1,-0.01 0.21,-0.02 0.31,-0.03 0.41,-0.03 0.83,-0.03 1.24,0 0.1,0 0.21,0.02 0.31,0.03 0.1,0 0.21,0.02 0.31,0.05 0.1,0.01 0.21,0.03 0.31,0.06 0.25,0.05 0.51,0.12 0.76,0.21 0.07,0.02 0.14,0.04 0.21,0.07 0.35,0.12 0.68,0.28 1.01,0.46 0.11,0.06 0.21,0.12 0.31,0.18 0.1,0.06 0.2,0.12 0.29,0.18 0.09,0.07 0.19,0.13 0.28,0.2 0.01,0 0.03,0.02 0.04,0.03 0.09,0.07 0.18,0.14 0.27,0.21 0.09,0.07 0.17,0.14 0.25,0.22 0.19,0.17 0.36,0.35 0.52,0.53 0.07,0.07 0.13,0.14 0.19,0.22 0.11,0.13 0.21,0.25 0.3,0.39 0.05,0.07 0.09,0.13 0.14,0.2 0.16,0.23 0.3,0.47 0.42,0.72 0.05,0.09 0.1,0.19 0.15,0.29 0,0.02 0.02,0.04 0.02,0.05 0.05,0.1 0.09,0.21 0.14,0.32 0,0.02 0.01,0.03 0.02,0.05 0.04,0.09 0.07,0.18 0.1,0.28 0.02,0.05 0.04,0.11 0.05,0.16 0.08,0.24 0.14,0.48 0.2,0.72 0.01,0.07 0.03,0.14 0.04,0.22 0.03,0.19 0.06,0.38 0.08,0.57 0.02,0.25 0.04,0.5 0.04,0.76 0,0.26 -0.01,0.5 -0.04,0.75 z"
       id="path9474"
       clip-path="none" /><g
       id="g10609"><path
         id="rect10607"
         class="cls-15"
         style="fill:none"
         d="M 0,0 H 1920.25 V 481.95999 H 0 Z" /></g><path
       id="rect9476"
       clip-path="none"
       class="cls-4"
       style="fill:none;stroke:#b2e5f6;stroke-miterlimit:10"
       d="M 88.940002,149.10001 H 115.19 c 3.4625,0 6.25,2.7875 6.25,6.25 v 26.25 c 0,3.4625 -2.7875,6.25 -6.25,6.25 H 88.940002 c -3.4625,0 -6.25,-2.7875 -6.25,-6.25 v -26.25 c 0,-3.4625 2.7875,-6.25 6.25,-6.25 z" /><g
       id="g10603"><path
         id="rect10601"
         class="cls-15"
         style="fill:none"
         d="M 0,0 H 1920.25 V 481.95999 H 0 Z" /></g></g><g
     id="layer2"
     transform="rotate(-90,932.283,932.283)"><path
       d="m 760.38,191.68 c -8.13,-39.84 -2.72,-77.22 52.14,-88.42 48.26,-9.85 71.45,13.16 77.59,43.21 l -33.01,6.74 C 851.43,135.87 841,125.43 818,130.13 c -29.59,6.04 -30.51,28.28 -25.07,54.91 5.48,26.86 14.99,46.74 44.59,40.69 23.22,-4.74 28.32,-18.11 26.88,-36.79 l 33.23,-6.78 c 6.51,31.87 -5.68,60.44 -54.63,70.43 -55.54,11.34 -74.49,-21.08 -82.62,-60.91 z"
       id="path9103"
       clip-path="none"
       style="fill:#005a9c" /><g
       id="g11515"><path
         id="rect11513"
         class="cls-15"
         style="fill:none"
         d="M 0,0 H 1920.25 V 481.95999 H 0 Z" /></g><path
       d="m 1305.76,290.05 c 1.39,-13.71 -6.51,-21.14 -23,-21.14 -18.12,0 -27.42,8.6 -27.42,24.63 h -30.9 c 0,-29.97 15.8,-52.51 57.39,-52.51 41.59,0 58.32,21.84 56.46,50.65 -3.48,50.18 -82.94,39.27 -82.94,71.56 v 1.86 h 82.94 v 26.49 c -70.17,-0.23 -46.93,0 -114.54,0 l 0.23,-26.95 c 0.47,-58.78 78.99,-46.24 81.78,-74.58 z"
       id="path9434"
       clip-path="none"
       style="fill:#005a9c" /><path
       d="m 1365.2,344.09 h 31.31 c 0,15.77 9.28,25.51 27.36,25.51 16.47,0 22.73,-11.13 22.73,-21.8 0,-10.67 -5.33,-20.87 -28.06,-20.87 h -29.45 v -24.35 l 50.32,-29.22 h -68.88 V 246 h 103.2 v 35.71 l -43.6,23.19 c 20.64,0 48.7,7.42 48.7,42.9 0,25.51 -16,48.47 -56.12,48.47 -40.12,0 -57.51,-22.5 -57.51,-52.18 z"
       id="path9436"
       clip-path="none"
       style="fill:#005a9c" /><path
       d="m 1023.58,290.06 c 1.39,-13.71 -6.51,-21.14 -23,-21.14 -18.12,0 -27.42,8.6 -27.42,24.63 h -30.9 c 0,-29.97 15.8,-52.51 57.39,-52.51 41.59,0 58.32,21.84 56.46,50.65 -3.48,50.18 -82.94,39.27 -82.94,71.56 v 1.86 h 82.94 v 26.49 c -70.16,-0.23 -46.93,0 -114.54,0 l 0.23,-26.95 c 0.46,-58.78 78.99,-46.24 81.78,-74.58 z"
       id="path9214"
       clip-path="none"
       style="fill:#005a9c" /><g
       id="g11227"><path
         id="rect11225"
         class="cls-15"
         style="fill:none"
         d="M 0,0 H 1920.25 V 481.95999 H 0 Z" /></g><g
       id="humaaans_sitting-2"
       transform="rotate(90,825.79535,181.51611)"
       clip-path="none"><g
         id="A-Human_Sitting"><g
           id="Head_Front_Rad"><g
             id="Head-3"><path
               class="cls-37"
               d="m 822.98,64.14 9.04,-1.84 -3.74,-10.52 c 2.74,0.97 5.28,1.19 6.34,0.67 2.67,-1.3 0.83,-11.67 -2.19,-15.29 -3.01,-3.62 -14.59,-3.1 -13.51,5.07 0.37,2.84 2.06,5.09 4.21,6.78 l -0.15,15.14 z"
               id="path9478" /></g><path
             id="hair-3"
             class="cls-26"
             d="m 814.43,40.35 c -0.95,0.25 -2.04,0.91 -2.35,1.97 -0.4,1.38 0.82,2.59 1.96,2.96 -1.52,2.02 2.3,3.58 3.7,3.39 -0.05,1.05 1.18,1.15 1.88,1.29 -0.3,0.58 -0.27,1.39 0.32,1.78 0.64,0.44 1.59,0.28 2.1,-0.26 0.13,-0.14 0.13,-0.28 0.22,-0.42 0.07,-0.12 0.22,-0.15 0.33,-0.21 0.3,-0.18 0.44,-0.57 0.52,-0.91 0.17,-0.69 0.13,-1.47 0.52,-2.08 -0.68,-0.14 -1.49,-0.24 -2.04,-0.79 -0.94,-0.95 -0.46,-2.63 0.61,-3.15 0.97,-0.47 2.23,-0.14 3.06,0.57 0.09,-0.64 0.29,-1.28 0.62,-1.82 0.2,-0.33 0.57,-0.83 -0.06,-0.86 -1.39,-0.08 -2.79,0.07 -4.19,0.04 1.38,-0.28 2.78,-0.42 4.13,-0.83 0.42,-0.13 0.84,-0.28 0.96,-0.79 0.14,-0.62 0.18,-1.34 0.08,-1.98 0.5,0.07 1,0.22 1.5,0.11 0.19,-0.04 0.36,-0.13 0.55,-0.17 0.22,-0.05 0.37,0.01 0.56,0.13 0.74,0.46 1.59,0.68 2.44,0.7 0.48,0.01 1.02,0.02 1.48,-0.11 0.07,-0.02 0.12,-0.07 0.16,-0.1 0.09,-0.04 0.27,-0.03 0.4,-0.05 0.33,-0.05 0.67,-0.18 0.89,-0.46 0.48,-0.65 0.12,-1.51 -0.62,-1.68 0.49,-0.55 0.93,-1.17 1.27,-1.85 0.16,-0.33 0.31,-0.67 0.41,-1.02 0.05,-0.2 0.13,-0.48 0.03,-0.68 -0.29,-0.62 -1.48,0.04 -1.81,0.29 -0.06,-0.17 -0.11,-0.25 -0.11,-0.43 0,-0.15 -0.02,-0.29 -0.1,-0.42 -0.13,-0.21 -0.36,-0.3 -0.58,-0.35 -0.28,-0.07 -0.56,-0.06 -0.84,-0.01 -0.14,0.02 -0.44,0.18 -0.55,0.03 -0.08,-0.12 -0.05,-0.38 -0.06,-0.52 0,-0.26 -0.02,-0.5 -0.05,-0.76 -0.04,-0.34 -0.08,-0.67 -0.13,-1 -0.03,-0.24 -0.04,-0.51 -0.14,-0.73 -0.27,-0.61 -0.94,-0.5 -1.4,-0.28 -0.32,0.14 -0.59,0.35 -0.84,0.61 -0.17,0.18 -0.33,0.38 -0.51,0.56 -0.11,0.12 -0.19,0.27 -0.36,0.21 -0.39,-0.16 -0.68,-0.64 -1,-0.92 -0.36,-0.31 -0.81,-0.5 -1.26,-0.57 -0.97,-0.16 -1.94,0.28 -2.6,1.01 -0.15,0.16 -0.29,0.34 -0.4,0.54 -0.1,0.17 -0.17,0.3 -0.37,0.29 -0.18,0 -0.36,-0.09 -0.53,-0.16 -0.2,-0.08 -0.41,-0.15 -0.61,-0.21 -0.83,-0.25 -1.69,-0.28 -2.49,0 -0.79,0.28 -1.41,0.84 -1.7,1.68 -0.3,0.87 -0.27,1.86 -0.09,2.78 -0.45,-0.09 -0.87,-0.29 -1.32,-0.35 -0.46,-0.05 -0.93,-0.02 -1.37,0.1 -0.66,0.19 -1.34,0.57 -1.72,1.2 -0.47,0.78 -0.27,1.75 0.09,2.56 0.18,0.4 0.4,0.79 0.63,1.17 0.22,0.36 0.46,0.74 0.81,0.97" /></g><g
           id="Bottom_Sitting_Skinny-Jeans-1"><path
             class="cls-37"
             d="m 887.94,144.8 c 0.11,2.46 -3.83,3.91 -4.68,0.97 -1.35,-4.68 -5.42,-21.03 -6.27,-28.81 -0.28,-2.45 -0.51,-4.83 -0.71,-7.03 l 0.91,-16.34 c 2.83,-2.15 8.13,-0.83 8.64,1.74 1.62,7.98 2.01,47.02 2.12,49.47 z"
             id="path9483" /><g
             id="Accessories_Shoe_Flat-Sneaker-4"><path
               id="shoe-8"
               class="cls-36"
               d="m 881.93,143.99 c 0.1,-0.41 0.51,-0.67 0.92,-0.57 v 0 c 1.08,0.25 1.9,0.32 2.45,0.2 0.69,-0.14 1.53,-0.58 2.53,-1.32 l 0.32,-1.67 c 0,0 0,0 0,-0.01 0.05,-0.21 0.25,-0.34 0.46,-0.29 l 10.77,2.39 c 0.81,-0.04 1.83,-0.11 3.04,-0.21 1.22,-0.1 1.74,0.82 1.56,2.76 -13.37,2.73 -20.45,4.17 -21.24,4.34 -0.49,-1.26 -0.81,-2.22 -0.95,-2.9 -0.11,-0.56 -0.08,-1.44 0.12,-2.65 0,-0.02 0,-0.04 0.01,-0.05 z" /></g><path
             id="Leg-and-Butt"
             class="cls-24"
             d="m 881.22,92.02 c -9.16,0.15 -33.88,0.21 -38.54,0.65 l -22.36,4.56 c 3.07,13.11 9.19,19.28 20.48,16.97 7.83,-1.6 33.33,-9.87 34.05,-9.67 0.48,0.14 2.1,10.77 4.85,31.89 l 10.22,-2.09 c -0.45,-2.2 -0.46,-26.51 -2.5,-36.51 -0.56,-2.76 -2.29,-5.88 -6.21,-5.81 z" /></g><g
           id="Body_Pointing-Forward-2"><path
             id="Skin-6"
             class="cls-46"
             d="m 847.18,75.74 10.05,-8.47 c 5.16,-1.2 7.54,-2.13 7.13,-2.8 -0.61,-1 -2.01,-0.24 -2.54,-0.85 -0.52,-0.61 0.61,-2.62 1.76,-4.49 1.15,-1.86 0,-1.74 -0.67,-1.5 -2.21,1.37 -4.48,3.32 -6.8,5.86 l -13.63,6.75 4.7,5.49 z" /><path
             id="Sleeve-2"
             class="cls-24"
             d="m 839.18,77.19 c 5.63,0.39 12.22,-3.08 16.99,-7.44 l -2.37,-5.92 c -6.82,3.94 -13.08,4.67 -17.75,4.53 -3.35,3.06 -1.3,8.53 3.13,8.83 z" /><path
             id="polygon9495"
             class="cls-60"
             style="fill:#527a98"
             d="m 852.01,59.64 36.52,5.99 -0.36,2.06 -36.52,-5.99 z" /><path
             id="polygon9497"
             class="cls-60"
             style="fill:#527a98"
             d="m 859.32,61.19 29.15,4.43 15.29,-17.64 -29.14,-4.43 z" /><path
             id="polygon9499"
             class="cls-59"
             style="fill:#2128c5"
             d="m 863.65,59.9 23.47,3.57 12.31,-14.2 -23.46,-3.57 z" /><path
             class="cls-46"
             d="m 865.62,77.57 c 2.11,-2.3 4.18,-3.96 6.19,-4.99 3.85,-1.97 5.32,-3.18 6.79,-6.12 0.79,-1.58 1.14,-4.49 -0.06,-5.18 -0.81,-0.46 -4.19,3.31 -5.75,3.98 -1.56,0.67 -0.85,-3.51 -1.63,-2.93 -1.12,0.25 -1.76,1.99 -1.94,5.22 l -5.1,4.33 z"
             id="path9501" /><path
             id="Clothes-2"
             class="cls-23"
             d="m 832.03,53.66 -10.45,2.13 c -1.15,0.23 -5.89,16.75 -3.91,26.45 1.8,8.86 -5.29,16.16 1.8,29.13 6.53,-2.73 28.16,-0.05 30.12,-8.11 0.95,-3.92 0.65,-7.93 -0.41,-12 6.9,-1.57 14.84,-5.57 23.61,-12.7 -0.3,-2.54 -2.46,-6.46 -6.5,-11.75 -10.61,6.41 -18.47,9.5 -23.58,9.28 -4.03,-7.58 -8.6,-15.15 -10.68,-22.44 z" /></g></g></g><g
       id="humaaans_standing-19"
       clip-path="none"
       transform="rotate(90,1134.0309,317.0209)"><g
         id="humaaan-3"><g
           id="Bottom_Standing_Baggy-Pants"><path
             id="Leg-3"
             class="cls-46"
             style="fill:#92775d;fill-rule:evenodd"
             d="m 1180.28,391.09 -19.79,-89.79 h -17.57 l 19.3,48.66 12.95,41.13 z" /><path
             id="Leg-4"
             class="cls-37"
             d="m 1139.04,301.3 c -0.21,17.1 -3.2,40.12 -3.68,41.18 -0.32,0.71 -11.34,9.75 -33.06,27.11 l 3.52,3.75 c 25.63,-14.88 39.03,-23.32 40.22,-25.3 1.78,-2.98 7.57,-30.38 12.22,-46.74 z" /><g
             id="Accessories_Shoe_Flat-Sneaker-2"><path
               id="shoe-4"
               class="cls-36"
               d="m 1101.8,368.33 c -1.18,0.42 -2,0.81 -2.44,1.19 -0.54,0.46 -1.26,1.21 -2.15,2.27 0.53,0.63 5.28,6.29 14.25,16.99 1.83,-0.78 2.4,-1.7 1.72,-2.75 -0.68,-1.05 -1.24,-1.93 -1.67,-2.63 l -3.11,-10.85 c -0.06,-0.21 -0.28,-0.33 -0.49,-0.27 0,0 0,0 -0.01,0 l -1.66,0.53 c -1.15,-0.54 -1.96,-1.08 -2.42,-1.63 -0.38,-0.45 -0.71,-1.22 -1.01,-2.31 v 0 c -0.12,-0.42 -0.55,-0.66 -0.97,-0.55 -0.02,0 -0.04,0.01 -0.05,0.02 z" /></g><g
             id="Accessories_Shoe_Flat-Sneaker-3"><path
               id="shoe-5"
               class="cls-36"
               d="m 1173.07,389.23 c -0.44,1.17 -0.66,2.05 -0.66,2.64 0,0.71 0.12,1.74 0.35,3.1 h 22.18 c 0.58,-1.91 0.24,-2.93 -1,-3.09 -1.24,-0.16 -2.27,-0.29 -3.09,-0.41 l -10.31,-4.6 c -0.2,-0.09 -0.43,0 -0.52,0.2 0,0 0,0 0,0.01 l -0.66,1.61 c -1.15,0.54 -2.08,0.8 -2.8,0.8 -0.58,0 -1.39,-0.24 -2.42,-0.71 v 0 c -0.39,-0.18 -0.86,0 -1.04,0.39 0,0.02 -0.01,0.03 -0.02,0.05 z" /></g><path
             id="Pant-3"
             class="cls-43"
             style="fill:#64caee;fill-rule:evenodd"
             d="m 1180.2,384.23 -18.01,-82.93 h -21.77 l 15.48,85.55 z" /><path
             id="Pant-4"
             class="cls-25"
             d="m 1107.32,363.54 15.94,18.79 c 16.79,-18.27 26.58,-30.18 29.36,-35.76 2.78,-5.58 5.29,-20.66 7.52,-45.28 h -24.5 c -1.21,21.65 -2.03,32.98 -2.46,33.99 -0.42,1.01 -9.04,10.42 -25.86,28.25 z" /></g></g></g><g
       id="g11233"
       transform="rotate(90,1134.0309,317.0209)"><path
         id="rect11231"
         class="cls-15"
         style="fill:none"
         d="M 0,0 H 1920.25 V 481.95999 H 0 Z" /></g><path
       d="m 1075.39,317.24 c 0,-44.38 12.31,-76.21 62.73,-76.21 50.42,0 62.96,31.83 62.96,76.44 0,44.61 -11.85,75.97 -62.96,75.97 -51.11,0 -62.73,-31.83 -62.73,-76.21 z m 62.73,48.79 c 26.48,0 29.97,-18.82 29.97,-48.56 0,-29.74 -3.48,-49.02 -29.97,-49.02 -26.49,0 -29.51,18.82 -29.51,48.79 0,29.97 3.95,48.79 29.51,48.79 z"
       id="path9216"
       clip-path="none"
       style="fill:#005a9c" /><g
       id="g11221"><path
         id="rect11219"
         class="cls-15"
         style="fill:none"
         d="M 0,0 H 1920.25 V 481.95999 H 0 Z" /></g><g
       id="g23128"
       transform="rotate(90,1133.0309,316.0209)"
       clip-path="none"><g
         id="Head_Front_Short-Beard"
         clip-path="url(#clipPath11109)"
         transform="translate(0,-2)"><g
           id="Head"><path
             class="cls-37"
             d="m 1137.74,254.22 c -2.3,-1.57 -4.15,-3.74 -4.7,-6.59 -1.59,-8.21 10.2,-9.47 13.49,-5.99 3.29,3.48 5.79,13.86 3.14,15.35 -1.06,0.59 -3.66,0.53 -6.52,-0.28 l 4.44,10.41 -9.11,2.44 -0.75,-15.34 z"
             id="path9252" /></g><path
           id="Hair"
           class="cls-26"
           d="m 1140.9,246.48 c 1.64,4.72 3.21,6.88 4.7,6.48 2.25,-0.6 3.77,-2.53 4.76,-2.79 0.72,-0.19 0.8,0.74 0.5,1.53 -0.25,0.65 -2.02,1.69 -1.79,2.53 0.23,0.84 1.56,-0.21 1.7,0.29 0.22,0.83 0.91,2.32 -0.55,2.7 -1.46,0.38 -5.82,0.99 -7.12,-0.98 -0.84,-1.27 -1.91,-4.08 -3.23,-8.43 -0.09,0.01 -0.18,0.03 -0.28,0.06 -1.26,0.34 -2.01,1.62 -1.67,2.87 0.17,0.63 0.59,1.14 1.12,1.43 -0.33,0.88 -0.71,1.81 -1.18,2.78 -2.95,-0.83 -6.35,-4.96 -5,-9.88 0.13,-2.27 1.71,-3.6 3.41,-4.6 1.32,-1.02 2.85,-1.5 4.25,-1.48 2.62,-0.47 5.11,-0.31 5.88,-0.02 0.64,2.4 0.36,3.24 -3.66,4.25 -0.85,0.78 -1.37,1.87 -1.84,3.24 z" /></g><g
         id="Body_Hoodie"
         clip-path="url(#clipPath11103)"
         transform="translate(0,-2)"><path
           id="Skin-3"
           class="cls-37"
           d="m 1173.02,292.28 13.94,6.85 c 3.51,0.31 6.5,0.93 8.99,1.88 0.62,0.39 1.43,1.25 -0.8,1.47 -2.23,0.22 -4.57,0.55 -4.74,1.35 -0.17,0.8 1.32,1.46 0.88,2.58 -0.29,0.74 -2.52,-0.6 -6.69,-4.03 l -13.12,-2.89 1.55,-7.2 z m -47.37,8.67 8.1,-1.4 c -2.17,16.93 -3.36,25.92 -3.59,26.97 -0.51,2.37 1.98,5.4 3.11,7.06 -2.43,1.64 -2.92,-2.76 -5.98,-0.63 -2.79,1.94 -4.66,4.9 -8.55,3.36 -0.48,-0.19 -1.13,-1.1 -0.12,-2.09 2.51,-2.45 6.01,-6.57 6.37,-7.79 0.49,-1.66 0.71,-10.16 0.66,-25.5 z" /><path
           id="Coat-Back-2"
           class="cls-38"
           d="m 1142.69,263.11 3.25,-1.16 c 14.31,8.49 23.03,28.1 40.17,36.29 l -2.87,5.17 c -26.99,1.4 -37.95,-22.47 -40.55,-40.29 z" /><path
           id="Shirt-2"
           class="cls-30"
           d="m 1135.48,307.55 c 13.43,-2.37 23.3,-4.11 29.63,-5.22 1.35,-0.24 0.76,-2.14 0.39,-3.09 -4.26,-10.93 -15.23,-21.59 -18.07,-37.71 l -8.78,0.17 c -5.07,12.56 -5.06,26.92 -3.16,45.85 z" /><path
           id="Coat-Front-2"
           class="cls-32"
           d="m 1129.93,274.71 c -1.3,-0.14 -2.43,-0.79 -3.39,-1.96 -4.11,-5.06 -3.53,-8.34 -0.37,-9.95 3.16,-1.6 6.5,-0.04 11.82,-0.98 0.29,-0.05 0.56,-0.08 0.8,-0.09 l 2.7,-0.32 c 12.24,24.53 17.4,41.43 15.49,50.69 l -23.32,4.11 c -0.82,3.45 -1.66,6.38 -2.54,8.79 l -6.35,1.12 c -3.99,-19.13 -2.27,-36.27 5.15,-51.42 z" /><path
           id="Shade"
           class="cls-47"
           d="m 1136.41,302.03 c 1.81,5.98 3.78,10.2 5.92,12.66 l -8.65,1.53 c 0.95,-4.02 1.86,-8.75 2.73,-14.19 z" /></g></g><path
       d="m 391.95,131.63 h -38.57 v -27.42 h 110.13 v 27.42 h -39.03 v 121.28 h -32.53 z"
       id="path9099"
       clip-path="none"
       style="fill:#005a9c" /><g
       id="g11527"><path
         id="rect11525"
         class="cls-15"
         style="fill:none"
         d="M 0,0 H 1920.25 V 481.95999 H 0 Z" /></g><path
       d="m 651.47,104.22 h 44.84 l 52.51,148.69 h -34.85 l -8.13,-26.49 h -63.89 l -8.6,26.49 H 598.73 Z M 697.7,202.5 674,129.32 649.84,202.5 Z"
       id="path9101"
       clip-path="none"
       style="fill:#005a9c" /><g
       id="g11521"><path
         id="rect11519"
         class="cls-15"
         style="fill:none"
         d="M 0,0 H 1920.25 V 481.95999 H 0 Z" /></g><g
       id="man-in-white"
       transform="rotate(90,860.21519,162.09274)"
       clip-path="none"><path
         class="cls-42"
         d="m 883.92,226.59 c -1.07,-2.43 -1.49,-5.13 -0.51,-7.73 2.81,-7.5 12.97,-2.65 13.9,1.83 0.93,4.48 -2.23,14.21 -5.12,14.11 -1.15,-0.04 -3.23,-1.39 -5.13,-3.48 l -1.6,10.72 -8.59,-2.55 z"
         id="path9402" /><path
         id="Hair-2"
         class="cls-31"
         d="m 890.35,221.83 c -1.03,4.68 -0.84,7.23 0.57,7.64 2.12,0.63 4.31,-0.18 5.24,0.09 0.68,0.2 0.27,1 -0.36,1.5 -0.52,0.41 -2.47,0.37 -2.71,1.18 -0.24,0.81 1.37,0.6 1.23,1.08 -0.23,0.79 -0.42,2.34 -1.79,1.94 -1.38,-0.41 -5.2,-2.09 -5.27,-4.35 -0.05,-1.46 0.49,-4.29 1.6,-8.49 -0.08,-0.03 -0.16,-0.07 -0.25,-0.09 -1.19,-0.35 -2.43,0.32 -2.78,1.51 -0.18,0.6 -0.09,1.22 0.19,1.73 -0.71,0.55 -1.48,1.12 -2.34,1.69 -1.97,-2.15 -2.5,-6.89 1.05,-10.24 1.24,-1.79 3.02,-2.41 4.89,-2.39 1.58,-0.17 3.05,0.2 4.18,0.91 2.35,0.92 4.28,2.3 4.76,2.91 -0.68,2.28 -1.32,2.83 -5.08,1.65 -1.07,0.21 -2.04,0.85 -3.11,1.73 z" /><path
         id="Leg-5"
         class="cls-35"
         style="fill:#3a2418;fill-rule:evenodd"
         d="m 867.4,268.9 4.36,49.67 0.62,41.08 4.66,1.38 6.34,-87.39 z" /><path
         id="Leg-6"
         class="cls-42"
         d="m 863.86,267.85 c -4.82,15.57 -13.8,35.79 -14.52,36.63 -0.48,0.56 -12.96,5.84 -37.44,15.83 l 2.19,4.38 c 27.36,-6.68 41.85,-10.76 43.47,-12.25 2.43,-2.24 15.13,-25.71 23.8,-39.4 l -17.49,-5.19 z" /><path
         id="shoe-6"
         class="cls-29"
         d="m 811.81,319.04 c -1.19,0.06 -2.04,0.2 -2.54,0.42 -0.62,0.27 -1.47,0.76 -2.57,1.48 0.27,0.63 5.04,15.13 6.57,15.13 1.53,0 4.85,0.15 6.46,0.15 4,0.12 6.02,-1.86 2.05,-3.02 -1.14,-0.33 -2.9,-0.94 -3.11,-1.7 l -1.99,-6.84 c 0,-0.21 -0.16,-0.37 -0.37,-0.38 0,0 0,0 -0.01,0 l -1.65,0.03 c -0.9,-0.8 -1.49,-1.51 -1.76,-2.14 -0.22,-0.51 -0.32,-1.3 -0.3,-2.37 v 0 c 0,-0.41 -0.32,-0.75 -0.73,-0.76 -0.02,0 -0.04,0 -0.05,0 z" /><path
         id="shoe-7"
         class="cls-29"
         d="m 870.99,357.35 c -0.72,0.95 -1.16,1.69 -1.31,2.22 -0.19,0.65 -0.36,1.62 -0.52,2.92 0.75,0.22 7.48,2.22 20.18,5.99 1.04,-1.58 1.01,-2.6 -0.07,-3.08 -1.09,-0.47 -1.99,-0.88 -2.71,-1.21 l -8.14,-6.97 c -0.16,-0.13 -0.39,-0.12 -0.53,0.04 0,0 0,0 0,0 l -1.04,1.28 c -1.19,0.18 -2.11,0.17 -2.77,-0.02 -0.53,-0.16 -1.2,-0.59 -2.01,-1.3 v 0 c -0.31,-0.27 -0.78,-0.24 -1.05,0.07 -0.01,0.01 -0.02,0.03 -0.03,0.04 z" /><path
         id="Pant-5"
         class="cls-43"
         style="fill:#64caee;fill-rule:evenodd"
         d="m 878.83,354.74 6.1,-80.64 -19.81,-5.88 -9.12,82.35 z" /><path
         id="Pant-6"
         class="cls-25"
         d="m 818.11,316.14 9.41,21.48 c 20.24,-12.15 32.38,-20.4 36.42,-24.73 4.05,-4.34 10.42,-17.45 19.12,-39.34 l -22.3,-6.62 c -6.98,19.46 -10.8,29.59 -11.46,30.39 -0.66,0.81 -11.06,7.08 -31.2,18.82 z" /><path
         id="Skin-4"
         class="cls-42"
         d="m 900.02,273.75 7.2,12.9 c 2.58,2.13 4.58,4.24 6.01,6.32 0.27,0.64 0.44,1.75 -1.42,0.72 -1.86,-1.03 -3.87,-2.03 -4.44,-1.49 -0.57,0.54 0.24,1.86 -0.7,2.5 -0.63,0.43 -1.65,-1.83 -3.05,-6.78 l -8.7,-9.34 z m -46.92,-23.67 7.83,2.36 c -11.71,17.56 -17.88,26.75 -18.52,27.55 -1.44,1.81 -0.61,5.45 -0.36,7.35 -2.76,0.37 -1.3,-3.6 -4.81,-3.08 -3.2,0.47 -6.04,2.21 -8.69,-0.76 -0.33,-0.36 -0.49,-1.42 0.78,-1.83 3.17,-1.02 7.9,-3.06 8.72,-3.95 1.12,-1.21 6.14,-10.42 15.05,-27.64 z" /><path
         id="Clothes-Back"
         class="cls-25"
         d="m 883.58,234.95 3.25,0.39 c -0.24,18.68 21.32,37.86 20.94,44.76 -0.14,2.53 -2.19,3.22 -1.53,4.2 l -4.9,1.75 c -0.45,-1 -2.33,0.03 -5.06,-1.89 -2.73,-1.92 -18.77,-28.8 -12.71,-49.2 z" /><path
         id="Clothes-Front"
         class="cls-33"
         d="m 888.1,238.78 c -7.13,22.71 4.33,32.44 -1.32,40.72 -4.67,6.84 -30.3,8.07 -32.12,-0.53 -0.74,-3.48 -0.4,-7.33 0.69,-11.3 -1.93,2.72 -3.51,5.09 -4.76,7.1 -2.15,3.47 -6.32,2.88 -6.76,4.33 L 839,276.08 c 0.94,-1.87 -1.25,-3.57 0.72,-7.78 8.85,-18.88 21.11,-30.82 36.79,-35.84 l 0.71,-1.89 c 0.29,-0.77 1.15,-1.16 1.92,-0.87 l 9.44,3.54 c 0.77,0.29 1.16,1.15 0.87,1.92 l -1.35,3.61 z" /></g><path
       id="rect9263"
       clip-path="none"
       style="fill:#4d4d4d"
       class="cls-67"
       transform="rotate(-11.54)"
       d="m 770.82764,132.40614 h 8.05 v 132.44001 h -8.05 z" /><g
       id="g11101"><path
         id="rect11099"
         class="cls-15"
         style="fill:none"
         d="M 0,0 H 1920.25 V 481.95999 H 0 Z" /></g><path
       d="m 482.56,104.22 h 54.6 c 58.08,0 62.96,30.44 62.96,50.88 0,20.44 -3.02,50.18 -61.1,50.18 h -23.47 v 47.63 h -32.99 z m 55.99,74.81 c 24.4,0 27.88,-13.24 27.88,-23.47 0,-10.23 -3.48,-23.93 -27.88,-23.93 h -23 v 47.4 z"
       id="path9093"
       clip-path="none"
       style="fill:#005a9c" /><g
       id="g11551"><path
         id="rect11549"
         class="cls-15"
         style="fill:none"
         d="M 0,0 H 1920.25 V 481.95999 H 0 Z" /></g><g
       id="g23097"
       transform="rotate(90,408.87515,209.49696)"
       clip-path="none"><g
         id="wrench"><path
           class="cls-49"
           d="m 473.63,27.6 c -23.16,-0.17 -14.46,17.74 -14.46,17.74 l 5.57,0.7 c -3.13,-11.68 4.28,-14.85 8.89,-18.45 z"
           id="path9077"
           clip-path="url(#clipPath11595)" /><path
           class="cls-49"
           d="m 484.66,39.53 c -1.21,23.13 -18.57,13.38 -18.57,13.38 l -0.37,-5.6 c 11.47,3.82 15.08,-3.39 18.94,-7.78 z"
           id="path9079"
           clip-path="url(#clipPath11589)" /><path
           id="rect9081"
           clip-path="url(#clipPath11583)"
           class="cls-49"
           transform="rotate(-43.82)"
           style="fill:#0f7599"
           d="m 227.15367,350.95276 h 70.28 v 11.54 h -70.28 z" /><path
           id="circle9083"
           clip-path="url(#clipPath11577)"
           class="cls-52"
           transform="rotate(-50.48)"
           style="fill:#17b0e5"
           d="m 265.09012,388.66388 a 7.9699998,7.9699998 0 0 1 -7.97,7.97 7.9699998,7.9699998 0 0 1 -7.97,-7.97 7.9699998,7.9699998 0 0 1 7.97,-7.97 7.9699998,7.9699998 0 0 1 7.97,7.97 z" /><path
           id="circle9085"
           clip-path="url(#clipPath11571)"
           class="cls-49"
           style="fill:#0f7599"
           d="m 466.58001,48.959999 a 3.1600001,3.1600001 0 0 1 -3.16,3.16 3.1600001,3.1600001 0 0 1 -3.16,-3.16 3.1600001,3.1600001 0 0 1 3.16,-3.16 3.1600001,3.1600001 0 0 1 3.16,3.16 z" /></g><g
         id="sitting-woman"><path
           id="Skin"
           class="cls-41"
           d="m 483.01,134.02 c -3.06,-18.77 -5.61,-31.19 -7.07,-34.98 -0.96,-2.5 -8.27,-2.21 -7.43,2.82 0.35,2.11 1.75,7.75 3.58,14.17 1.07,3.75 3.73,10.85 7.42,19.01 z"
           clip-path="url(#clipPath11601)" /><path
           id="Leg-Back"
           class="cls-44"
           d="m 466.24,103.41 c -0.22,11.42 8.01,18.06 10.58,27.59 l 6.72,-1 c -0.69,-1.76 -2.79,-25.31 -6.3,-30.13 0,-0.01 -0.02,-0.02 -0.03,-0.04 0,-0.01 0,-0.03 -0.01,-0.04 -0.39,-1.27 -9.43,-4.16 -27.12,-8.67 h -2.18 c 0,0 0,2.03 0,2.03 l 18.29,9.31 c -0.02,0.3 0,0.62 0.05,0.95 z"
           clip-path="url(#clipPath11541)" /><path
           id="shoe"
           class="cls-29"
           d="m 477.85,133.49 c 0.13,-0.29 0.47,-0.42 0.76,-0.28 v 0 c 0.75,0.34 1.34,0.52 1.77,0.52 0.53,0 1.21,-0.2 2.05,-0.59 l 0.48,-1.18 c 0,0 0,0 0,0 0.06,-0.15 0.23,-0.21 0.38,-0.15 l 7.54,3.36 c 0.6,0.09 1.36,0.19 2.26,0.3 0.91,0.11 1.15,0.86 0.73,2.26 -10.21,0 -15.62,0 -16.22,0 -0.17,-1 -0.26,-1.75 -0.26,-2.27 0,-0.43 0.16,-1.07 0.48,-1.93 0,-0.01 0.01,-0.03 0.02,-0.04 z"
           clip-path="url(#clipPath11535)" /><path
           id="Skin-2"
           class="cls-27"
           d="m 461.03,84.92 7.81,-5.98 c 3.9,-0.72 5.71,-1.33 5.42,-1.85 -0.42,-0.77 -1.5,-0.25 -1.87,-0.72 -0.37,-0.47 0.54,-1.94 1.47,-3.29 0.93,-1.35 0.06,-1.3 -0.45,-1.14 -1.7,0.95 -3.46,2.33 -5.29,4.15 l -10.42,4.58 3.33,4.26 z m -52.61,14.32 c -0.56,0.74 -4.04,2.65 -6.39,3.67 -0.94,0.41 -0.74,1.21 -0.46,1.46 2.25,2.08 4.3,0.54 6.72,-0.06 2.65,-0.66 1.82,2.49 3.92,2 -0.33,-1.44 -1.24,-4.17 -0.27,-5.66 0.43,-0.66 3.61,-6.52 9.54,-17.56 l -5.89,-1.17 c -4,10.54 -6.38,16.31 -7.15,17.32 z"
           clip-path="url(#clipPath11493)" /><path
           id="Coat-Back"
           class="cls-39"
           d="m 446.1,88.62 c 4.51,2.73 15.65,-2.05 20.87,-7.7 l -1.76,-3.94 c -5.75,2.06 -10.59,3.59 -14,2.01 -3.61,-1.67 -5.82,-14.3 -11.24,-19.55 l -2.49,0.43 c -0.26,8.82 1.4,24.39 8.62,28.75 z"
           clip-path="url(#clipPath11487)" /><path
           class="cls-41"
           d="m 446.86,131.04 c 0.64,-1.14 8.46,-14.17 13.65,-23.61 2.08,-3.79 -5.71,-6.77 -7.7,-2.71 -0.67,1.37 -1.38,2.83 -2.09,4.34 -2.49,5.27 -6.27,17.25 -7.24,20.75 -0.61,2.2 2.49,2.82 3.38,1.22 z"
           id="path9110"
           clip-path="url(#clipPath11481)" /><path
           id="Leg-Front"
           class="cls-34"
           d="m 443.83,126.29 5.61,3.2 c 3.68,-0.97 4.19,-9.48 16.77,-20.54 0.08,-0.03 0.13,-0.11 0.14,-0.22 2.59,-1.85 4.03,-8.94 -0.54,-10.9 -6.91,-2.97 -20.23,-8.56 -22.8,-9.29 h -15.69 c -1.47,9.95 1.02,14.51 9.53,16 1.32,0.23 14.47,-0.71 15.96,0.19 -7.25,3.34 -8.98,21.57 -8.98,21.57 z"
           clip-path="url(#clipPath11475)" /><path
           id="shoe-3"
           class="cls-29"
           d="m 443.67,126.78 c 0.3,-0.11 0.63,0.04 0.74,0.34 v 0 c 0.29,0.78 0.59,1.31 0.89,1.61 0.37,0.37 1,0.71 1.87,1.03 l 1.17,-0.49 c 0,0 0,0 0,0 0.15,-0.06 0.31,0.02 0.37,0.16 l 2.98,7.7 c 0.36,0.49 0.83,1.09 1.39,1.81 0.57,0.72 0.21,1.42 -1.07,2.12 -7.25,-7.2 -11.08,-11.01 -11.51,-11.43 0.58,-0.83 1.05,-1.43 1.42,-1.79 0.3,-0.3 0.87,-0.65 1.7,-1.03 0.01,0 0.03,-0.01 0.04,-0.02 z"
           clip-path="url(#clipPath11457)" /><path
           class="cls-27"
           d="m 433.54,64.66 h 6.9 c 0,0 -1.17,-8.27 -1.17,-8.27 1.86,1.12 3.69,1.67 4.55,1.44 2.15,-0.56 2.35,-8.44 0.69,-11.54 -1.67,-3.11 -10.24,-4.46 -10.67,1.69 -0.15,2.14 0.75,4.04 2.07,5.6 l -2.38,11.08 z"
           id="path9105"
           clip-path="url(#clipPath11505)" /><path
           id="hair"
           class="cls-31"
           d="m 444.54,44.83 c 0.37,0.84 0.14,1.88 -1.43,1.78 -1.59,1.9 -3.89,3.2 -4.15,3.22 -0.02,0 -1.04,-1.38 -2.01,-0.8 -1.12,0.68 -0.92,1.92 -0.31,2.89 0.32,0.51 0.81,1.27 0,1.86 -1.27,0.92 -4.55,-1.13 -5.1,-2.88 -1.01,-3.25 0.4,-7.68 3.98,-8.33 -0.21,-0.61 -1.07,-0.86 -1.66,-0.98 -1.41,-0.29 -2.89,0.01 -4.28,0.31 -1.7,0.37 -3.42,0.91 -5.17,0.92 -0.9,0 -1.79,-0.17 -2.64,-0.47 -0.88,-0.32 -1.57,-0.82 -2.34,-1.34 -0.73,-0.48 -1.52,-0.38 -2.32,-0.15 -0.83,0.23 -1.62,0.56 -2.38,0.95 -1.63,0.84 -3.13,1.88 -4.87,2.49 -1.3,0.46 -2.66,0.71 -4.04,0.74 -2.39,0.05 -5.26,-0.47 -6.8,-2.48 -1.07,-1.39 -1.07,-3.12 -0.42,-4.69 0.6,-1.46 1.67,-2.5 2.96,-3.36 1.38,-0.92 2.92,-1.61 4.6,-1.74 1.79,-0.14 3.52,0.47 5.04,1.39 1.48,0.9 2.81,1.85 4.56,2.12 1.74,0.27 3.49,0.05 5.15,-0.5 1.75,-0.58 3.42,-1.19 5.28,-1.34 1.73,-0.14 3.55,0.02 5.16,0.71 1.46,0.63 2.61,1.7 3.4,3.08 0.42,0.73 0.72,1.51 0.92,2.33 0.07,0.29 0.14,0.58 0.19,0.87 0.04,0.25 0,0.62 0.13,0.84 0.17,0.27 0.48,0.2 0.77,0.2 0.45,0 2.9,0.1 3.81,0.25 1.26,0.21 3.59,1.27 3.96,2.11 z"
           clip-path="url(#clipPath11499)" /><path
           id="Shirt"
           class="cls-28"
           d="m 434.74,58.34 6.35,1 c 0,12.04 6.55,21.15 8.23,29.61 0.15,0.73 0.33,2.18 -0.67,2.18 -4.7,0 -12.03,0 -22.01,0 1.04,-13.95 2.85,-24.34 8.1,-32.79 z"
           clip-path="url(#clipPath11469)" /><path
           id="Coat-Front"
           class="cls-24"
           d="m 421.75,97.16 h 19.81 c 2.56,-6.46 0.99,-19.4 -4.71,-38.83 h -2.44 c 0,0 -0.07,0 -0.07,0 -14.24,8.77 -22.84,22.37 -25.81,40.8 l 4.61,0.9 c 3.06,-3.56 6.83,-9.39 11.31,-17.48 -1.38,4.87 -2.38,9.87 -2.69,14.6 z"
           clip-path="url(#clipPath11463)" /></g></g><g
       id="charts"
       clip-path="none"><g
         id="freepik--Graphic--inject-6"
         clip-path="url(#clipPath11619)"><path
           class="cls-18"
           d="m 1616.49,253.6 -3.88,8.56 c -1.5,3.32 -0.03,7.22 3.28,8.73 l 81.88,37.16 c 3.32,1.5 7.22,0.03 8.72,-3.29 l 3.88,-8.56 z"
           id="path9029" /><path
           id="rect9031"
           class="cls-18"
           transform="rotate(-65.59,1672.8437,254.20133)"
           style="fill:#596d94"
           d="m 1641.95,202.67 h 61.73 c 3.6564,0 6.6,2.9436 6.6,6.6 v 89.88999 c 0,3.6564 -2.9436,6.6 -6.6,6.6 h -61.73 c -3.6564,0 -6.6,-2.9436 -6.6,-6.6 V 209.27 c 0,-3.6564 2.9436,-6.6 6.6,-6.6 z" /><path
           id="rect9033"
           class="cls-55"
           transform="rotate(-65.59,1672.8437,254.20133)"
           style="isolation:isolate;fill:#fdfcfb"
           d="m 1641.95,202.67 h 61.73 c 3.6564,0 6.6,2.9436 6.6,6.6 v 89.88999 c 0,3.6564 -2.9436,6.6 -6.6,6.6 h -61.73 c -3.6564,0 -6.6,-2.9436 -6.6,-6.6 V 209.27 c 0,-3.6564 2.9436,-6.6 6.6,-6.6 z" /><path
           id="rect9035"
           class="cls-49"
           transform="rotate(-65.59,1635.3857,250.84319)"
           style="fill:#0f7599"
           d="m 1633.1899,246.22 h 4.33 v 9.27 h -4.33 z" /><path
           id="rect9037"
           class="cls-20"
           transform="rotate(-65.59,1649.1158,254.94588)"
           style="fill:#083b4c"
           d="m 1644.98,250.32001 h 8.23 v 9.27 h -8.23 z" /><path
           id="rect9039"
           class="cls-49"
           transform="rotate(-65.59,1662.2817,260.29929)"
           style="fill:#0f7599"
           d="m 1657.58,255.67999 h 9.35 v 9.27 h -9.35 z" /><path
           id="rect9041"
           class="cls-20"
           transform="rotate(-65.59,1676.7,262.89071)"
           style="fill:#083b4c"
           d="m 1668.4,258.26999 h 16.56 v 9.27 h -16.56 z" /><path
           id="rect9043"
           class="cls-49"
           transform="rotate(-65.59,1691.8856,263.78014)"
           style="fill:#0f7599"
           d="m 1678.13,259.16 h 27.47 v 9.27 h -27.47 z" /><path
           id="rect9045"
           class="cls-20"
           transform="rotate(-65.59,1706.747,265.39416)"
           style="fill:#083b4c"
           d="m 1688.3101,260.76999 h 36.82 v 9.27 h -36.82 z" /></g><g
         id="freepik--chart-1--inject-6"
         clip-path="url(#clipPath11613)"><path
           class="cls-18"
           d="m 1698.82,182.19 c -1.89,-5.34 -5.87,-9.68 -11.02,-12.01 l -5.39,11.88 c 2.91,1.32 5.13,3.79 6.15,6.81 l 8.72,-3.28 z"
           id="path9048" /><path
           class="cls-21"
           d="m 1698.82,182.19 c -1.89,-5.34 -5.87,-9.68 -11.02,-12.01 l -5.39,11.88 c 2.91,1.32 5.13,3.79 6.15,6.81 l 8.72,-3.28 z"
           id="path9050" /><path
           class="cls-52"
           d="m 1690.09,185.47 8.72,-3.28 c -1.89,-5.34 -5.87,-9.68 -11.02,-12.01 l -3.85,8.48 c 2.91,1.32 5.13,3.78 6.15,6.81 z"
           id="path9052" /><path
           class="cls-18"
           d="m 1685.88,191.75 c 0.73,2.16 0.81,4.49 0.21,6.7 -3.53,5.3 -10.68,6.74 -15.98,3.21 -4.13,-2.75 -6.04,-7.83 -4.74,-12.62 3.13,-4.71 9.21,-6.45 14.36,-4.11 l 5.39,-11.88 c -10.49,-4.76 -22.85,-0.12 -27.61,10.37 -0.26,0.57 -0.48,1.15 -0.69,1.73 -0.3,0.54 -0.59,1.1 -0.85,1.66 -4.58,10.57 0.28,22.85 10.85,27.43 10.31,4.47 22.31,-0.04 27.13,-10.19 0.26,-0.57 0.51,-1.13 0.69,-1.73 0.31,-0.54 0.59,-1.1 0.85,-1.66 2.24,-4.91 2.48,-10.51 0.66,-15.59 l -8.73,3.29 z"
           id="path9054" /><path
           class="cls-49"
           d="m 1685.88,191.75 c 0.73,2.16 0.81,4.49 0.21,6.7 -3.53,5.3 -10.68,6.74 -15.98,3.21 -4.13,-2.75 -6.04,-7.83 -4.74,-12.62 3.13,-4.71 9.21,-6.45 14.36,-4.11 l 5.39,-11.88 c -10.49,-4.76 -22.85,-0.12 -27.61,10.37 -0.26,0.57 -0.48,1.15 -0.69,1.73 -0.3,0.54 -0.59,1.1 -0.85,1.66 -4.58,10.57 0.28,22.85 10.85,27.43 10.31,4.47 22.31,-0.04 27.13,-10.19 0.26,-0.57 0.51,-1.13 0.69,-1.73 0.31,-0.54 0.59,-1.1 0.85,-1.66 2.24,-4.91 2.48,-10.51 0.66,-15.59 l -8.73,3.29 z"
           id="path9056" /><path
           class="cls-55"
           d="m 1696.15,185.07 -8.72,3.28 c 2.03,6.04 -1.21,12.58 -7.25,14.61 -6.04,2.03 -12.58,-1.21 -14.61,-7.25 -2.03,-6.04 1.21,-12.58 7.25,-14.61 2.77,-0.93 5.8,-0.78 8.46,0.43 v 0 l 3.85,-8.48 v 0 c -10.49,-4.77 -22.86,-0.14 -27.63,10.35 -4.77,10.49 -0.14,22.86 10.35,27.63 10.49,4.77 22.86,0.14 27.63,-10.35 2.24,-4.92 2.48,-10.52 0.67,-15.62 v 0 z"
           id="path9058" /><path
           class="cls-66"
           d="m 1665.01,253.69 v 0 c -0.23,-0.1 -0.34,-0.37 -0.24,-0.61 0,0 0,0 0,-0.01 l 3.03,-6.68 c 0.33,-0.73 0.36,-1.56 0.08,-2.31 L 1661.46,227 c -0.37,-0.98 -0.34,-2.07 0.09,-3.02 l 2.92,-6.44 c 0.11,-0.23 0.38,-0.33 0.62,-0.23 v 0 c 0.23,0.11 0.34,0.38 0.23,0.62 l -2.92,6.44 c -0.33,0.73 -0.36,1.56 -0.07,2.31 l 6.42,17.08 c 0.37,0.98 0.33,2.07 -0.1,3.02 l -3.04,6.7 c -0.11,0.22 -0.38,0.32 -0.61,0.21 z"
           id="path9060" /></g><g
         id="freepik--chart-2--inject-6"
         clip-path="url(#clipPath11607)"><path
           class="cls-49"
           d="m 1733.47,222.2 -5.42,-7.58 c -5.02,3.92 -12.27,3.03 -16.19,-1.99 -2.24,-2.87 -2.99,-6.63 -2.03,-10.14 1.98,-2.94 5.2,-4.82 8.73,-5.09 l 1.54,-3.39 -0.9,-9.27 c -7.52,0.63 -14.11,5.28 -17.23,12.16 -0.26,0.57 -0.49,1.14 -0.69,1.73 -0.3,0.54 -0.59,1.1 -0.85,1.66 -4.74,10.5 -0.08,22.85 10.42,27.59 6.92,3.12 14.99,2.24 21.07,-2.3 l 1.55,-3.37 z"
           id="path9063" /><path
           class="cls-55"
           d="m 1716.17,216.06 c -5.8,-2.64 -8.37,-9.48 -5.73,-15.29 1.75,-3.84 5.45,-6.42 9.65,-6.74 l -0.9,-9.27 c -11.47,0.97 -19.99,11.06 -19.02,22.53 0.97,11.47 11.06,19.99 22.53,19.02 3.9,-0.33 7.64,-1.75 10.77,-4.11 l -5.42,-7.58 c -3.38,2.65 -7.96,3.21 -11.87,1.44 z"
           id="path9065" /><path
           class="cls-66"
           d="m 1729.79,216.8 5.42,7.58 c 2.8,-2.1 5.03,-4.87 6.48,-8.06 0.26,-0.57 0.48,-1.15 0.69,-1.74 0.31,-0.54 0.6,-1.09 0.85,-1.66 4.76,-10.49 0.11,-22.85 -10.37,-27.61 -3.25,-1.48 -6.83,-2.09 -10.39,-1.79 l -1.54,3.39 0.9,9.27 c 6.35,-0.48 11.88,4.28 12.36,10.63 0.1,1.32 -0.03,2.65 -0.38,3.93 -0.68,1.02 -1.52,1.92 -2.49,2.68 l -1.53,3.36 z"
           id="path9067" /><path
           class="cls-50"
           d="m 1729.79,216.8 5.42,7.58 c 2.8,-2.1 5.03,-4.87 6.48,-8.06 0.26,-0.57 0.48,-1.15 0.69,-1.74 0.31,-0.54 0.6,-1.09 0.85,-1.66 4.76,-10.49 0.11,-22.85 -10.37,-27.61 -3.25,-1.48 -6.83,-2.09 -10.39,-1.79 l -1.54,3.39 0.9,9.27 c 6.35,-0.48 11.88,4.28 12.36,10.63 0.1,1.32 -0.03,2.65 -0.38,3.93 -0.68,1.02 -1.52,1.92 -2.49,2.68 l -1.53,3.36 z"
           id="path9069" /><path
           class="cls-52"
           d="m 1732.85,185.33 c -3.25,-1.48 -6.82,-2.1 -10.37,-1.79 l 0.9,9.27 c 6.36,-0.47 11.89,4.29 12.36,10.65 0.29,3.85 -1.37,7.59 -4.42,9.96 l 5.42,7.58 c 9.21,-6.91 11.08,-19.98 4.17,-29.19 -2.1,-2.8 -4.88,-5.03 -8.07,-6.48 v 0 z"
           id="path9071" /><path
           class="cls-66"
           d="m 1681.09,253.13 v 0 c -0.23,-0.11 -0.33,-0.38 -0.23,-0.62 l 2.27,-4.99 c 0.43,-0.95 1.23,-1.7 2.21,-2.06 l 17.08,-6.41 c 0.75,-0.28 1.36,-0.85 1.69,-1.58 l 3.18,-7.01 c 0.11,-0.23 0.38,-0.33 0.62,-0.23 v 0 c 0.23,0.11 0.33,0.38 0.23,0.62 l -3.18,7.01 c -0.43,0.95 -1.23,1.7 -2.21,2.07 l -17.08,6.41 c -0.75,0.28 -1.36,0.85 -1.69,1.58 l -2.27,4.99 c -0.11,0.23 -0.38,0.34 -0.62,0.23 v 0 z"
           id="path9073" /></g></g><g
       id="g23195"
       transform="rotate(90,1435.3736,430.05386)"
       clip-path="none"><g
         id="humaaans_standing-3"
         clip-path="url(#clipPath11235)"
         transform="translate(0,-2)"><g
           id="humaaan-12"><g
             id="Bottom_Standing_Sweatpants"><path
               id="Leg"
               class="cls-40"
               style="fill:#b38c76;fill-rule:evenodd"
               d="m 1340.49,387.93 h 6.7 l 6.68,-36.73 14.19,-48.91 h -20.88 z" /><path
               id="Leg-2"
               class="cls-45"
               d="m 1349.76,302.29 c 5.62,24.31 9.46,38.17 10.77,41.58 1.3,3.41 5.27,18.87 16.62,44.83 h 6.97 c -8.57,-27.06 -9.83,-42.52 -10.05,-44.83 -0.22,-2.31 -0.61,-16.17 0.38,-41.58 h -24.68 z" /><path
               id="Pant"
               class="cls-38"
               d="m 1347.1,302.29 c -5.33,17.79 -8.41,42.72 -7.69,80.6 h 9.8 c 9.08,-36.9 15.46,-63.77 19.16,-80.6 z" /><path
               id="Pant-2"
               class="cls-32"
               d="m 1348.26,302.29 c 5.57,30.51 13.73,55.42 25.1,80.99 h 10.46 c -7.79,-30.55 -10.3,-55.58 -9.33,-80.99 z" /><g
               id="Accessories_Shoe_Flat-Simple"><path
                 id="Shoe"
                 class="cls-31"
                 d="m 1384.34,394.9 h -8.08 c 0,0 -13.84,0 -13.84,0 l -0.53,-1.87 c 0,0 -0.01,-0.05 -0.02,-0.08 -0.07,-0.42 0.21,-0.82 0.63,-0.89 v 0 c 5.53,-0.94 10.12,-2.71 13.76,-5.29 3.39,1.18 6.21,1.43 8.46,0.77 l 0.38,6.2 -0.77,1.16 z" /></g><g
               id="Accessories_Shoe_Flat-Simple-2"><path
                 id="Shoe-2"
                 class="cls-31"
                 d="m 1347.92,394.9 h -8.08 c 0,0 -13.84,0 -13.84,0 l -0.53,-1.87 c 0,0 -0.01,-0.05 -0.02,-0.08 -0.07,-0.42 0.21,-0.82 0.63,-0.89 v 0 c 5.53,-0.94 10.12,-2.71 13.76,-5.29 3.39,1.18 6.21,1.43 8.46,0.77 l 0.38,6.2 -0.77,1.16 z" /></g></g></g></g><g
         id="Head_Front_Pony"
         clip-path="url(#clipPath11001)"
         transform="translate(0,-2)"><g
           id="Head-2"><path
             class="cls-45"
             d="m 1356.6,268.04 -8.98,2.41 -1.36,-11.17 c -2.03,2.11 -4.22,3.45 -5.42,3.47 -3,0.03 -6,-10.16 -4.92,-14.78 1.09,-4.62 11.76,-9.37 14.47,-1.51 0.94,2.73 0.44,5.52 -0.74,8.01 l 6.95,13.58 z"
             id="path9295" /></g><path
           id="hair-2"
           class="cls-31"
           d="m 1347.77,251.55 c -0.31,-1.16 -1.52,-2 -2.85,-1.64 -0.47,0.13 -0.87,0.52 -1.1,1.03 -0.33,-0.68 -0.59,-1.37 -0.77,-2.03 -0.2,-0.75 -0.3,-1.44 -0.3,-2.07 -1.64,0.32 -3.16,0.46 -4.38,0.41 -2,0.42 -4.01,-0.79 -4.54,-2.79 -0.55,-2.07 0.67,-4.19 2.74,-4.75 2.06,-0.55 4.18,0.67 4.74,2.73 0.39,-0.11 0.79,-0.21 1.2,-0.31 2.21,-0.51 4.26,-0.68 5.75,-0.55 0.28,0.01 0.55,0.05 0.83,0.12 0.45,0.09 0.81,0.23 1.07,0.4 1.02,0.51 1.98,1.38 2.75,2.51 1.94,-1.74 4.33,-3.21 9.62,-4.63 7.78,-2.08 8.58,9.74 3.01,11.23 -4.09,1.1 -7.6,-2.45 -11.26,-3.74 0.04,0.14 0.09,0.29 0.13,0.44 1.13,4.2 0.09,8.67 -2.83,9.45 -1.54,0.41 -3.51,-0.78 -5.2,-2.62 1.21,-0.42 1.78,-1.71 1.38,-3.17 z" /></g><g
         id="Body_Pointing-Forward"
         transform="translate(0,-2)"><path
           id="Skin-5"
           class="cls-45"
           d="m 1336.37,286.62 -11.18,-7.11 c -5.32,-0.5 -7.82,-1.12 -7.5,-1.84 0.48,-1.09 1.98,-0.51 2.42,-1.19 0.44,-0.68 -0.96,-2.54 -2.36,-4.25 -1.4,-1.71 -0.23,-1.74 0.47,-1.59 2.39,1.07 4.92,2.72 7.58,4.95 l 14.52,4.92 -3.97,6.11 z m -15,9.56 c -2.83,-1.37 -5.38,-2.17 -7.65,-2.39 -4.34,-0.42 -6.16,-1.01 -8.64,-3.23 -1.32,-1.19 -2.73,-3.79 -1.86,-4.88 0.59,-0.73 5.15,1.56 6.87,1.61 1.71,0.05 -0.5,-3.61 0.45,-3.36 1.14,-0.18 2.39,1.21 3.75,4.17 l 6.38,2.17 0.7,5.9 z" /><path
           id="Sleeve"
           class="cls-43"
           d="m 1344.56,287.01 c -5.57,1.14 -12.63,-1.44 -17.98,-5.16 l 1.57,-6.24 c 7.34,3.03 13.7,2.92 18.35,2.15 3.76,2.61 2.45,8.35 -1.94,9.25 z" /><path
           id="Clothes"
           class="cls-25"
           d="m 1343.61,263.14 10.59,-1.87 c 1.16,-0.2 11.72,13.53 13.46,23.36 1.59,8.97 10.94,13.2 9.1,27.99 -7.14,-0.14 -26.43,10.37 -31.25,3.54 -2.34,-3.32 -3.55,-7.2 -4.06,-11.4 -7.05,1.09 -15.98,0.27 -26.84,-3.17 -0.66,-2.5 -0.08,-6.97 1.74,-13.43 12.32,2.08 20.83,2.07 25.54,-0.02 0.97,-8.6 2.45,-17.39 1.71,-25 z" /></g></g><g
       id="g24277"
       transform="matrix(0,3.866738,-3.866738,0,2149.566,147.19829)"
       clip-path="none"><path
         id="circle6968"
         style="fill:#005a9c;stroke-width:0.55814"
         d="M 48,24 A 24,24 0 0 1 24,48 24,24 0 0 1 0,24 24,24 0 0 1 24,0 24,24 0 0 1 48,24 Z" /><g
         id="g9076"
         transform="translate(-0.03522852,0.21539809)"><path
           d="m 5.599395,15.631212 5.319768,17.955305 h 0.221294 L 14.465311,22.4597 17.791256,33.586517 h 0.221294 l 3.986555,-13.454215 c 0.761378,-2.569452 0.383614,-2.284884 2.655523,-2.284884 h 1.87391 l -3.704216,6.429507 h 1.486919 c 0.960897,0 1.972622,0.346735 2.505087,1.04106 0.0746,0.09634 0.141627,0.201197 0.203852,0.310683 0.01442,0.02522 0.02766,0.05148 0.04142,0.0774 0.05856,0.110844 0.11325,0.225596 0.160247,0.348837 0.186809,0.490155 0.28125,1.079031 0.28125,1.768169 0,0.975627 -0.214517,1.810203 -0.643168,2.505087 -0.116363,0.188483 -0.240129,0.348875 -0.37064,0.486192 -0.08348,0.08783 -0.170291,0.164027 -0.259448,0.231104 -0.0075,0.0056 -0.01535,0.01089 -0.02289,0.01635 -0.0909,0.06626 -0.183338,0.12309 -0.28016,0.167878 -0.08825,0.04082 -0.180399,0.06977 -0.273619,0.09266 -0.02381,0.0058 -0.04782,0.01063 -0.07195,0.01526 -0.09589,0.01857 -0.193252,0.03161 -0.294331,0.03161 -0.0045,0 -0.0086,-0.0011 -0.01308,-0.0011 -0.0045,-2.3e-5 -0.0086,-0.0011 -0.01308,-0.0011 -0.0023,-2.2e-5 -0.0044,-8.37e-4 -0.0065,-0.0011 -0.0052,-6.6e-5 -0.01004,-0.001 -0.01526,-0.0011 -0.13294,-0.0024 -0.263046,-0.0125 -0.388081,-0.03488 -7.25e-4,-1.26e-4 -0.0015,1.27e-4 -0.0022,0 -0.03421,-0.0062 -0.06558,-0.0196 -0.0992,-0.02725 -0.007,-0.0016 -0.01391,-0.0033 -0.02071,-0.0055 -0.0085,-0.0021 -0.01658,-0.0055 -0.02507,-0.0076 -0.0853,-0.01979 -0.170964,-0.03887 -0.251817,-0.06977 -0.127419,-0.04869 -0.249544,-0.109174 -0.367369,-0.182049 -0.117827,-0.07275 -0.230881,-0.157755 -0.339028,-0.254962 -0.231205,-0.251209 -0.40531,-0.536767 -0.589753,-0.815408 h -2.263081 c 0.153426,0.455992 0.344038,0.868463 0.563589,1.247093 l -0.0065,0.01199 c 0.02374,0.04289 0.05553,0.08304 0.08176,0.125364 0.156296,0.253884 0.324615,0.494658 0.512354,0.711845 0.167203,0.19343 0.346378,0.371966 0.538518,0.536338 0.09559,0.08183 0.193502,0.158355 0.293241,0.230014 0,0 0.0011,0.0011 0.0011,0.0011 0.09934,0.07132 0.20069,0.137176 0.304143,0.198401 0.06421,0.038 0.130427,0.07054 0.196221,0.104651 0.0088,0.0046 0.01734,0.0097 0.02616,0.01417 0.03182,0.01749 0.06335,0.03575 0.09593,0.05124 10e-4,4.85e-4 0.0022,6.14e-4 0.0033,0.0011 0.107105,0.05078 0.215805,0.09663 0.327035,0.137354 0.0015,5.58e-4 0.0028,0.0016 0.0044,0.0022 0,0 0.0011,0 0.0011,0 0.110395,0.04028 0.222455,0.07532 0.336847,0.105741 0.0022,6.14e-4 0.0043,0.0016 0.0065,0.0022 0,0 0.0011,0 0.0011,0 0.113844,0.03004 0.229955,0.05493 0.347747,0.07522 0.0028,4.92e-4 0.0059,6.14e-4 0.0087,0.0011 0.105189,0.01779 0.212152,0.03023 0.320493,0.04034 0.0026,2.41e-4 0.005,8.37e-4 0.0076,0.0011 0.004,7.81e-4 0.0079,0.0018 0.01199,0.0022 0.0061,0.0011 0.01226,0.0016 0.01853,0.0022 0,0 0.0011,0 0.0011,0 0.003,2.48e-4 0.0058,8.37e-4 0.0087,0.0011 0,0 0.0011,0 0.0011,0 0.06527,0.0054 0.132879,0.0051 0.199492,0.0076 0.01384,5.33e-4 0.02754,0.0018 0.04142,0.0022 0.0087,4.71e-4 0.01738,8.93e-4 0.02616,0.0011 0.03363,0.002 0.06713,0.0043 0.101381,0.0044 0.0044,1.2e-5 0.0087,0 0.01308,0 0.09948,0 0.194243,-0.0095 0.291061,-0.01526 v -0.0055 c 0.104152,-0.0075 0.211123,-0.0087 0.312863,-0.0218 0.01428,-0.002 0.02829,-0.0044 0.04251,-0.0065 0.191028,-0.02662 0.376075,-0.06687 0.55596,-0.117732 0.838599,-0.237107 1.558967,-0.73125 2.15516,-1.49564 0.864558,-1.108465 1.297238,-2.475156 1.297238,-4.101017 0,-1.314977 -0.296285,-2.459887 -0.887355,-3.434956 -0.44888,-0.740505 -1.05984,-1.305715 -1.832485,-1.697311 -0.02394,-0.01214 -0.0499,-0.02199 -0.07413,-0.03379 -0.09981,-0.04856 -0.200152,-0.09665 -0.305233,-0.139535 -0.130318,-0.05344 -0.264476,-0.102581 -0.403343,-0.147166 1.297543,-2.246803 2.617837,-4.480608 3.894986,-6.739099 h -7.000868 c -2.022864,0 -2.429475,0.344732 -3.131904,2.732922 l -2.410247,8.195379 -3.214753,-10.928416 h -2.326308 l 0.531977,1.785611 c 0.443165,1.487054 0.403811,2.217053 -0.01199,3.624636 L 11.140366,26.559752 7.926703,15.631336 Z"
           style="fill:#fcfeff;stroke-width:0.55814"
           id="path6970" /><path
           d="m 41.815814,15.631256 c -0.457117,0 -0.867349,0.164651 -1.178233,0.480558 -0.32986,0.334884 -0.513488,0.768 -0.513488,1.215628 0,0.447628 0.174697,0.862325 0.495069,1.187721 0.325396,0.32986 0.744559,0.509023 1.19721,0.509023 0.442604,0 0.871814,-0.179163 1.206139,-0.504 0.320372,-0.310884 0.49507,-0.725582 0.49507,-1.192186 0,-0.452651 -0.179163,-0.876279 -0.490046,-1.192186 -0.325954,-0.330419 -0.75014,-0.504558 -1.211721,-0.504558 z m 1.475162,1.710697 c 0,0.391256 -0.151255,0.754047 -0.428651,1.022512 -0.292465,0.282977 -0.655256,0.433674 -1.056,0.433674 -0.376744,0 -0.749023,-0.155162 -1.026977,-0.438139 -0.277953,-0.282977 -0.433674,-0.645768 -0.433674,-1.032 0,-0.386233 0.160186,-0.763535 0.447628,-1.055442 0.268465,-0.273488 0.631256,-0.419163 1.026977,-0.419163 0.405209,0 0.768,0.151256 1.050976,0.43814 0.273489,0.27293 0.419721,0.640186 0.419721,1.050418 z m -1.428279,-1.008558 h -0.725581 v 1.922791 h 0.362791 v -0.819907 h 0.358325 l 0.391256,0.819907 h 0.405209 l -0.429209,-0.876279 c 0.277953,-0.05693 0.43814,-0.245023 0.43814,-0.518512 0,-0.348837 -0.263442,-0.528 -0.800931,-0.528 z m -0.06586,0.235535 c 0.339349,0 0.494511,0.09433 0.494511,0.329861 0,0.226046 -0.155162,0.306418 -0.485581,0.306418 H 41.499348 V 16.56893 Z"
           style="fill:#fdfeff;stroke-width:0.55814"
           id="path6972" /><path
           d="m 38.962046,15.530232 0.377302,2.292279 -1.334511,2.553489 c 0,0 -0.512372,-1.083349 -1.363535,-1.682791 -0.717209,-0.505116 -1.184372,-0.61507 -1.914977,-0.464372 -0.938232,0.193674 -2.002046,1.315535 -2.466418,2.698605 -0.555349,1.654883 -0.560931,2.455814 -0.580465,3.191442 -0.03126,1.179348 0.154604,1.876465 0.154604,1.876465 0,0 -0.810418,-1.499163 -0.802604,-3.694884 0.005,-1.567256 0.251721,-2.988279 0.976744,-4.390884 0.637953,-1.23293 1.586232,-1.973023 2.427907,-2.060093 0.870139,-0.08986 1.557767,0.329303 2.089116,0.78307 0.55814,0.476651 1.12186,1.518698 1.12186,1.518698 z"
           style="fill:#ffffff;stroke-width:0.55814"
           id="path6974" /><path
           d="m 39.126697,28.500279 c 0,0 -0.589953,1.054325 -0.957209,1.460651 -0.367814,0.406326 -1.025302,1.12186 -1.837395,1.479628 -0.812093,0.357767 -1.237954,0.425302 -2.040558,0.348279 -0.802047,-0.07702 -1.547163,-0.541395 -1.808372,-0.73507 -0.26121,-0.193674 -0.928745,-0.764093 -1.306047,-1.296 -0.377302,-0.531907 -0.967256,-1.595721 -0.967256,-1.595721 0,0 0.328744,1.066047 0.534698,1.518698 0.118325,0.260651 0.482232,1.057116 0.998511,1.750325 0.481675,0.646884 1.417117,1.760373 2.838698,2.011535 1.421582,0.251721 2.398326,-0.38679 2.64,-0.541395 0.241675,-0.154605 0.751256,-0.581581 1.073861,-0.926512 0.336558,-0.36 0.655255,-0.819348 0.831627,-1.095069 0.128931,-0.200931 0.338791,-0.609489 0.338791,-0.609489 z"
           style="fill:#ffffff;stroke-width:0.55814"
           id="path6976" /></g></g><g
       id="g6412"
       transform="matrix(0,6.25,-6.25,0,2134.0074,90)"
       style="display:none"><path
         id="circle7117"
         style="fill:url(#white-gray);stroke-width:0.55814"
         d="M 48,24 A 24,24 0 0 1 24,48 24,24 0 0 1 0,24 24,24 0 0 1 24,0 24,24 0 0 1 48,24 Z" /><g
         id="W3C-8"
         clip-path="url(#clipPath1)"
         transform="matrix(0.55813953,0,0,0.55813953,0.19660984,-0.1194995)"><path
           id="path7121-6"
           fill="#005a9c"
           transform="translate(10,27)"
           d="M 0.03225,1.005922 9.5635,33.175844 H 9.959985 L 15.917016,13.240297 21.876,33.175844 h 0.396485 L 29.415063,9.070375 c 1.364136,-4.603602 0.687308,-4.09375 4.757812,-4.09375 h 3.357422 l -6.636719,11.519532 h 2.664063 c 1.721607,0 3.534281,0.621234 4.488281,1.865234 0.133648,0.172602 0.253747,0.360478 0.365234,0.55664 0.02583,0.04519 0.04955,0.09224 0.07422,0.138672 0.104919,0.198597 0.202906,0.404193 0.28711,0.625 0.334699,0.878194 0.503906,1.933265 0.503906,3.167969 0,1.748 -0.384344,3.243281 -1.152344,4.488281 -0.208483,0.337699 -0.430231,0.625068 -0.664062,0.871094 -0.149564,0.157361 -0.305105,0.293883 -0.464844,0.414063 -0.01343,0.01005 -0.02751,0.01951 -0.04102,0.0293 -0.16287,0.11871 -0.328479,0.220536 -0.501953,0.300781 -0.158112,0.07314 -0.323214,0.125 -0.490234,0.166015 -0.04266,0.01039 -0.08568,0.01904 -0.128907,0.02734 -0.171803,0.03328 -0.346243,0.05664 -0.527343,0.05664 -0.0081,0 -0.01537,-0.0019 -0.02344,-0.002 -0.0081,-4.1e-5 -0.01539,-0.0019 -0.02344,-0.002 -0.0041,-3.9e-5 -0.0078,-0.0015 -0.01172,-0.002 -0.0094,-1.18e-4 -0.01799,-0.0018 -0.02734,-0.002 -0.238184,-0.0043 -0.471291,-0.0224 -0.695312,-0.0625 -0.0013,-2.26e-4 -0.0027,2.27e-4 -0.0039,0 -0.06129,-0.01103 -0.117505,-0.03511 -0.177734,-0.04883 -0.01254,-0.0028 -0.02493,-0.0059 -0.03711,-0.0098 -0.01528,-0.0037 -0.02971,-0.0098 -0.04492,-0.01367 -0.152838,-0.03546 -0.306311,-0.06965 -0.451172,-0.125 -0.228292,-0.08723 -0.447099,-0.195603 -0.658203,-0.326172 -0.211107,-0.130346 -0.413662,-0.282644 -0.607425,-0.456807 -0.414242,-0.450082 -0.72618,-0.961707 -1.056641,-1.460938 h -4.054687 c 0.274888,0.816985 0.616402,1.555996 1.009765,2.234375 l -0.01172,0.02148 c 0.04254,0.07684 0.09949,0.148778 0.146484,0.22461 0.280031,0.454876 0.581602,0.886262 0.917969,1.27539 0.299571,0.346562 0.620593,0.666438 0.964844,0.960938 0.171266,0.146622 0.346692,0.28372 0.52539,0.412109 0,0 0.002,0.002 0.002,0.002 0.177989,0.127783 0.35957,0.245774 0.544922,0.355469 0.115046,0.06809 0.233683,0.126384 0.351563,0.1875 0.01577,0.0082 0.03106,0.01734 0.04687,0.02539 0.05701,0.03134 0.113495,0.06405 0.171875,0.0918 0.0018,8.68e-4 0.004,0.0011 0.0059,0.002 0.191896,0.09099 0.386651,0.17313 0.585937,0.246093 0.0027,10e-4 0.0051,0.0029 0.0078,0.0039 0,0 0.002,0 0.002,0 0.19779,0.07217 0.398564,0.134947 0.603516,0.189453 0.004,0.0011 0.0077,0.0029 0.01172,0.0039 0,0 0.002,0 0.002,0 0.20397,0.05382 0.412003,0.09842 0.623046,0.134766 0.0051,8.82e-4 0.01049,0.0011 0.01563,0.002 0.188465,0.03187 0.380106,0.05416 0.574218,0.07227 0.0046,4.32e-4 0.009,0.0015 0.01367,0.002 0.0071,0.0014 0.01417,0.0032 0.02148,0.0039 0.01093,0.0019 0.02197,0.0029 0.0332,0.0039 0,0 0.002,0 0.002,0 0.0053,4.46e-4 0.01031,0.0015 0.01563,0.002 0,0 0.002,0 0.002,0 0.116936,0.0096 0.238074,0.0091 0.357422,0.01367 0.02479,9.55e-4 0.04934,0.0032 0.07422,0.0039 0.0156,8.44e-4 0.03113,0.0016 0.04687,0.002 0.06026,0.0036 0.120272,0.0077 0.181641,0.0078 0.0079,2.2e-5 0.0155,0 0.02344,0 0.178244,0 0.34802,-0.01694 0.521484,-0.02734 v -0.0098 c 0.186606,-0.01341 0.378263,-0.0155 0.560547,-0.03906 0.02559,-0.0035 0.05069,-0.0079 0.07617,-0.01172 0.342257,-0.04769 0.6738,-0.119812 0.996094,-0.210937 1.50249,-0.424817 2.793149,-1.310157 3.861328,-2.679688 1.549,-1.986 2.324218,-4.434656 2.324218,-7.347656 0,-2.356 -0.530843,-4.407297 -1.589843,-6.154297 -0.804245,-1.326738 -1.898881,-2.339405 -3.283203,-3.041015 -0.04289,-0.02175 -0.08941,-0.03939 -0.132813,-0.06055 -0.178828,-0.087 -0.358606,-0.17317 -0.546875,-0.25 -0.233487,-0.09575 -0.473854,-0.183791 -0.722656,-0.263672 C 39.695157,9.054825 42.060685,5.05259 44.348909,1.006128 H 31.805688 c -3.624299,0 -4.352809,0.617645 -5.611329,4.896485 L 21.876,20.586 16.116235,1.005922 h -4.167969 l 0.953125,3.199219 c 0.794004,2.664306 0.723496,3.97222 -0.02148,6.49414 L 9.959985,20.586 4.202172,1.005922 Z" /><path
           id="path7123-8"
           transform="translate(10,27)"
           d="m 64.92,1.006 c -0.819,0 -1.554,0.295 -2.111,0.861 -0.591,0.6 -0.92,1.376 -0.92,2.178 0,0.802 0.313,1.545 0.887,2.128 0.583,0.591 1.334,0.912 2.145,0.912 0.793,0 1.562,-0.321 2.161,-0.903 0.574,-0.557 0.887,-1.3 0.887,-2.136 0,-0.811 -0.321,-1.57 -0.878,-2.136 C 66.507,1.318 65.747,1.006 64.92,1.006 Z m 2.643,3.065 c 0,0.701 -0.271,1.351 -0.768,1.832 -0.524,0.507 -1.174,0.777 -1.892,0.777 -0.675,0 -1.342,-0.278 -1.84,-0.785 -0.498,-0.507 -0.777,-1.157 -0.777,-1.849 0,-0.692 0.287,-1.368 0.802,-1.891 0.481,-0.49 1.131,-0.751 1.84,-0.751 0.726,0 1.376,0.271 1.883,0.785 0.49,0.489 0.752,1.147 0.752,1.882 z M 65.004,2.264 h -1.3 v 3.445 h 0.65 V 4.24 h 0.642 l 0.701,1.469 h 0.726 L 65.654,4.139 C 66.152,4.037 66.439,3.7 66.439,3.21 c 0,-0.625 -0.472,-0.946 -1.435,-0.946 z m -0.118,0.422 c 0.608,0 0.886,0.169 0.886,0.591 0,0.405 -0.278,0.549 -0.87,0.549 h -0.549 v -1.14 z" /><path
           id="path7125-3"
           transform="translate(10,27)"
           d="m 59.807,0.825 0.676,4.107 -2.391,4.575 c 0,0 -0.918,-1.941 -2.443,-3.015 C 54.364,5.587 53.527,5.39 52.218,5.66 c -1.681,0.347 -3.587,2.357 -4.419,4.835 -0.995,2.965 -1.005,4.4 -1.04,5.718 -0.056,2.113 0.277,3.362 0.277,3.362 0,0 -1.452,-2.686 -1.438,-6.62 0.009,-2.808 0.451,-5.354 1.75,-7.867 1.143,-2.209 2.842,-3.535 4.35,-3.691 1.559,-0.161 2.791,0.59 3.743,1.403 1,0.854 2.01,2.721 2.01,2.721 z" /><path
           id="path7127-8"
           transform="translate(10,27)"
           d="m 60.102,24.063 c 0,0 -1.057,1.889 -1.715,2.617 -0.659,0.728 -1.837,2.01 -3.292,2.651 -1.455,0.641 -2.218,0.762 -3.656,0.624 -1.437,-0.138 -2.772,-0.97 -3.24,-1.317 -0.468,-0.347 -1.664,-1.369 -2.34,-2.322 -0.676,-0.953 -1.733,-2.859 -1.733,-2.859 0,0 0.589,1.91 0.958,2.721 0.212,0.467 0.864,1.894 1.789,3.136 0.863,1.159 2.539,3.154 5.086,3.604 2.547,0.451 4.297,-0.693 4.73,-0.97 0.433,-0.277 1.346,-1.042 1.924,-1.66 0.603,-0.645 1.174,-1.468 1.49,-1.962 0.231,-0.36 0.607,-1.092 0.607,-1.092 z" /></g></g></g></svg>
