<?xml version="1.0" encoding="UTF-8"?><svg xmlns="http://www.w3.org/2000/svg" xmlns:xlink="http://www.w3.org/1999/xlink" fill-opacity="1" color-rendering="auto" color-interpolation="auto" text-rendering="auto" stroke="black" stroke-linecap="square" width="1172" stroke-miterlimit="10" shape-rendering="auto" stroke-opacity="1" fill="black" stroke-dasharray="none" font-weight="normal" stroke-width="1" height="351" font-family="'Dialog'" font-style="normal" stroke-linejoin="miter" font-size="12px" stroke-dashoffset="0" image-rendering="auto">
  <!--Generated by ySVG 2.5-->
  <defs id="genericDefs"/>
  <g>
    <defs id="defs1">
      <clipPath clipPathUnits="userSpaceOnUse" id="clipPath1">
        <path d="M0 0 L1172 0 L1172 351 L0 351 L0 0 Z"/>
      </clipPath>
      <clipPath clipPathUnits="userSpaceOnUse" id="clipPath2">
        <path d="M79 123 L1251 123 L1251 474 L79 474 L79 123 Z"/>
      </clipPath>
    </defs>
    <g fill="white" text-rendering="geometricPrecision" shape-rendering="geometricPrecision" transform="translate(-79,-123)" stroke="white">
      <rect x="79" width="1172" height="351" y="123" clip-path="url(#clipPath2)" stroke="none"/>
    </g>
    <g fill="white" text-rendering="geometricPrecision" shape-rendering="geometricPrecision" transform="matrix(1,0,0,1,-79,-123)" stroke="white">
      <rect x="94" width="556" height="321" y="138" clip-path="url(#clipPath2)" stroke="none"/>
    </g>
    <g text-rendering="geometricPrecision" stroke-miterlimit="1.45" shape-rendering="geometricPrecision" transform="matrix(1,0,0,1,-79,-123)" stroke-linecap="butt">
      <rect fill="none" x="94" width="556" height="321" y="138" clip-path="url(#clipPath2)"/>
      <text x="351.0029" font-size="18px" y="449.0449" clip-path="url(#clipPath2)" font-family="sans-serif" stroke="none" font-weight="bold" xml:space="preserve">PWA</text>
    </g>
    <g fill="rgb(214,239,55)" text-rendering="geometricPrecision" shape-rendering="geometricPrecision" transform="matrix(1,0,0,1,-79,-123)" stroke="rgb(214,239,55)">
      <rect x="113" y="177" clip-path="url(#clipPath2)" width="125" rx="4" ry="4" height="49" stroke="none"/>
    </g>
    <g stroke-linecap="butt" transform="matrix(1,0,0,1,-79,-123)" fill="rgb(0,102,102)" text-rendering="geometricPrecision" shape-rendering="geometricPrecision" stroke="rgb(0,102,102)" stroke-width="3" stroke-miterlimit="1.45">
      <rect x="113" y="177" clip-path="url(#clipPath2)" fill="none" width="125" rx="4" ry="4" height="49"/>
    </g>
    <g font-size="16px" stroke-linecap="butt" transform="matrix(1,0,0,1,-79,-123)" text-rendering="geometricPrecision" font-family="sans-serif" shape-rendering="geometricPrecision" stroke-miterlimit="1.45">
      <text x="157.2773" xml:space="preserve" y="207.7852" clip-path="url(#clipPath2)" stroke="none">WEB</text>
    </g>
    <g fill="rgb(214,239,55)" text-rendering="geometricPrecision" shape-rendering="geometricPrecision" transform="matrix(1,0,0,1,-79,-123)" stroke="rgb(214,239,55)">
      <rect x="250.375" y="177" clip-path="url(#clipPath2)" width="238" rx="4" ry="4" height="49" stroke="none"/>
    </g>
    <g stroke-linecap="butt" transform="matrix(1,0,0,1,-79,-123)" fill="rgb(0,102,102)" text-rendering="geometricPrecision" shape-rendering="geometricPrecision" stroke="rgb(0,102,102)" stroke-width="3" stroke-miterlimit="1.45">
      <rect x="250.375" y="177" clip-path="url(#clipPath2)" fill="none" width="238" rx="4" ry="4" height="49"/>
    </g>
    <g font-size="16px" stroke-linecap="butt" transform="matrix(1,0,0,1,-79,-123)" text-rendering="geometricPrecision" font-family="sans-serif" shape-rendering="geometricPrecision" stroke-miterlimit="1.45">
      <text x="314.6992" xml:space="preserve" y="207.7852" clip-path="url(#clipPath2)" stroke="none">Service Worker</text>
    </g>
    <g fill="rgb(214,239,55)" text-rendering="geometricPrecision" shape-rendering="geometricPrecision" transform="matrix(1,0,0,1,-79,-123)" stroke="rgb(214,239,55)">
      <rect x="500.75" y="177" clip-path="url(#clipPath2)" width="125" rx="4" ry="4" height="49" stroke="none"/>
    </g>
    <g stroke-linecap="butt" transform="matrix(1,0,0,1,-79,-123)" fill="rgb(0,102,102)" text-rendering="geometricPrecision" shape-rendering="geometricPrecision" stroke="rgb(0,102,102)" stroke-width="3" stroke-miterlimit="1.45">
      <rect x="500.75" y="177" clip-path="url(#clipPath2)" fill="none" width="125" rx="4" ry="4" height="49"/>
    </g>
    <g font-size="16px" stroke-linecap="butt" transform="matrix(1,0,0,1,-79,-123)" text-rendering="geometricPrecision" font-family="sans-serif" shape-rendering="geometricPrecision" stroke-miterlimit="1.45">
      <text x="533.0156" xml:space="preserve" y="207.7852" clip-path="url(#clipPath2)" stroke="none">Manifest</text>
    </g>
    <g fill="rgb(51,241,222)" text-rendering="geometricPrecision" shape-rendering="geometricPrecision" transform="matrix(1,0,0,1,-79,-123)" stroke="rgb(51,241,222)">
      <rect x="113" y="236" clip-path="url(#clipPath2)" width="512.75" rx="4" ry="4" height="115" stroke="none"/>
    </g>
    <g stroke-linecap="butt" transform="matrix(1,0,0,1,-79,-123)" fill="rgb(0,102,153)" text-rendering="geometricPrecision" shape-rendering="geometricPrecision" stroke="rgb(0,102,153)" stroke-width="3" stroke-miterlimit="1.45">
      <rect x="113" y="236" clip-path="url(#clipPath2)" fill="none" width="512.75" rx="4" ry="4" height="115"/>
    </g>
    <g font-size="16px" stroke-linecap="butt" transform="matrix(1,0,0,1,-79,-123)" text-rendering="geometricPrecision" font-family="sans-serif" shape-rendering="geometricPrecision" stroke-miterlimit="1.45">
      <text x="333.3633" xml:space="preserve" y="258.0859" clip-path="url(#clipPath2)" stroke="none">Web View</text>
    </g>
    <g fill="rgb(51,241,222)" text-rendering="geometricPrecision" shape-rendering="geometricPrecision" transform="matrix(1,0,0,1,-79,-123)" stroke="rgb(51,241,222)">
      <rect x="149" y="281" clip-path="url(#clipPath2)" width="210" rx="4" ry="4" height="49" stroke="none"/>
    </g>
    <g stroke-linecap="butt" transform="matrix(1,0,0,1,-79,-123)" fill="rgb(0,102,102)" text-rendering="geometricPrecision" shape-rendering="geometricPrecision" stroke="rgb(0,102,102)" stroke-width="3" stroke-miterlimit="1.45">
      <rect x="149" y="281" clip-path="url(#clipPath2)" fill="none" width="210" rx="4" ry="4" height="49"/>
    </g>
    <g font-size="16px" stroke-linecap="butt" transform="matrix(1,0,0,1,-79,-123)" text-rendering="geometricPrecision" font-family="sans-serif" shape-rendering="geometricPrecision" stroke-miterlimit="1.45">
      <text x="217.0859" xml:space="preserve" y="301.9844" clip-path="url(#clipPath2)" stroke="none">Rendering</text>
      <text x="229.0898" xml:space="preserve" y="321.5859" clip-path="url(#clipPath2)" stroke="none">Engine</text>
    </g>
    <g fill="rgb(51,241,222)" text-rendering="geometricPrecision" shape-rendering="geometricPrecision" transform="matrix(1,0,0,1,-79,-123)" stroke="rgb(51,241,222)">
      <rect x="377" y="281" clip-path="url(#clipPath2)" width="210" rx="4" ry="4" height="49" stroke="none"/>
    </g>
    <g stroke-linecap="butt" transform="matrix(1,0,0,1,-79,-123)" fill="rgb(0,102,102)" text-rendering="geometricPrecision" shape-rendering="geometricPrecision" stroke="rgb(0,102,102)" stroke-width="3" stroke-miterlimit="1.45">
      <rect x="377" y="281" clip-path="url(#clipPath2)" fill="none" width="210" rx="4" ry="4" height="49"/>
    </g>
    <g font-size="16px" stroke-linecap="butt" transform="matrix(1,0,0,1,-79,-123)" text-rendering="geometricPrecision" font-family="sans-serif" shape-rendering="geometricPrecision" stroke-miterlimit="1.45">
      <text x="444.6523" xml:space="preserve" y="301.9844" clip-path="url(#clipPath2)" stroke="none">JavaScript</text>
      <text x="457.0898" xml:space="preserve" y="321.5859" clip-path="url(#clipPath2)" stroke="none">Engine</text>
    </g>
    <g fill="rgb(153,204,255)" text-rendering="geometricPrecision" shape-rendering="geometricPrecision" transform="matrix(1,0,0,1,-79,-123)" stroke="rgb(153,204,255)">
      <rect x="113" y="361" clip-path="url(#clipPath2)" width="118" rx="4" ry="4" height="49" stroke="none"/>
    </g>
    <g stroke-linecap="butt" transform="matrix(1,0,0,1,-79,-123)" fill="rgb(51,102,255)" text-rendering="geometricPrecision" shape-rendering="geometricPrecision" stroke="rgb(51,102,255)" stroke-width="3" stroke-miterlimit="1.45">
      <rect x="113" y="361" clip-path="url(#clipPath2)" fill="none" width="118" rx="4" ry="4" height="49"/>
    </g>
    <g font-size="16px" stroke-linecap="butt" transform="matrix(1,0,0,1,-79,-123)" text-rendering="geometricPrecision" font-family="sans-serif" shape-rendering="geometricPrecision" stroke-miterlimit="1.45">
      <text x="144.875" xml:space="preserve" y="391.7852" clip-path="url(#clipPath2)" stroke="none">Canvas</text>
    </g>
    <g fill="rgb(153,204,255)" text-rendering="geometricPrecision" shape-rendering="geometricPrecision" transform="matrix(1,0,0,1,-79,-123)" stroke="rgb(153,204,255)">
      <rect x="244.1875" y="361" clip-path="url(#clipPath2)" width="117.5" rx="4" ry="4" height="49" stroke="none"/>
    </g>
    <g stroke-linecap="butt" transform="matrix(1,0,0,1,-79,-123)" fill="rgb(51,102,255)" text-rendering="geometricPrecision" shape-rendering="geometricPrecision" stroke="rgb(51,102,255)" stroke-width="3" stroke-miterlimit="1.45">
      <rect x="244.1875" y="361" clip-path="url(#clipPath2)" fill="none" width="117.5" rx="4" ry="4" height="49"/>
    </g>
    <g font-size="16px" stroke-linecap="butt" transform="matrix(1,0,0,1,-79,-123)" text-rendering="geometricPrecision" font-family="sans-serif" shape-rendering="geometricPrecision" stroke-miterlimit="1.45">
      <text x="282.4805" xml:space="preserve" y="391.7852" clip-path="url(#clipPath2)" stroke="none">Event</text>
    </g>
    <g fill="rgb(153,204,255)" text-rendering="geometricPrecision" shape-rendering="geometricPrecision" transform="matrix(1,0,0,1,-79,-123)" stroke="rgb(153,204,255)">
      <rect x="376.2188" y="361" clip-path="url(#clipPath2)" width="117.5" rx="4" ry="4" height="49" stroke="none"/>
    </g>
    <g stroke-linecap="butt" transform="matrix(1,0,0,1,-79,-123)" fill="rgb(51,102,255)" text-rendering="geometricPrecision" shape-rendering="geometricPrecision" stroke="rgb(51,102,255)" stroke-width="3" stroke-miterlimit="1.45">
      <rect x="376.2188" y="361" clip-path="url(#clipPath2)" fill="none" width="117.5" rx="4" ry="4" height="49"/>
    </g>
    <g font-size="16px" stroke-linecap="butt" transform="matrix(1,0,0,1,-79,-123)" text-rendering="geometricPrecision" font-family="sans-serif" shape-rendering="geometricPrecision" stroke-miterlimit="1.45">
      <text x="422.0742" xml:space="preserve" y="391.7852" clip-path="url(#clipPath2)" stroke="none">API</text>
    </g>
    <g fill="rgb(153,204,255)" text-rendering="geometricPrecision" shape-rendering="geometricPrecision" transform="matrix(1,0,0,1,-79,-123)" stroke="rgb(153,204,255)">
      <rect x="508.25" y="361" clip-path="url(#clipPath2)" width="117.5" rx="4" ry="4" height="49" stroke="none"/>
    </g>
    <g stroke-linecap="butt" transform="matrix(1,0,0,1,-79,-123)" fill="rgb(51,102,255)" text-rendering="geometricPrecision" shape-rendering="geometricPrecision" stroke="rgb(51,102,255)" stroke-width="3" stroke-miterlimit="1.45">
      <rect x="508.25" y="361" clip-path="url(#clipPath2)" fill="none" width="117.5" rx="4" ry="4" height="49"/>
    </g>
    <g font-size="16px" stroke-linecap="butt" transform="matrix(1,0,0,1,-79,-123)" text-rendering="geometricPrecision" font-family="sans-serif" shape-rendering="geometricPrecision" stroke-miterlimit="1.45">
      <text x="540.3281" xml:space="preserve" y="381.9844" clip-path="url(#clipPath2)" stroke="none">System</text>
      <text x="535.4258" xml:space="preserve" y="401.5859" clip-path="url(#clipPath2)" stroke="none">Manager</text>
    </g>
    <g fill="white" text-rendering="geometricPrecision" shape-rendering="geometricPrecision" transform="matrix(1,0,0,1,-79,-123)" stroke="white">
      <rect x="680" width="556" height="321" y="138" clip-path="url(#clipPath2)" stroke="none"/>
    </g>
    <g text-rendering="geometricPrecision" stroke-miterlimit="1.45" shape-rendering="geometricPrecision" transform="matrix(1,0,0,1,-79,-123)" stroke-linecap="butt">
      <rect fill="none" x="680" width="556" height="321" y="138" clip-path="url(#clipPath2)"/>
      <text x="922.5098" font-size="18px" y="449.0449" clip-path="url(#clipPath2)" font-family="sans-serif" stroke="none" font-weight="bold" xml:space="preserve">MiniApp</text>
    </g>
    <g fill="rgb(214,239,55)" text-rendering="geometricPrecision" shape-rendering="geometricPrecision" transform="matrix(1,0,0,1,-79,-123)" stroke="rgb(214,239,55)">
      <rect x="699" y="172.5" clip-path="url(#clipPath2)" width="185" rx="4" ry="4" height="24" stroke="none"/>
    </g>
    <g stroke-linecap="butt" transform="matrix(1,0,0,1,-79,-123)" fill="rgb(0,102,102)" text-rendering="geometricPrecision" shape-rendering="geometricPrecision" stroke="rgb(0,102,102)" stroke-width="3" stroke-miterlimit="1.45">
      <rect x="699" y="172.5" clip-path="url(#clipPath2)" fill="none" width="185" rx="4" ry="4" height="24"/>
    </g>
    <g font-size="16px" stroke-linecap="butt" transform="matrix(1,0,0,1,-79,-123)" text-rendering="geometricPrecision" font-family="sans-serif" shape-rendering="geometricPrecision" stroke-miterlimit="1.45">
      <text x="773.2773" xml:space="preserve" y="190.7852" clip-path="url(#clipPath2)" stroke="none">WEB</text>
    </g>
    <g fill="rgb(214,239,55)" text-rendering="geometricPrecision" shape-rendering="geometricPrecision" transform="matrix(1,0,0,1,-79,-123)" stroke="rgb(214,239,55)">
      <rect x="1086.75" y="172.5" clip-path="url(#clipPath2)" width="125" rx="4" ry="4" height="53.5" stroke="none"/>
    </g>
    <g stroke-linecap="butt" transform="matrix(1,0,0,1,-79,-123)" fill="rgb(0,102,102)" text-rendering="geometricPrecision" shape-rendering="geometricPrecision" stroke="rgb(0,102,102)" stroke-width="3" stroke-miterlimit="1.45">
      <rect x="1086.75" y="172.5" clip-path="url(#clipPath2)" fill="none" width="125" rx="4" ry="4" height="53.5"/>
    </g>
    <g font-size="16px" stroke-linecap="butt" transform="matrix(1,0,0,1,-79,-123)" text-rendering="geometricPrecision" font-family="sans-serif" shape-rendering="geometricPrecision" stroke-miterlimit="1.45">
      <text x="1119.0156" xml:space="preserve" y="205.5352" clip-path="url(#clipPath2)" stroke="none">Manifest</text>
    </g>
    <g fill="rgb(51,241,222)" text-rendering="geometricPrecision" shape-rendering="geometricPrecision" transform="matrix(1,0,0,1,-79,-123)" stroke="rgb(51,241,222)">
      <rect x="699" y="236" clip-path="url(#clipPath2)" width="512.75" rx="4" ry="4" height="115" stroke="none"/>
    </g>
    <g stroke-linecap="butt" transform="matrix(1,0,0,1,-79,-123)" fill="rgb(0,102,153)" text-rendering="geometricPrecision" shape-rendering="geometricPrecision" stroke="rgb(0,102,153)" stroke-width="3" stroke-miterlimit="1.45">
      <rect x="699" y="236" clip-path="url(#clipPath2)" fill="none" width="512.75" rx="4" ry="4" height="115"/>
    </g>
    <g fill="rgb(153,204,255)" text-rendering="geometricPrecision" shape-rendering="geometricPrecision" transform="matrix(1,0,0,1,-79,-123)" stroke="rgb(153,204,255)">
      <rect x="699" y="390.5" clip-path="url(#clipPath2)" width="118" rx="4" ry="4" height="24" stroke="none"/>
    </g>
    <g stroke-linecap="butt" transform="matrix(1,0,0,1,-79,-123)" fill="rgb(51,102,255)" text-rendering="geometricPrecision" shape-rendering="geometricPrecision" stroke="rgb(51,102,255)" stroke-width="3" stroke-miterlimit="1.45">
      <rect x="699" y="390.5" clip-path="url(#clipPath2)" fill="none" width="118" rx="4" ry="4" height="24"/>
    </g>
    <g font-size="16px" stroke-linecap="butt" transform="matrix(1,0,0,1,-79,-123)" text-rendering="geometricPrecision" font-family="sans-serif" shape-rendering="geometricPrecision" stroke-miterlimit="1.45">
      <text x="730.875" xml:space="preserve" y="408.7852" clip-path="url(#clipPath2)" stroke="none">Canvas</text>
    </g>
    <g fill="rgb(153,204,255)" text-rendering="geometricPrecision" shape-rendering="geometricPrecision" transform="matrix(1,0,0,1,-79,-123)" stroke="rgb(153,204,255)">
      <rect x="830.1875" y="390.5" clip-path="url(#clipPath2)" width="117.5" rx="4" ry="4" height="24" stroke="none"/>
    </g>
    <g stroke-linecap="butt" transform="matrix(1,0,0,1,-79,-123)" fill="rgb(51,102,255)" text-rendering="geometricPrecision" shape-rendering="geometricPrecision" stroke="rgb(51,102,255)" stroke-width="3" stroke-miterlimit="1.45">
      <rect x="830.1875" y="390.5" clip-path="url(#clipPath2)" fill="none" width="117.5" rx="4" ry="4" height="24"/>
    </g>
    <g font-size="16px" stroke-linecap="butt" transform="matrix(1,0,0,1,-79,-123)" text-rendering="geometricPrecision" font-family="sans-serif" shape-rendering="geometricPrecision" stroke-miterlimit="1.45">
      <text x="868.4805" xml:space="preserve" y="408.7852" clip-path="url(#clipPath2)" stroke="none">Event</text>
    </g>
    <g fill="rgb(153,204,255)" text-rendering="geometricPrecision" shape-rendering="geometricPrecision" transform="matrix(1,0,0,1,-79,-123)" stroke="rgb(153,204,255)">
      <rect x="962.2188" y="361" clip-path="url(#clipPath2)" width="117.5" rx="4" ry="4" height="53.5" stroke="none"/>
    </g>
    <g stroke-linecap="butt" transform="matrix(1,0,0,1,-79,-123)" fill="rgb(51,102,255)" text-rendering="geometricPrecision" shape-rendering="geometricPrecision" stroke="rgb(51,102,255)" stroke-width="3" stroke-miterlimit="1.45">
      <rect x="962.2188" y="361" clip-path="url(#clipPath2)" fill="none" width="117.5" rx="4" ry="4" height="53.5"/>
    </g>
    <g font-size="16px" stroke-linecap="butt" transform="matrix(1,0,0,1,-79,-123)" text-rendering="geometricPrecision" font-family="sans-serif" shape-rendering="geometricPrecision" stroke-miterlimit="1.45">
      <text x="1008.0742" xml:space="preserve" y="394.0352" clip-path="url(#clipPath2)" stroke="none">API</text>
    </g>
    <g fill="rgb(153,204,255)" text-rendering="geometricPrecision" shape-rendering="geometricPrecision" transform="matrix(1,0,0,1,-79,-123)" stroke="rgb(153,204,255)">
      <rect x="1094.25" y="361" clip-path="url(#clipPath2)" width="117.5" rx="4" ry="4" height="53.5" stroke="none"/>
    </g>
    <g stroke-linecap="butt" transform="matrix(1,0,0,1,-79,-123)" fill="rgb(51,102,255)" text-rendering="geometricPrecision" shape-rendering="geometricPrecision" stroke="rgb(51,102,255)" stroke-width="3" stroke-miterlimit="1.45">
      <rect x="1094.25" y="361" clip-path="url(#clipPath2)" fill="none" width="117.5" rx="4" ry="4" height="53.5"/>
    </g>
    <g font-size="16px" stroke-linecap="butt" transform="matrix(1,0,0,1,-79,-123)" text-rendering="geometricPrecision" font-family="sans-serif" shape-rendering="geometricPrecision" stroke-miterlimit="1.45">
      <text x="1126.3281" xml:space="preserve" y="384.2344" clip-path="url(#clipPath2)" stroke="none">System</text>
      <text x="1121.4258" xml:space="preserve" y="403.8359" clip-path="url(#clipPath2)" stroke="none">Manager</text>
    </g>
    <g fill="rgb(214,239,55)" text-rendering="geometricPrecision" shape-rendering="geometricPrecision" transform="matrix(1,0,0,1,-79,-123)" stroke="rgb(214,239,55)">
      <rect x="699" y="202" clip-path="url(#clipPath2)" width="378.875" rx="4" ry="4" height="24" stroke="none"/>
    </g>
    <g stroke-linecap="butt" transform="matrix(1,0,0,1,-79,-123)" fill="rgb(0,102,102)" text-rendering="geometricPrecision" shape-rendering="geometricPrecision" stroke="rgb(0,102,102)" stroke-width="3" stroke-miterlimit="1.45">
      <rect x="699" y="202" clip-path="url(#clipPath2)" fill="none" width="378.875" rx="4" ry="4" height="24"/>
    </g>
    <g font-size="16px" stroke-linecap="butt" transform="matrix(1,0,0,1,-79,-123)" text-rendering="geometricPrecision" font-family="sans-serif" shape-rendering="geometricPrecision" stroke-miterlimit="1.45">
      <text x="817.3086" xml:space="preserve" y="220.2852" clip-path="url(#clipPath2)" stroke="none">MiniApp Framework</text>
    </g>
    <g fill="rgb(214,239,55)" text-rendering="geometricPrecision" shape-rendering="geometricPrecision" transform="matrix(1,0,0,1,-79,-123)" stroke="rgb(214,239,55)">
      <rect x="892.875" y="172.5" clip-path="url(#clipPath2)" width="185" rx="4" ry="4" height="24" stroke="none"/>
    </g>
    <g stroke-linecap="butt" transform="matrix(1,0,0,1,-79,-123)" fill="rgb(0,102,102)" text-rendering="geometricPrecision" shape-rendering="geometricPrecision" stroke="rgb(0,102,102)" stroke-width="3" stroke-miterlimit="1.45">
      <rect x="892.875" y="172.5" clip-path="url(#clipPath2)" fill="none" width="185" rx="4" ry="4" height="24"/>
    </g>
    <g font-size="16px" stroke-linecap="butt" transform="matrix(1,0,0,1,-79,-123)" text-rendering="geometricPrecision" font-family="sans-serif" shape-rendering="geometricPrecision" stroke-miterlimit="1.45">
      <text x="930.6992" xml:space="preserve" y="190.7852" clip-path="url(#clipPath2)" stroke="none">Service Worker</text>
    </g>
    <g fill="rgb(51,241,222)" text-rendering="geometricPrecision" shape-rendering="geometricPrecision" transform="matrix(1,0,0,1,-79,-123)" stroke="rgb(51,241,222)">
      <rect x="713.5" y="250.1297" clip-path="url(#clipPath2)" width="335" rx="4" ry="4" height="86.7406" stroke="none"/>
    </g>
    <g stroke-linecap="butt" transform="matrix(1,0,0,1,-79,-123)" fill="rgb(0,102,153)" text-rendering="geometricPrecision" shape-rendering="geometricPrecision" stroke="rgb(0,102,153)" stroke-width="3" stroke-miterlimit="1.45">
      <rect x="713.5" y="250.1297" clip-path="url(#clipPath2)" fill="none" width="335" rx="4" ry="4" height="86.7406"/>
    </g>
    <g font-size="16px" stroke-linecap="butt" transform="matrix(1,0,0,1,-79,-123)" text-rendering="geometricPrecision" font-family="sans-serif" shape-rendering="geometricPrecision" stroke-miterlimit="1.45">
      <text x="821.875" xml:space="preserve" y="272.2156" clip-path="url(#clipPath2)" stroke="none">Multi Web Views</text>
    </g>
    <g fill="rgb(51,241,222)" text-rendering="geometricPrecision" shape-rendering="geometricPrecision" transform="matrix(1,0,0,1,-79,-123)" stroke="rgb(51,241,222)">
      <rect x="725" y="279.1297" clip-path="url(#clipPath2)" width="144" rx="4" ry="4" height="44" stroke="none"/>
    </g>
    <g stroke-linecap="butt" transform="matrix(1,0,0,1,-79,-123)" fill="rgb(0,102,102)" text-rendering="geometricPrecision" shape-rendering="geometricPrecision" stroke="rgb(0,102,102)" stroke-width="3" stroke-miterlimit="1.45">
      <rect x="725" y="279.1297" clip-path="url(#clipPath2)" fill="none" width="144" rx="4" ry="4" height="44"/>
    </g>
    <g font-size="16px" stroke-linecap="butt" transform="matrix(1,0,0,1,-79,-123)" text-rendering="geometricPrecision" font-family="sans-serif" shape-rendering="geometricPrecision" stroke-miterlimit="1.45">
      <text x="760.0859" xml:space="preserve" y="297.6141" clip-path="url(#clipPath2)" stroke="none">Rendering</text>
      <text x="772.0898" xml:space="preserve" y="317.2156" clip-path="url(#clipPath2)" stroke="none">Engine</text>
    </g>
    <g fill="rgb(51,241,222)" text-rendering="geometricPrecision" shape-rendering="geometricPrecision" transform="matrix(1,0,0,1,-79,-123)" stroke="rgb(51,241,222)">
      <rect x="893" y="279.1297" clip-path="url(#clipPath2)" width="144" rx="4" ry="4" height="44" stroke="none"/>
    </g>
    <g stroke-linecap="butt" transform="matrix(1,0,0,1,-79,-123)" fill="rgb(0,102,102)" text-rendering="geometricPrecision" shape-rendering="geometricPrecision" stroke="rgb(0,102,102)" stroke-width="3" stroke-miterlimit="1.45">
      <rect x="893" y="279.1297" clip-path="url(#clipPath2)" fill="none" width="144" rx="4" ry="4" height="44"/>
    </g>
    <g font-size="16px" stroke-linecap="butt" transform="matrix(1,0,0,1,-79,-123)" text-rendering="geometricPrecision" font-family="sans-serif" shape-rendering="geometricPrecision" stroke-miterlimit="1.45">
      <text x="927.6523" xml:space="preserve" y="297.6141" clip-path="url(#clipPath2)" stroke="none">JavaScript</text>
      <text x="940.0898" xml:space="preserve" y="317.2156" clip-path="url(#clipPath2)" stroke="none">Engine</text>
    </g>
    <g fill="rgb(51,241,222)" text-rendering="geometricPrecision" shape-rendering="geometricPrecision" transform="matrix(1,0,0,1,-79,-123)" stroke="rgb(51,241,222)">
      <rect x="1067" y="251.2406" clip-path="url(#clipPath2)" width="125" rx="4" ry="4" height="36" stroke="none"/>
    </g>
    <g stroke-linecap="butt" transform="matrix(1,0,0,1,-79,-123)" fill="rgb(0,102,102)" text-rendering="geometricPrecision" shape-rendering="geometricPrecision" stroke="rgb(0,102,102)" stroke-width="3" stroke-miterlimit="1.45">
      <rect x="1067" y="251.2406" clip-path="url(#clipPath2)" fill="none" width="125" rx="4" ry="4" height="36"/>
    </g>
    <g font-size="16px" stroke-linecap="butt" transform="matrix(1,0,0,1,-79,-123)" text-rendering="geometricPrecision" font-family="sans-serif" shape-rendering="geometricPrecision" stroke-miterlimit="1.45">
      <text x="1106.375" xml:space="preserve" y="275.5258" clip-path="url(#clipPath2)" stroke="none">Bridge</text>
    </g>
    <g fill="rgb(51,241,222)" text-rendering="geometricPrecision" shape-rendering="geometricPrecision" transform="matrix(1,0,0,1,-79,-123)" stroke="rgb(51,241,222)">
      <rect x="1067" y="300.8703" clip-path="url(#clipPath2)" width="125" rx="4" ry="4" height="36" stroke="none"/>
    </g>
    <g stroke-linecap="butt" transform="matrix(1,0,0,1,-79,-123)" fill="rgb(0,102,102)" text-rendering="geometricPrecision" shape-rendering="geometricPrecision" stroke="rgb(0,102,102)" stroke-width="3" stroke-miterlimit="1.45">
      <rect x="1067" y="300.8703" clip-path="url(#clipPath2)" fill="none" width="125" rx="4" ry="4" height="36"/>
    </g>
    <g font-size="16px" stroke-linecap="butt" transform="matrix(1,0,0,1,-79,-123)" text-rendering="geometricPrecision" font-family="sans-serif" shape-rendering="geometricPrecision" stroke-miterlimit="1.45">
      <text x="1106.8242" xml:space="preserve" y="325.1555" clip-path="url(#clipPath2)" stroke="none">Native</text>
    </g>
    <g fill="rgb(153,204,255)" text-rendering="geometricPrecision" shape-rendering="geometricPrecision" transform="matrix(1,0,0,1,-79,-123)" stroke="rgb(153,204,255)">
      <rect x="699" y="361" clip-path="url(#clipPath2)" width="248.6875" rx="4" ry="4" height="24" stroke="none"/>
    </g>
    <g stroke-linecap="butt" transform="matrix(1,0,0,1,-79,-123)" fill="rgb(51,102,255)" text-rendering="geometricPrecision" shape-rendering="geometricPrecision" stroke="rgb(51,102,255)" stroke-width="3" stroke-miterlimit="1.45">
      <rect x="699" y="361" clip-path="url(#clipPath2)" fill="none" width="248.6875" rx="4" ry="4" height="24"/>
    </g>
    <g font-size="16px" stroke-linecap="butt" transform="matrix(1,0,0,1,-79,-123)" text-rendering="geometricPrecision" font-family="sans-serif" shape-rendering="geometricPrecision" stroke-miterlimit="1.45">
      <text x="773.1172" xml:space="preserve" y="379.2852" clip-path="url(#clipPath2)" stroke="none">UI Framework</text>
    </g>
  </g>
</svg>
